<svg width="2363" height="2682" viewBox="0 0 2363 2682" fill="none" xmlns="http://www.w3.org/2000/svg">
<path d="M1091.6 765L1049.67 922.597L938.001 791.476L968.64 963.362L831.569 864.181L865.031 1027.66H691.677L778.354 1150.38L605 1202.91L730.782 1296.21L605 1424.39L747.715 1450.86L677.567 1610.98H814.637L778.354 1745.46L921.068 1704.28V1855.99L1049.67 1780.34L1072.25 1911.47L1161.75 1798L1229.07 1935L1287.53 1798L1354.86 1911.47L1399.61 1765.64L1533.85 1835.82L1497.57 1704.28L1648.75 1745.46L1587.07 1610.98L1754.78 1593.75L1648.75 1497.51L1783 1450.86L1670.92 1371.85L1783 1296.21L1648.75 1220.14L1732.61 1112.13L1570.14 1080.19L1620.53 946.131L1474.99 986.897V823.416L1354.86 922.597L1318.57 765L1209.32 905.366L1091.6 765Z" stroke="white" stroke-width="8"/>
<path d="M563 1245.5H513.2L504.2 1283H449L504.2 1112H574.7L627.5 1283H572L563 1245.5ZM537.8 1148.9L520.1 1212.2H555.8L539 1148.9H537.8ZM799.388 1112V1207.7C799.388 1227.5 797.188 1243 792.788 1254.2C788.588 1265.2 780.588 1273.3 768.788 1278.5C756.988 1283.7 739.788 1286.3 717.188 1286.3C700.588 1286.3 686.588 1284.6 675.188 1281.2C663.788 1277.6 654.688 1270.9 647.888 1261.1C641.288 1251.3 637.988 1237.5 637.988 1219.7V1112H691.988V1208.3C691.988 1218.9 692.488 1227 693.488 1232.6C694.688 1238 697.288 1242.2 701.288 1245.2C705.288 1248 711.388 1249.4 719.588 1249.4C724.588 1249.4 729.288 1248.9 733.688 1247.9C738.088 1246.9 741.088 1245.4 742.688 1243.4C744.488 1241 745.388 1232.3 745.388 1217.3V1112H799.388ZM917.567 1283H863.567V1149.5H815.267V1112H965.867V1149.5H917.567V1283ZM1063.61 1286.9C1033.81 1286.9 1011.41 1279.9 996.411 1265.9C981.611 1251.7 974.211 1229 974.211 1197.8C974.211 1167.2 982.411 1144.9 998.811 1130.9C1015.21 1116.9 1036.91 1109.9 1063.91 1109.9C1120.71 1109.9 1149.11 1138.2 1149.11 1194.8C1149.11 1223.4 1142.11 1245.9 1128.11 1262.3C1114.31 1278.7 1092.81 1286.9 1063.61 1286.9ZM1062.41 1251.5C1068.01 1251.5 1072.71 1250.6 1076.51 1248.8C1080.31 1246.8 1083.31 1243.4 1085.51 1238.6C1089.71 1230.4 1091.81 1217 1091.81 1198.4C1091.81 1180.2 1089.71 1167 1085.51 1158.8C1081.31 1150.4 1073.61 1146 1062.41 1145.6C1058.21 1145.6 1053.81 1146.1 1049.21 1147.1C1044.81 1147.9 1042.01 1149.1 1040.81 1150.7C1038.41 1153.5 1036.51 1159.5 1035.11 1168.7C1033.91 1177.7 1033.31 1187.6 1033.31 1198.4C1033.31 1215.2 1034.91 1227.5 1038.11 1235.3C1040.31 1241.1 1043.41 1245.3 1047.41 1247.9C1051.41 1250.3 1056.41 1251.5 1062.41 1251.5ZM1393.48 1283H1343.08L1339.18 1188.8C1338.58 1170.2 1337.88 1156.1 1337.08 1146.5H1336.18C1333.78 1154.1 1330.98 1165.9 1327.78 1181.9L1326.28 1189.4L1305.58 1283H1255.18L1237.78 1198.7L1234.78 1183.7C1230.58 1165.1 1227.68 1152.7 1226.08 1146.5H1225.18C1224.38 1156.5 1223.68 1172.8 1223.08 1195.4C1222.88 1196.8 1222.78 1199 1222.78 1202L1220.08 1283H1169.38L1176.58 1112H1262.38L1277.08 1185.8L1280.68 1205.6C1282.28 1199.4 1283.78 1192.5 1285.18 1184.9L1298.98 1112H1386.58L1393.48 1283ZM1518.96 1245.5H1469.16L1460.16 1283H1404.96L1460.16 1112H1530.66L1583.46 1283H1527.96L1518.96 1245.5ZM1493.76 1148.9L1476.06 1212.2H1511.76L1494.96 1148.9H1493.76ZM1674.6 1283H1620.6V1149.5H1572.3V1112H1722.9V1149.5H1674.6V1283ZM1740.47 1112H1794.47V1283H1740.47V1112ZM1958.94 1277.3C1951.54 1280.5 1942.94 1282.8 1933.14 1284.2C1923.34 1285.6 1914.24 1286.3 1905.84 1286.3C1878.64 1286.3 1857.34 1279.2 1841.94 1265C1826.54 1250.8 1818.84 1229 1818.84 1199.6C1818.84 1169.6 1826.94 1147.2 1843.14 1132.4C1859.34 1117.4 1882.14 1109.9 1911.54 1109.9C1925.54 1109.9 1940.14 1111.8 1955.34 1115.6C1955.34 1119.6 1954.94 1125.6 1954.14 1133.6C1953.34 1141.4 1952.54 1146.9 1951.74 1150.1H1932.84C1919.04 1150.1 1908.14 1150.4 1900.14 1151C1892.34 1151.4 1887.64 1152.3 1886.04 1153.7C1883.04 1156.5 1880.74 1162.2 1879.14 1170.8C1877.54 1179.2 1876.74 1187.3 1876.74 1195.1C1876.74 1208.7 1878.44 1219.2 1881.84 1226.6C1885.24 1233.8 1889.54 1238.6 1894.74 1241C1899.74 1243.4 1908.04 1244.6 1919.64 1244.6C1928.84 1244.6 1940.84 1243.8 1955.64 1242.2L1958.94 1277.3Z" fill="white"/>
<path d="M588 1245.5H538.2L529.2 1283H474L529.2 1112H599.7L652.5 1283H597L588 1245.5ZM562.8 1148.9L545.1 1212.2H580.8L564 1148.9H562.8ZM824.388 1112V1207.7C824.388 1227.5 822.188 1243 817.788 1254.2C813.588 1265.2 805.588 1273.3 793.788 1278.5C781.988 1283.7 764.788 1286.3 742.188 1286.3C725.588 1286.3 711.588 1284.6 700.188 1281.2C688.788 1277.6 679.688 1270.9 672.888 1261.1C666.288 1251.3 662.988 1237.5 662.988 1219.7V1112H716.988V1208.3C716.988 1218.9 717.488 1227 718.488 1232.6C719.688 1238 722.288 1242.2 726.288 1245.2C730.288 1248 736.388 1249.4 744.588 1249.4C749.588 1249.4 754.288 1248.9 758.688 1247.9C763.088 1246.9 766.088 1245.4 767.688 1243.4C769.488 1241 770.388 1232.3 770.388 1217.3V1112H824.388ZM942.567 1283H888.567V1149.5H840.267V1112H990.867V1149.5H942.567V1283ZM1088.61 1286.9C1058.81 1286.9 1036.41 1279.9 1021.41 1265.9C1006.61 1251.7 999.211 1229 999.211 1197.8C999.211 1167.2 1007.41 1144.9 1023.81 1130.9C1040.21 1116.9 1061.91 1109.9 1088.91 1109.9C1145.71 1109.9 1174.11 1138.2 1174.11 1194.8C1174.11 1223.4 1167.11 1245.9 1153.11 1262.3C1139.31 1278.7 1117.81 1286.9 1088.61 1286.9ZM1087.41 1251.5C1093.01 1251.5 1097.71 1250.6 1101.51 1248.8C1105.31 1246.8 1108.31 1243.4 1110.51 1238.6C1114.71 1230.4 1116.81 1217 1116.81 1198.4C1116.81 1180.2 1114.71 1167 1110.51 1158.8C1106.31 1150.4 1098.61 1146 1087.41 1145.6C1083.21 1145.6 1078.81 1146.1 1074.21 1147.1C1069.81 1147.9 1067.01 1149.1 1065.81 1150.7C1063.41 1153.5 1061.51 1159.5 1060.11 1168.7C1058.91 1177.7 1058.31 1187.6 1058.31 1198.4C1058.31 1215.2 1059.91 1227.5 1063.11 1235.3C1065.31 1241.1 1068.41 1245.3 1072.41 1247.9C1076.41 1250.3 1081.41 1251.5 1087.41 1251.5ZM1418.48 1283H1368.08L1364.18 1188.8C1363.58 1170.2 1362.88 1156.1 1362.08 1146.5H1361.18C1358.78 1154.1 1355.98 1165.9 1352.78 1181.9L1351.28 1189.4L1330.58 1283H1280.18L1262.78 1198.7L1259.78 1183.7C1255.58 1165.1 1252.68 1152.7 1251.08 1146.5H1250.18C1249.38 1156.5 1248.68 1172.8 1248.08 1195.4C1247.88 1196.8 1247.78 1199 1247.78 1202L1245.08 1283H1194.38L1201.58 1112H1287.38L1302.08 1185.8L1305.68 1205.6C1307.28 1199.4 1308.78 1192.5 1310.18 1184.9L1323.98 1112H1411.58L1418.48 1283ZM1543.96 1245.5H1494.16L1485.16 1283H1429.96L1485.16 1112H1555.66L1608.46 1283H1552.96L1543.96 1245.5ZM1518.76 1148.9L1501.06 1212.2H1536.76L1519.96 1148.9H1518.76ZM1699.6 1283H1645.6V1149.5H1597.3V1112H1747.9V1149.5H1699.6V1283ZM1765.47 1112H1819.47V1283H1765.47V1112ZM1983.94 1277.3C1976.54 1280.5 1967.94 1282.8 1958.14 1284.2C1948.34 1285.6 1939.24 1286.3 1930.84 1286.3C1903.64 1286.3 1882.34 1279.2 1866.94 1265C1851.54 1250.8 1843.84 1229 1843.84 1199.6C1843.84 1169.6 1851.94 1147.2 1868.14 1132.4C1884.34 1117.4 1907.14 1109.9 1936.54 1109.9C1950.54 1109.9 1965.14 1111.8 1980.34 1115.6C1980.34 1119.6 1979.94 1125.6 1979.14 1133.6C1978.34 1141.4 1977.54 1146.9 1976.74 1150.1H1957.84C1944.04 1150.1 1933.14 1150.4 1925.14 1151C1917.34 1151.4 1912.64 1152.3 1911.04 1153.7C1908.04 1156.5 1905.74 1162.2 1904.14 1170.8C1902.54 1179.2 1901.74 1187.3 1901.74 1195.1C1901.74 1208.7 1903.44 1219.2 1906.84 1226.6C1910.24 1233.8 1914.54 1238.6 1919.74 1241C1924.74 1243.4 1933.04 1244.6 1944.64 1244.6C1953.84 1244.6 1965.84 1243.8 1980.64 1242.2L1983.94 1277.3Z" fill="#FCAC00"/>
<path d="M824.9 1374V1469.7C824.9 1489.5 822.7 1505 818.3 1516.2C814.1 1527.2 806.1 1535.3 794.3 1540.5C782.5 1545.7 765.3 1548.3 742.7 1548.3C726.1 1548.3 712.1 1546.6 700.7 1543.2C689.3 1539.6 680.2 1532.9 673.4 1523.1C666.8 1513.3 663.5 1499.5 663.5 1481.7V1374H717.5V1470.3C717.5 1480.9 718 1489 719 1494.6C720.2 1500 722.8 1504.2 726.8 1507.2C730.8 1510 736.9 1511.4 745.1 1511.4C750.1 1511.4 754.8 1510.9 759.2 1509.9C763.6 1508.9 766.6 1507.4 768.2 1505.4C770 1503 770.9 1494.3 770.9 1479.3V1374H824.9ZM922.379 1373.1C938.579 1373.1 952.279 1374.6 963.479 1377.6C974.679 1380.6 983.579 1386.4 990.179 1395C996.979 1403.4 1000.38 1415.5 1000.38 1431.3C1000.38 1438.3 999.279 1445.5 997.079 1452.9C995.079 1460.1 992.479 1466.4 989.279 1471.8C986.279 1477.2 983.579 1480.7 981.179 1482.3C978.379 1484.3 972.179 1485.9 962.579 1487.1C952.979 1488.1 941.679 1488.6 928.679 1488.6C924.079 1488.6 916.979 1488.4 907.379 1488V1545H853.379V1374C874.379 1373.4 897.379 1373.1 922.379 1373.1ZM944.879 1450.2C946.879 1447.6 947.879 1442.4 947.879 1434.6C947.879 1424.4 945.679 1417.2 941.279 1413C937.079 1408.8 929.679 1406.7 919.079 1406.7C915.479 1406.7 911.579 1407 907.379 1407.6V1453.2C909.379 1453.4 913.279 1453.5 919.079 1453.5C934.479 1453.5 943.079 1452.4 944.879 1450.2ZM1079.49 1374C1102.89 1374 1121.99 1376.2 1136.79 1380.6C1151.79 1385 1163.39 1393.3 1171.59 1405.5C1179.99 1417.7 1184.19 1435.2 1184.19 1458C1184.19 1482.4 1179.79 1501 1170.99 1513.8C1162.19 1526.4 1150.39 1534.8 1135.59 1539C1120.79 1543 1102.09 1545 1079.49 1545H1019.49V1374H1079.49ZM1119.69 1504.2C1122.09 1501.8 1123.79 1495.6 1124.79 1485.6C1125.79 1475.6 1126.29 1466.4 1126.29 1458C1126.29 1447.4 1125.49 1439 1123.89 1432.8C1122.49 1426.4 1119.89 1421.3 1116.09 1417.5C1110.09 1410.9 1099.79 1407.6 1085.19 1407.6C1082.59 1407.6 1078.69 1407.8 1073.49 1408.2V1507.8C1076.89 1508.2 1082.19 1508.4 1089.39 1508.4C1096.79 1508.4 1103.29 1508.1 1108.89 1507.5C1114.69 1506.7 1118.29 1505.6 1119.69 1504.2ZM1302.77 1507.5H1252.97L1243.97 1545H1188.77L1243.97 1374H1314.47L1367.27 1545H1311.77L1302.77 1507.5ZM1277.57 1410.9L1259.87 1474.2H1295.57L1278.77 1410.9H1277.57ZM1458.41 1545H1404.41V1411.5H1356.11V1374H1506.71V1411.5H1458.41V1545ZM1522.48 1374H1646.98V1410H1576.48V1441.2H1635.88V1473.6H1576.48V1508.4H1646.68V1545H1522.48V1374ZM1719.08 1420.2C1719.08 1424.4 1721.18 1427.7 1725.38 1430.1C1729.78 1432.5 1736.58 1435.1 1745.78 1437.9C1756.78 1441.5 1765.78 1445 1772.78 1448.4C1779.98 1451.8 1786.18 1457.1 1791.38 1464.3C1796.78 1471.5 1799.48 1480.9 1799.48 1492.5C1799.48 1529.7 1775.28 1548.3 1726.88 1548.3C1718.88 1548.3 1709.08 1547.6 1697.48 1546.2C1686.08 1544.8 1675.68 1543 1666.28 1540.8C1666.68 1536.6 1667.48 1530.5 1668.68 1522.5C1670.08 1514.3 1671.38 1508.2 1672.58 1504.2C1679.58 1505.2 1690.08 1506.4 1704.08 1507.8C1718.28 1509.2 1728.98 1509.9 1736.18 1509.9C1740.38 1509.9 1742.88 1509.6 1743.68 1509C1744.88 1508.2 1745.78 1506.9 1746.38 1505.1C1747.18 1503.1 1747.58 1501.4 1747.58 1500C1747.58 1496 1745.68 1493 1741.88 1491C1738.08 1488.8 1731.58 1486.2 1722.38 1483.2C1711.38 1479.8 1702.28 1476.3 1695.08 1472.7C1687.88 1469.1 1681.58 1463.5 1676.18 1455.9C1670.78 1448.3 1668.08 1438.3 1668.08 1425.9C1668.08 1417.1 1670.08 1408.5 1674.08 1400.1C1678.08 1391.5 1682.18 1385.7 1686.38 1382.7C1689.58 1380.5 1696.18 1378.4 1706.18 1376.4C1716.18 1374.4 1725.58 1373.4 1734.38 1373.4C1756.78 1373.4 1775.08 1375.5 1789.28 1379.7C1789.08 1383.7 1788.38 1389.2 1787.18 1396.2C1786.18 1403.2 1785.08 1409.6 1783.88 1415.4L1776.98 1415.1C1750.98 1413.3 1734.38 1412.4 1727.18 1412.4C1724.18 1412.4 1722.48 1412.5 1722.08 1412.7C1721.28 1413.1 1720.58 1414 1719.98 1415.4C1719.38 1416.8 1719.08 1418.4 1719.08 1420.2Z" fill="#FCAC00"/>
<path d="M849.9 1374V1469.7C849.9 1489.5 847.7 1505 843.3 1516.2C839.1 1527.2 831.1 1535.3 819.3 1540.5C807.5 1545.7 790.3 1548.3 767.7 1548.3C751.1 1548.3 737.1 1546.6 725.7 1543.2C714.3 1539.6 705.2 1532.9 698.4 1523.1C691.8 1513.3 688.5 1499.5 688.5 1481.7V1374H742.5V1470.3C742.5 1480.9 743 1489 744 1494.6C745.2 1500 747.8 1504.2 751.8 1507.2C755.8 1510 761.9 1511.4 770.1 1511.4C775.1 1511.4 779.8 1510.9 784.2 1509.9C788.6 1508.9 791.6 1507.4 793.2 1505.4C795 1503 795.9 1494.3 795.9 1479.3V1374H849.9ZM947.379 1373.1C963.579 1373.1 977.279 1374.6 988.479 1377.6C999.679 1380.6 1008.58 1386.4 1015.18 1395C1021.98 1403.4 1025.38 1415.5 1025.38 1431.3C1025.38 1438.3 1024.28 1445.5 1022.08 1452.9C1020.08 1460.1 1017.48 1466.4 1014.28 1471.8C1011.28 1477.2 1008.58 1480.7 1006.18 1482.3C1003.38 1484.3 997.179 1485.9 987.579 1487.1C977.979 1488.1 966.679 1488.6 953.679 1488.6C949.079 1488.6 941.979 1488.4 932.379 1488V1545H878.379V1374C899.379 1373.4 922.379 1373.1 947.379 1373.1ZM969.879 1450.2C971.879 1447.6 972.879 1442.4 972.879 1434.6C972.879 1424.4 970.679 1417.2 966.279 1413C962.079 1408.8 954.679 1406.7 944.079 1406.7C940.479 1406.7 936.579 1407 932.379 1407.6V1453.2C934.379 1453.4 938.279 1453.5 944.079 1453.5C959.479 1453.5 968.079 1452.4 969.879 1450.2ZM1104.49 1374C1127.89 1374 1146.99 1376.2 1161.79 1380.6C1176.79 1385 1188.39 1393.3 1196.59 1405.5C1204.99 1417.7 1209.19 1435.2 1209.19 1458C1209.19 1482.4 1204.79 1501 1195.99 1513.8C1187.19 1526.4 1175.39 1534.8 1160.59 1539C1145.79 1543 1127.09 1545 1104.49 1545H1044.49V1374H1104.49ZM1144.69 1504.2C1147.09 1501.8 1148.79 1495.6 1149.79 1485.6C1150.79 1475.6 1151.29 1466.4 1151.29 1458C1151.29 1447.4 1150.49 1439 1148.89 1432.8C1147.49 1426.4 1144.89 1421.3 1141.09 1417.5C1135.09 1410.9 1124.79 1407.6 1110.19 1407.6C1107.59 1407.6 1103.69 1407.8 1098.49 1408.2V1507.8C1101.89 1508.2 1107.19 1508.4 1114.39 1508.4C1121.79 1508.4 1128.29 1508.1 1133.89 1507.5C1139.69 1506.7 1143.29 1505.6 1144.69 1504.2ZM1327.77 1507.5H1277.97L1268.97 1545H1213.77L1268.97 1374H1339.47L1392.27 1545H1336.77L1327.77 1507.5ZM1302.57 1410.9L1284.87 1474.2H1320.57L1303.77 1410.9H1302.57ZM1483.41 1545H1429.41V1411.5H1381.11V1374H1531.71V1411.5H1483.41V1545ZM1547.48 1374H1671.98V1410H1601.48V1441.2H1660.88V1473.6H1601.48V1508.4H1671.68V1545H1547.48V1374ZM1744.08 1420.2C1744.08 1424.4 1746.18 1427.7 1750.38 1430.1C1754.78 1432.5 1761.58 1435.1 1770.78 1437.9C1781.78 1441.5 1790.78 1445 1797.78 1448.4C1804.98 1451.8 1811.18 1457.1 1816.38 1464.3C1821.78 1471.5 1824.48 1480.9 1824.48 1492.5C1824.48 1529.7 1800.28 1548.3 1751.88 1548.3C1743.88 1548.3 1734.08 1547.6 1722.48 1546.2C1711.08 1544.8 1700.68 1543 1691.28 1540.8C1691.68 1536.6 1692.48 1530.5 1693.68 1522.5C1695.08 1514.3 1696.38 1508.2 1697.58 1504.2C1704.58 1505.2 1715.08 1506.4 1729.08 1507.8C1743.28 1509.2 1753.98 1509.9 1761.18 1509.9C1765.38 1509.9 1767.88 1509.6 1768.68 1509C1769.88 1508.2 1770.78 1506.9 1771.38 1505.1C1772.18 1503.1 1772.58 1501.4 1772.58 1500C1772.58 1496 1770.68 1493 1766.88 1491C1763.08 1488.8 1756.58 1486.2 1747.38 1483.2C1736.38 1479.8 1727.28 1476.3 1720.08 1472.7C1712.88 1469.1 1706.58 1463.5 1701.18 1455.9C1695.78 1448.3 1693.08 1438.3 1693.08 1425.9C1693.08 1417.1 1695.08 1408.5 1699.08 1400.1C1703.08 1391.5 1707.18 1385.7 1711.38 1382.7C1714.58 1380.5 1721.18 1378.4 1731.18 1376.4C1741.18 1374.4 1750.58 1373.4 1759.38 1373.4C1781.78 1373.4 1800.08 1375.5 1814.28 1379.7C1814.08 1383.7 1813.38 1389.2 1812.18 1396.2C1811.18 1403.2 1810.08 1409.6 1808.88 1415.4L1801.98 1415.1C1775.98 1413.3 1759.38 1412.4 1752.18 1412.4C1749.18 1412.4 1747.48 1412.5 1747.08 1412.7C1746.28 1413.1 1745.58 1414 1744.98 1415.4C1744.38 1416.8 1744.08 1418.4 1744.08 1420.2Z" fill="white"/>
</svg>
