<svg width="2363" height="2682" viewBox="0 0 2363 2682" fill="none" xmlns="http://www.w3.org/2000/svg">
<g clip-path="url(#clip0_1594_3)">
<path d="M1078.05 1073.05C1086.68 1083.55 1093.1 1092.65 1097.3 1100.35C1101.5 1108.05 1103.6 1117.15 1103.6 1127.65C1103.6 1154.25 1095.32 1172.33 1078.75 1181.9C1062.42 1191.47 1041.18 1196.25 1015.05 1196.25C1001.98 1196.25 990.667 1195.78 981.1 1194.85H981.45L959.75 1193.8H958.35H955.9C951 1193.8 948.55 1191.47 948.55 1186.8C944.817 1185.87 942.6 1185.28 941.9 1185.05C940.967 1160.55 940.5 1132.78 940.5 1101.75C940.5 1076.08 940.617 1056.95 940.85 1044.35L941.2 986.25V938.65C960.333 933.05 979.467 930.25 998.6 930.25C1015.63 930.25 1031.38 933.283 1045.85 939.35C1060.32 945.183 1071.98 954.283 1080.85 966.65C1089.72 979.017 1094.15 994.533 1094.15 1013.2C1094.15 1030.47 1088.32 1049.25 1076.65 1069.55V1070.25C1076.65 1070.95 1077.12 1071.77 1078.05 1072.7V1073.05ZM1065.45 1063.6C1065.45 1062.67 1065.8 1061.73 1066.5 1060.8C1077.93 1041.67 1083.65 1023.47 1083.65 1006.2C1083.65 980.767 1075.6 962.333 1059.5 950.9C1043.4 939.467 1023.1 933.75 998.6 933.75C981.333 933.75 963.367 936.317 944.7 941.45L944.35 941.8C944.583 952.767 944.7 968.983 944.7 990.45C944.7 1015.42 944.583 1034.08 944.35 1046.45L944 1102.45C944 1131.85 944.467 1158.57 945.4 1182.6C947.267 1183.07 948.433 1183.3 948.9 1183.3H953.1C957.767 1183.3 961.967 1183.42 965.7 1183.65C969.667 1183.88 972.933 1184.12 975.5 1184.35C989.5 1185.28 1000.35 1185.75 1008.05 1185.75C1033.25 1185.75 1053.67 1181.2 1069.3 1172.1C1085.17 1163 1093.1 1145.85 1093.1 1120.65C1093.1 1110.62 1091 1101.98 1086.8 1094.75C1082.83 1087.28 1076.65 1078.42 1068.25 1068.15C1066.38 1066.28 1065.45 1064.77 1065.45 1063.6ZM1009.45 1038.05C1004.08 1038.05 999.067 1037.7 994.4 1037C993 1032.33 992.3 1026.38 992.3 1019.15L992.65 1006.9C992.883 1004.8 993 1001.88 993 998.15V993.6C996.033 991.967 1000.35 991.15 1005.95 991.15C1014.35 991.15 1022.05 992.783 1029.05 996.05C1036.05 999.083 1039.55 1004.45 1039.55 1012.15C1039.55 1017.05 1038.03 1021.83 1035 1026.5C1032.67 1030.93 1029.28 1033.97 1024.85 1035.6C1020.65 1037.23 1015.52 1038.05 1009.45 1038.05ZM1036.05 1012.15C1036.05 1009.35 1035.35 1007.37 1033.95 1006.2C1032.55 1004.8 1030.33 1003.75 1027.3 1003.05H1027.65C1022.98 1002.12 1018.08 1001.65 1012.95 1001.65C1008.75 1001.65 1005.72 1002 1003.85 1002.7V1006.2L1003.5 1018.1C1003.03 1024.63 1002.8 1029.42 1002.8 1032.45L1003.15 1034.55H1009.45C1020.88 1034.55 1028.35 1031.28 1031.85 1024.75C1034.65 1020.32 1036.05 1016.12 1036.05 1012.15ZM995.8 1135L995.1 1134.65C991.833 1130.22 990.2 1123.22 990.2 1113.65C990.2 1102.68 991.483 1093.35 994.05 1085.65L1002.45 1086.35C1009.92 1086.58 1016.1 1087.28 1021 1088.45C1025.9 1089.38 1030.1 1091.83 1033.6 1095.8C1037.1 1099.77 1038.85 1105.72 1038.85 1113.65C1038.85 1119.02 1037.68 1123.22 1035.35 1126.25C1032.32 1129.98 1028.58 1132.43 1024.15 1133.6C1019.72 1134.77 1014.47 1135.35 1008.4 1135.35L995.8 1135ZM1035.35 1113.65C1035.35 1110.62 1034.65 1106.53 1033.25 1101.4V1101.75L1032.9 1101.4C1028.23 1098.6 1021.47 1097.2 1012.6 1097.2C1010.5 1097.2 1007.58 1096.97 1003.85 1096.5C1001.75 1107 1000.7 1115.05 1000.7 1120.65C1000.7 1121.58 1000.58 1123.22 1000.35 1125.55C1000.35 1127.88 1000.93 1129.52 1002.1 1130.45C1003.5 1131.38 1005.72 1131.85 1008.75 1131.85C1014.35 1131.85 1019.02 1131.38 1022.75 1130.45C1026.72 1129.28 1029.98 1127.18 1032.55 1124.15C1034.42 1121.58 1035.35 1118.08 1035.35 1113.65ZM1271.45 956.85C1272.61 981.817 1273.2 1004.33 1273.2 1024.4C1273.2 1064.77 1271.21 1102.8 1267.25 1138.5C1264.91 1156.7 1257.21 1171.52 1244.15 1182.95C1231.08 1194.38 1214.86 1200.1 1195.5 1200.1C1180.8 1200.1 1166.68 1197.3 1153.15 1191.7C1139.61 1186.33 1128.53 1178.52 1119.9 1168.25C1111.26 1157.98 1106.71 1146.08 1106.25 1132.55C1106.25 1115.75 1106.48 1090.55 1106.95 1056.95C1107.65 1031.05 1108 1004.8 1108 978.2C1108 961.633 1107.88 949.733 1107.65 942.5C1113.48 942.5 1117.91 942.383 1120.95 942.15L1135.65 941.8C1146.61 941.8 1156.06 942.967 1164 945.3L1163.65 950.55C1164.35 950.783 1165.51 951.017 1167.15 951.25C1168.78 951.483 1170.06 951.833 1171 952.3C1170.06 969.8 1169.6 990.567 1169.6 1014.6C1169.6 1048.2 1171.11 1085.53 1174.15 1126.6V1125.9C1174.61 1128.47 1175.66 1130.22 1177.3 1131.15C1179.16 1131.85 1181.5 1132.2 1184.3 1132.2C1188.73 1132.2 1192.7 1130.92 1196.2 1128.35C1199.7 1125.78 1202.03 1122.17 1203.2 1117.5V1118.2C1204.36 1091.6 1204.95 1059.52 1204.95 1021.95C1205.41 987.883 1205.88 962.45 1206.35 945.65C1218.95 943.783 1230.96 942.85 1242.4 942.85C1247.3 942.85 1251.38 943.2 1254.65 943.9C1257.91 944.367 1260.71 945.417 1263.05 947.05L1264.45 949.85V951.6C1267.01 952.3 1268.88 953.117 1270.05 954.05L1271.45 956.85ZM1241.7 946.35C1233.06 946.35 1222.45 947.167 1209.85 948.8C1209.61 958.6 1209.38 970.5 1209.15 984.5C1208.91 998.267 1208.8 1008.88 1208.8 1016.35C1208.33 1061.85 1207.63 1095.8 1206.7 1118.2C1205.53 1123.57 1202.73 1127.88 1198.3 1131.15C1194.1 1134.18 1189.43 1135.7 1184.3 1135.7C1179.63 1135.7 1175.31 1134.42 1171.35 1131.85C1167.61 1129.05 1165.05 1125.08 1163.65 1119.95C1160.61 1083.55 1159.1 1046.1 1159.1 1007.6C1159.1 985.433 1159.56 965.6 1160.5 948.1V947.75C1154.2 946.117 1146.38 945.3 1137.05 945.3L1122.35 945.65C1119.78 945.883 1116.05 946 1111.15 946H1110.8L1111.15 946.35L1111.5 979.25C1111.5 1004.92 1111.15 1030.7 1110.45 1056.6C1109.98 1090.2 1109.75 1115.52 1109.75 1132.55C1109.98 1144.92 1113.95 1155.42 1121.65 1164.05C1129.35 1172.68 1139.15 1179.1 1151.05 1183.3C1162.95 1187.5 1175.43 1189.6 1188.5 1189.6C1208.1 1189.6 1223.85 1184.35 1235.75 1173.85C1247.65 1163.35 1254.65 1149.12 1256.75 1131.15C1260.71 1098.25 1262.7 1060.33 1262.7 1017.4C1262.7 997.333 1262.11 974.817 1260.95 949.85C1257.21 947.517 1250.8 946.35 1241.7 946.35ZM1441.51 949.85C1435.67 968.983 1428.79 987.767 1420.86 1006.2C1412.92 1024.4 1401.84 1048.55 1387.61 1078.65C1375.01 1105.02 1364.97 1126.6 1357.51 1143.4C1350.04 1160.2 1343.27 1177.35 1337.21 1194.85C1334.87 1194.38 1332.42 1194.15 1329.86 1194.15L1313.41 1194.5C1304.54 1194.97 1297.89 1195.2 1293.46 1195.2H1288.91C1285.41 1195.2 1282.26 1194.97 1279.46 1194.5L1281.56 1188.2C1280.62 1188.2 1277.59 1187.97 1272.46 1187.5C1281.09 1160.9 1296.84 1119.25 1319.71 1062.55C1317.61 1052.98 1314.69 1043.65 1310.96 1034.55C1307.46 1025.22 1303.02 1014.48 1297.66 1002.35C1291.36 987.183 1286.46 975.283 1282.96 966.65C1279.69 957.783 1276.89 948.333 1274.56 938.3C1280.86 938.3 1286.92 937.95 1292.76 937.25C1294.86 937.017 1297.42 936.783 1300.46 936.55C1303.72 936.317 1307.46 936.2 1311.66 936.2C1322.86 936.2 1328.92 939.117 1329.86 944.95C1331.72 945.417 1333.71 946.117 1335.81 947.05C1339.07 962.683 1345.49 982.517 1355.06 1006.55C1357.16 1001.42 1361.12 989.983 1366.96 972.25C1367.89 969.217 1369.52 964.2 1371.86 957.2C1374.42 949.967 1376.64 944.25 1378.51 940.05C1385.74 938.183 1398.81 937.25 1417.71 937.25C1420.51 937.25 1426.11 937.6 1434.51 938.3V942.85C1434.27 943.783 1434.04 944.367 1433.81 944.6C1437.54 945.067 1440.11 945.3 1441.51 945.3V949.85ZM1431.01 941.45C1427.27 940.983 1422.84 940.75 1417.71 940.75C1401.14 940.75 1388.89 941.567 1380.96 943.2C1377.46 951.133 1373.61 961.867 1369.41 975.4C1366.61 983.8 1363.69 992.083 1360.66 1000.25C1357.86 1008.42 1355.17 1014.72 1352.61 1019.15C1348.17 1009.58 1343.04 996.867 1337.21 981C1331.61 965.133 1327.76 952.3 1325.66 942.5C1321.69 940.633 1316.21 939.7 1309.21 939.7C1305.71 939.7 1302.67 939.817 1300.11 940.05C1297.54 940.283 1295.32 940.517 1293.46 940.75C1288.56 941.45 1283.77 941.8 1279.11 941.8C1281.21 950.667 1284.01 959.767 1287.51 969.1C1291.01 978.2 1295.56 989.167 1301.16 1002C1307.22 1016.23 1311.89 1027.67 1315.16 1036.3C1318.42 1044.93 1321.11 1053.68 1323.21 1062.55V1063.25C1311.54 1092.18 1302.32 1115.52 1295.56 1133.25C1288.79 1150.75 1282.72 1167.78 1277.36 1184.35H1278.06C1278.76 1184.58 1280.16 1184.7 1282.26 1184.7H1286.46C1290.42 1184.7 1296.14 1184.47 1303.61 1184L1319.36 1183.65H1323.91C1326.01 1183.65 1327.41 1183.77 1328.11 1184C1333.94 1166.73 1340.47 1149.93 1347.71 1133.6C1354.94 1117.27 1364.74 1096.03 1377.11 1069.9C1390.17 1043.07 1400.91 1019.97 1409.31 1000.6C1417.71 981.233 1424.94 961.633 1431.01 941.8V941.45Z" fill="white"/>
<path d="M896.7 1299.4C897.167 1307.33 897.4 1314.33 897.4 1320.4C897.4 1331.13 896.467 1343.73 894.6 1358.2C887.133 1357.03 881.767 1356.45 878.5 1356.45C872.2 1356.45 863.567 1356.8 852.6 1357.5H850.85C850.617 1359.6 850.5 1365.78 850.5 1376.05C850.5 1398.22 851.317 1454.22 852.95 1544.05C847.583 1544.98 840.233 1545.45 830.9 1545.45H820.75C807.683 1545.45 797.533 1546.03 790.3 1547.2C789.6 1546.03 789.017 1543.47 788.55 1539.5L783.3 1540.2C782.133 1538.1 781.55 1533.67 781.55 1526.9L781.9 1473.35C781.9 1439.98 780.85 1401.25 778.75 1357.15C776.883 1356.92 773.967 1356.8 770 1356.8C768.6 1356.8 766.033 1356.8 762.3 1356.8C758.8 1356.8 755.533 1356.68 752.5 1356.45C749.7 1356.22 747.017 1355.63 744.45 1354.7C744.217 1354.23 743.983 1353.53 743.75 1352.6C743.75 1351.67 743.283 1350.85 742.35 1350.15C741.417 1349.45 739.783 1348.63 737.45 1347.7C736.75 1346.07 736.05 1341.87 735.35 1335.1C734.883 1328.33 734.65 1320.98 734.65 1313.05C734.65 1300.45 734.767 1291.47 735 1286.1C749.7 1286.1 760.783 1285.98 768.25 1285.75L801.85 1285.4C835.683 1285.4 863.917 1286.68 886.55 1289.25L889.7 1292.4V1295.9L893.55 1296.25L896.7 1299.4ZM738.5 1289.6L738.85 1290.3C738.383 1293.33 738.15 1297.77 738.15 1303.6C738.15 1329.03 738.85 1342.92 740.25 1345.25C741.417 1345.72 745.033 1345.95 751.1 1345.95C759.267 1345.95 765.683 1346.18 770.35 1346.65C775.017 1346.88 778.983 1347.82 782.25 1349.45L782.6 1349.8C784.467 1392.27 785.4 1434.27 785.4 1475.8C785.4 1493.77 785.167 1509.28 784.7 1522.35V1532.85L785.05 1536.35C789.25 1535.65 793.8 1535.3 798.7 1535.3H813.4C827.167 1535.3 836.85 1534.83 842.45 1533.9V1533.2C840.817 1443.6 840 1388.88 840 1369.05V1356.45C840 1351.78 840.233 1348.98 840.7 1348.05L841.05 1347H842.1C854.233 1346.3 863.8 1345.95 870.8 1345.95C876.4 1345.95 881.067 1346.3 884.8 1347C886.2 1336.73 886.9 1325.53 886.9 1313.4C886.9 1308.5 886.667 1301.62 886.2 1292.75C863.1 1290.42 834.983 1289.25 801.85 1289.25L738.5 1289.6ZM1268.18 1544.05C1260.71 1545.92 1252.66 1546.85 1244.03 1546.85L1228.63 1546.5C1221.63 1546.03 1216.38 1545.8 1212.88 1545.8C1211.48 1544.4 1209.61 1542.07 1207.28 1538.8H1205.88C1193.98 1526.2 1181.85 1504.03 1169.48 1472.3C1169.48 1480.93 1169.71 1493.65 1170.18 1510.45C1170.65 1526.32 1170.88 1537.52 1170.88 1544.05C1163.88 1546.15 1154.66 1547.2 1143.23 1547.2C1132.5 1547.2 1122.35 1546.15 1112.78 1544.05C1112.31 1541.02 1111.73 1539.15 1111.03 1538.45C1110.56 1537.98 1109.75 1537.63 1108.58 1537.4C1107.65 1537.4 1106.71 1537.28 1105.78 1537.05C1104.85 1516.75 1104.38 1493.07 1104.38 1466C1104.38 1437.3 1104.73 1408.25 1105.43 1378.85C1105.66 1369.28 1105.9 1355.28 1106.13 1336.85C1106.36 1318.18 1106.48 1301.85 1106.48 1287.85H1114.88L1138.68 1288.2C1143.58 1288.43 1150.81 1288.55 1160.38 1288.55V1295.55H1167.38C1167.61 1304.65 1167.73 1319.82 1167.73 1341.05V1355.4C1170.3 1350.97 1173.68 1344.55 1177.88 1336.15C1179.05 1334.28 1182.2 1328.45 1187.33 1318.65C1192.7 1308.85 1199.11 1298.7 1206.58 1288.2L1213.23 1288.55L1236.33 1288.2C1244.5 1288.2 1252.55 1288.78 1260.48 1289.95L1258.38 1295.9L1267.48 1296.95C1263.75 1309.08 1258.96 1320.87 1253.13 1332.3C1247.53 1343.5 1240.18 1356.92 1231.08 1372.55C1219.88 1391.45 1211.95 1406.27 1207.28 1417L1268.18 1544.05ZM1196.43 1410.35C1200.63 1400.55 1205.76 1390.4 1211.83 1379.9C1217.9 1369.17 1221.51 1362.87 1222.68 1361C1231.55 1345.83 1238.55 1333.23 1243.68 1323.2C1248.81 1312.93 1252.9 1302.78 1255.93 1292.75C1250.33 1292.05 1244.61 1291.7 1238.78 1291.7L1217.43 1292.05C1213.23 1292.05 1210.2 1291.93 1208.33 1291.7C1202.5 1300.33 1194.91 1313.28 1185.58 1330.55C1179.98 1341.05 1175.31 1349.45 1171.58 1355.75C1168.08 1361.82 1164 1367.88 1159.33 1373.95L1157.93 1375.7L1157.58 1376.05C1157.35 1370.45 1157.23 1361.82 1157.23 1350.15V1317.95C1157.23 1306.28 1157.11 1297.65 1156.88 1292.05C1148.25 1292.05 1141.71 1291.93 1137.28 1291.7L1116.63 1291.35C1113.83 1291.35 1111.96 1291.58 1111.03 1292.05C1110.1 1292.52 1109.63 1293.45 1109.63 1294.85C1109.63 1323.55 1109.28 1352.13 1108.58 1380.6C1108.11 1418.4 1107.88 1446.75 1107.88 1465.65C1107.88 1491.08 1108.35 1513.95 1109.28 1534.25C1116.98 1535.88 1125.96 1536.7 1136.23 1536.7C1146.73 1536.7 1154.78 1535.88 1160.38 1534.25C1160.38 1527.48 1160.15 1516.17 1159.68 1500.3C1159.21 1482.57 1158.98 1469.5 1158.98 1461.1C1158.98 1453.4 1159.1 1447.68 1159.33 1443.95C1163.3 1451.18 1168.55 1462.15 1175.08 1476.85C1181.38 1490.62 1186.98 1502.17 1191.88 1511.5C1196.78 1520.83 1202.03 1528.77 1207.63 1535.3L1215.68 1535.65C1224.55 1536.12 1231.43 1536.35 1236.33 1536.35C1244.03 1536.35 1250.68 1535.77 1256.28 1534.6L1196.43 1410.35ZM1427.42 1495.75C1427.89 1502.75 1428.12 1508.12 1428.12 1511.85C1428.12 1523.05 1426.72 1534.25 1423.92 1545.45C1413.66 1545.45 1398.26 1545.68 1377.72 1546.15L1332.22 1546.5C1311.46 1546.5 1292.09 1545.8 1274.12 1544.4V1537.75L1267.12 1537.4C1267.12 1525.27 1267.01 1511.15 1266.77 1495.05C1266.54 1478.95 1266.31 1466.7 1266.07 1458.3C1265.37 1433.1 1265.02 1407.78 1265.02 1382.35C1265.02 1352.95 1265.96 1322.62 1267.82 1291.35C1286.02 1290.42 1307.02 1289.72 1330.82 1289.25C1354.86 1288.55 1374.69 1288.2 1390.32 1288.2C1408.76 1288.2 1418.44 1289.6 1419.37 1292.4C1419.37 1294.03 1419.72 1295.32 1420.42 1296.25C1421.36 1296.95 1422.52 1297.53 1423.92 1298C1425.32 1298.47 1426.14 1298.93 1426.37 1299.4V1299.05C1427.31 1304.42 1427.77 1310.6 1427.77 1317.6C1427.77 1321.33 1427.54 1326.93 1427.07 1334.4C1426.61 1342.33 1426.37 1348.4 1426.37 1352.6C1414.47 1355.4 1399.42 1356.8 1381.22 1356.8H1368.62L1354.97 1356.45C1347.74 1356.45 1340.51 1356.8 1333.27 1357.5C1333.27 1361 1333.04 1365.55 1332.57 1371.15L1332.22 1382.7V1385.85L1338.52 1386.2L1352.17 1385.85C1353.34 1385.85 1359.17 1386.2 1369.67 1386.9C1369.91 1387.6 1370.14 1388.77 1370.37 1390.4C1370.61 1391.8 1371.07 1392.73 1371.77 1393.2C1372.71 1393.67 1374.34 1393.9 1376.67 1393.9C1377.84 1399.97 1378.42 1407.08 1378.42 1415.25C1378.42 1422.48 1378.31 1427.97 1378.07 1431.7L1377.72 1448.5C1370.72 1450.37 1361.74 1451.3 1350.77 1451.3C1342.14 1451.3 1336.89 1451.53 1335.02 1452C1334.32 1455.5 1333.97 1460.87 1333.97 1468.1C1333.97 1475.1 1334.09 1480.12 1334.32 1483.15C1362.32 1484.55 1384.49 1485.25 1400.82 1485.25C1406.42 1485.25 1412.96 1485.02 1420.42 1484.55V1488.75L1420.77 1491.9C1423.57 1491.9 1425.79 1491.78 1427.42 1491.55V1495.75ZM1416.92 1488.4C1413.42 1488.63 1408.41 1488.75 1401.87 1488.75C1396.04 1488.75 1389.27 1488.63 1381.57 1488.4C1373.87 1488.17 1367.92 1487.93 1363.72 1487.7C1351.12 1487 1338.29 1486.65 1325.22 1486.65L1324.87 1486.3C1323.94 1480.47 1323.47 1472.07 1323.47 1461.1C1323.47 1453.63 1323.94 1447.45 1324.87 1442.55C1325.81 1441.85 1327.91 1441.38 1331.17 1441.15C1334.44 1440.92 1338.06 1440.8 1342.02 1440.8C1354.16 1440.8 1362.56 1440.1 1367.22 1438.7L1367.57 1408.25C1367.57 1400.08 1367.22 1394.02 1366.52 1390.05V1389.7C1360.22 1389.7 1355.44 1389.58 1352.17 1389.35C1339.34 1389.35 1329.77 1389.12 1323.47 1388.65L1323.12 1388.3C1322.19 1384.8 1321.72 1380.37 1321.72 1375C1321.72 1371.73 1321.96 1367.07 1322.42 1361L1322.77 1347.35L1324.17 1347C1328.37 1346.53 1332.92 1346.3 1337.82 1346.3C1342.72 1346.3 1345.99 1346.3 1347.62 1346.3H1375.27C1392.31 1346.3 1405.84 1345.13 1415.87 1342.8V1342.45L1416.22 1326C1416.69 1318.53 1416.92 1312.93 1416.92 1309.2C1416.92 1303.83 1416.57 1298.35 1415.87 1292.75C1415.87 1292.05 1407.36 1291.7 1390.32 1291.7C1353.92 1291.7 1314.14 1292.75 1270.97 1294.85C1269.57 1317.48 1268.87 1345.48 1268.87 1378.85C1268.87 1396.12 1269.11 1421.78 1269.57 1455.85C1270.27 1481.75 1270.62 1507.88 1270.62 1534.25C1284.39 1535.42 1301.31 1536 1321.37 1536C1331.41 1536 1346.92 1535.77 1367.92 1535.3L1414.12 1534.95C1416.46 1525.85 1417.62 1515.93 1417.62 1505.2C1417.62 1501.47 1417.39 1496.1 1416.92 1489.1V1488.4ZM1541.33 1539.5H1537.48L1522.08 1505.9C1517.18 1495.87 1512.4 1485.83 1507.73 1475.8C1503.3 1465.53 1499.68 1456.55 1496.88 1448.85V1487.35C1496.88 1515.82 1497.11 1535.3 1497.58 1545.8C1492.68 1547.43 1486.38 1548.25 1478.68 1548.25C1474.48 1548.25 1470.75 1548.13 1467.48 1547.9C1464.45 1547.67 1461.88 1547.43 1459.78 1547.2C1453.95 1546.5 1447.88 1546.15 1441.58 1546.15V1539.15H1434.58V1511.15C1434.58 1496.45 1434.35 1475.1 1433.88 1447.1L1433.53 1384.8C1433.53 1348.17 1434.7 1315.97 1437.03 1288.2C1442.63 1286.8 1448.93 1286.1 1455.93 1286.1C1460.83 1286.1 1467.36 1286.8 1475.53 1288.2C1483.7 1289.37 1488.01 1290.88 1488.48 1292.75C1489.18 1295.32 1490.46 1297.07 1492.33 1298C1494.2 1298.7 1495.25 1299.28 1495.48 1299.75C1499.45 1309.55 1504 1320.05 1509.13 1331.25C1514.26 1342.45 1521.73 1358.32 1531.53 1378.85V1371.5C1531.53 1365.2 1531.3 1356.68 1530.83 1345.95L1530.48 1320.75C1530.25 1317.72 1530.36 1312.93 1530.83 1306.4L1531.18 1294.15V1286.45C1539.35 1284.82 1548.91 1284 1559.88 1284C1568.28 1284 1577.15 1284.93 1586.48 1286.8V1292.75L1593.48 1293.8V1409.3L1593.83 1469.15L1593.48 1489.1V1522L1593.83 1536L1593.48 1545.8C1592.78 1546.03 1591.15 1546.5 1588.58 1547.2C1586.01 1547.9 1582.75 1548.25 1578.78 1548.25C1573.18 1548.25 1567.23 1547.9 1560.93 1547.2C1553.46 1546.73 1547.98 1546.5 1544.48 1546.5L1541.33 1539.5ZM1583.33 1529L1582.98 1501L1583.33 1462.15V1432.05C1583.33 1418.75 1583.21 1408.83 1582.98 1402.3V1289.6C1576.45 1288.2 1568.75 1287.5 1559.88 1287.5C1551.25 1287.5 1542.85 1288.2 1534.68 1289.6C1534.21 1305 1533.98 1315.38 1533.98 1320.75L1534.33 1344.9C1534.8 1356.1 1535.03 1364.97 1535.03 1371.5C1535.03 1375.7 1534.8 1379.9 1534.33 1384.1C1533.86 1388.07 1533.28 1390.28 1532.58 1390.75C1532.11 1390.75 1528.03 1383.05 1520.33 1367.65C1512.63 1352.02 1506.91 1340.23 1503.18 1332.3C1501.31 1327.87 1499.45 1323.78 1497.58 1320.05C1495.71 1316.32 1494.31 1313.52 1493.38 1311.65L1489.53 1303.6L1484.98 1293.1C1484.98 1292.17 1481.25 1291.35 1473.78 1290.65C1466.31 1289.95 1460.36 1289.6 1455.93 1289.6C1449.4 1289.6 1444.15 1290.07 1440.18 1291C1438.08 1316.43 1437.03 1347.7 1437.03 1384.8L1437.38 1447.45C1437.85 1474.98 1438.08 1496.22 1438.08 1511.15V1535.65C1443.45 1535.65 1448.93 1536 1454.53 1536.7C1456.4 1536.93 1458.73 1537.17 1461.53 1537.4C1464.33 1537.63 1467.71 1537.75 1471.68 1537.75C1477.51 1537.75 1482.65 1537.17 1487.08 1536C1486.85 1533.43 1486.73 1529 1486.73 1522.7V1506.95C1486.73 1485.95 1486.96 1465.88 1487.43 1446.75C1487.9 1427.62 1488.48 1418.05 1489.18 1418.05C1489.88 1418.05 1491.4 1421.55 1493.73 1428.55L1497.23 1439.05C1501.66 1451.42 1510.76 1472.65 1524.53 1502.75L1539.58 1536C1544.71 1536 1550.08 1536.35 1555.68 1537.05C1563.15 1537.52 1568.51 1537.75 1571.78 1537.75C1575.98 1537.75 1579.83 1537.17 1583.33 1536V1529ZM1767.1 1380.6C1756.83 1382.23 1747.26 1383.05 1738.4 1383.05C1727.43 1383.05 1717.86 1381.88 1709.7 1379.55C1709.93 1378.85 1710.05 1377.1 1710.05 1374.3C1706.78 1373.83 1704.33 1373.25 1702.7 1372.55C1702.93 1371.85 1703.05 1370.33 1703.05 1368C1703.05 1363.1 1701.88 1359.83 1699.55 1358.2C1697.21 1356.57 1693.95 1355.75 1689.75 1355.75C1685.08 1355.75 1681.11 1357.15 1677.85 1359.95C1674.58 1362.75 1672.95 1366.83 1672.95 1372.2C1672.95 1375.93 1673.76 1378.38 1675.4 1379.55C1677.03 1380.48 1679.01 1381.07 1681.35 1381.3C1683.68 1381.53 1685.31 1381.77 1686.25 1382C1700.71 1384.1 1714.36 1389.7 1727.2 1398.8C1740.26 1407.67 1750.65 1418.52 1758.35 1431.35C1766.28 1443.95 1770.25 1456.78 1770.25 1469.85C1770.25 1485.48 1766.75 1499.25 1759.75 1511.15C1752.75 1523.05 1743.41 1532.15 1731.75 1538.45C1720.31 1544.98 1707.83 1548.25 1694.3 1548.25C1678.9 1548.25 1663.73 1544.75 1648.8 1537.75C1633.86 1530.98 1621.61 1521.65 1612.05 1509.75C1602.71 1497.62 1598.05 1484.43 1598.05 1470.2L1598.4 1465.65V1460.75C1604.7 1459.82 1611.46 1459.35 1618.7 1459.35L1639 1459.7C1643.66 1459.93 1650.31 1460.05 1658.95 1460.05C1658.95 1462.62 1659.3 1464.95 1660 1467.05H1665.95C1665.95 1472.88 1667.23 1476.97 1669.8 1479.3C1672.36 1481.4 1676.21 1482.45 1681.35 1482.45C1686.48 1482.45 1690.8 1481.05 1694.3 1478.25C1697.8 1475.45 1699.55 1471.48 1699.55 1466.35C1699.55 1459.12 1696.86 1454.1 1691.5 1451.3C1686.13 1448.5 1680.65 1446.63 1675.05 1445.7C1669.45 1444.53 1665.83 1443.83 1664.2 1443.6L1658.95 1442.55C1651.95 1441.15 1646.11 1438.93 1641.45 1435.9C1636.78 1432.63 1631.76 1428.32 1626.4 1422.95C1610.06 1407.32 1601.9 1388.77 1601.9 1367.3C1601.9 1352.83 1605.51 1339.53 1612.75 1327.4C1619.98 1315.27 1629.78 1305.7 1642.15 1298.7C1654.75 1291.47 1668.63 1287.85 1683.8 1287.85C1699.43 1287.85 1713.9 1290.77 1727.2 1296.6C1740.73 1302.43 1751.58 1310.83 1759.75 1321.8C1767.91 1332.77 1772 1345.72 1772 1360.65C1772 1366.48 1771.3 1373.13 1769.9 1380.6H1767.1ZM1759.75 1370.1C1760.91 1363.57 1761.5 1358.08 1761.5 1353.65C1761.5 1332.88 1754.03 1317.37 1739.1 1307.1C1724.4 1296.6 1705.96 1291.35 1683.8 1291.35C1669.1 1291.35 1655.8 1294.73 1643.9 1301.5C1632 1308.27 1622.55 1317.48 1615.55 1329.15C1608.78 1340.82 1605.4 1353.53 1605.4 1367.3C1605.4 1375.47 1607.15 1384.33 1610.65 1393.9C1614.15 1403.23 1619.51 1411.52 1626.75 1418.75C1633.98 1425.98 1642.61 1430.42 1652.65 1432.05C1654.75 1432.52 1660.81 1433.8 1670.85 1435.9C1680.88 1437.77 1688.7 1441.27 1694.3 1446.4C1700.13 1451.53 1703.05 1458.18 1703.05 1466.35C1703.05 1472.88 1700.95 1477.78 1696.75 1481.05C1692.55 1484.32 1687.41 1485.95 1681.35 1485.95C1674.58 1485.95 1668.63 1484.08 1663.5 1480.35C1658.6 1476.38 1655.91 1470.78 1655.45 1463.55C1648.21 1463.55 1642.73 1463.43 1639 1463.2L1620.1 1462.85C1613.56 1462.85 1607.5 1463.2 1601.9 1463.9V1469.85C1601.9 1483.62 1606.1 1495.63 1614.5 1505.9C1622.9 1516.17 1633.63 1524.1 1646.7 1529.7C1660 1535.07 1673.65 1537.75 1687.65 1537.75C1700.48 1537.75 1712.38 1534.95 1723.35 1529.35C1734.31 1523.52 1743.06 1515 1749.6 1503.8C1756.36 1492.37 1759.75 1478.83 1759.75 1463.2C1759.75 1450.37 1756.36 1438.35 1749.6 1427.15C1742.83 1415.72 1733.73 1406.27 1722.3 1398.8C1711.1 1391.33 1698.96 1386.9 1685.9 1385.5C1670.26 1383.87 1662.45 1376.98 1662.45 1364.85C1662.45 1358.55 1664.43 1353.77 1668.4 1350.5C1672.36 1347 1677.15 1345.25 1682.75 1345.25C1689.28 1345.25 1695 1347.12 1699.9 1350.85C1704.8 1354.58 1707.25 1359.48 1707.25 1365.55C1707.25 1367.65 1707.13 1369.05 1706.9 1369.75C1714.6 1371.85 1722.65 1372.9 1731.05 1372.9C1738.28 1372.9 1747.73 1371.97 1759.4 1370.1H1759.75Z" fill="white"/>
<g clip-path="url(#clip1_1594_3)">
<path d="M991 1299C1018.61 1299 1043.61 1313.44 1061.71 1336.79C1079.8 1360.13 1091 1392.38 1091 1428C1091 1463.62 1079.8 1495.87 1061.71 1519.21C1043.61 1542.56 1018.61 1557 991 1557C963.391 1557 938.387 1542.56 920.293 1519.21C902.195 1495.87 891 1463.62 891 1428C891 1392.38 902.195 1360.13 920.293 1336.79C938.387 1313.44 963.391 1299 991 1299ZM1003.86 1407.51C1003.61 1403.82 1002.46 1400.99 1000.43 1398.92C999.012 1397.49 997.172 1396.56 994.91 1396.12V1417.5L999.023 1418.7C1002.93 1419.81 1006.41 1421.26 1009.43 1423.1C1012.43 1424.93 1014.96 1427.13 1017.02 1429.66C1019.07 1432.18 1020.64 1435.11 1021.69 1438.4C1022.75 1441.71 1023.29 1445.42 1023.33 1449.5C1023.29 1455.98 1022.02 1461.51 1019.53 1466.16C1017.02 1470.79 1013.41 1474.35 1008.72 1476.82C1004.8 1478.88 1000.2 1480.07 994.91 1480.41V1492H988.543V1480.4C983.234 1480.05 978.523 1478.81 974.406 1476.65C969.457 1474.09 965.621 1470.2 962.891 1464.97C960.145 1459.73 958.742 1453.11 958.668 1445.11H977.047C977.191 1448.39 977.883 1451.16 979.082 1453.35C980.301 1455.55 981.977 1457.22 984.105 1458.35C985.457 1459.07 986.934 1459.56 988.543 1459.83V1437.26L982.848 1435.55C975.973 1433.52 970.57 1430.23 966.602 1425.68C962.652 1421.12 960.691 1414.97 960.707 1407.2C960.691 1400.87 962.016 1395.31 964.676 1390.54C967.332 1385.78 971.004 1382.07 975.719 1379.39C979.563 1377.23 983.832 1375.94 988.543 1375.54V1364H994.91V1375.52C999.77 1375.9 1004.08 1377.2 1007.83 1379.42C1012.38 1382.11 1015.89 1385.87 1018.4 1390.71C1020.91 1395.54 1022.18 1401.13 1022.24 1407.51H1003.86ZM988.543 1396.12C987.434 1396.33 986.438 1396.65 985.559 1397.09C983.902 1397.93 982.668 1399.09 981.848 1400.52C981.012 1401.97 980.594 1403.64 980.555 1405.49C980.52 1407.04 980.758 1408.38 981.285 1409.55C981.813 1410.73 982.594 1411.73 983.613 1412.63C984.633 1413.52 985.871 1414.29 987.305 1414.95C987.707 1415.13 988.117 1415.31 988.543 1415.48V1396.12ZM994.91 1459.77C996.094 1459.54 997.172 1459.18 998.148 1458.7C999.969 1457.81 1001.37 1456.56 1002.35 1454.97C1003.34 1453.35 1003.84 1451.52 1003.86 1449.45C1003.84 1447.53 1003.37 1445.86 1002.46 1444.47C1001.55 1443.09 1000.17 1441.89 998.297 1440.88C997.309 1440.34 996.18 1439.83 994.91 1439.33V1459.77ZM1052.36 1348.84C1036.66 1328.59 1014.96 1316.06 991 1316.06C967.035 1316.06 945.34 1328.59 929.637 1348.84C913.938 1369.1 904.223 1397.09 904.223 1428C904.223 1458.91 913.938 1486.9 929.637 1507.15C945.34 1527.41 967.035 1539.94 991 1539.94C1014.96 1539.94 1036.66 1527.41 1052.36 1507.15C1068.06 1486.9 1077.77 1458.91 1077.77 1428C1077.77 1397.09 1068.06 1369.1 1052.36 1348.84Z" fill="#E75A48"/>
</g>
</g>
<defs>
<clipPath id="clip0_1594_3">
<rect width="2363" height="2682" fill="white"/>
</clipPath>
<clipPath id="clip1_1594_3">
<rect width="200" height="258" fill="white" transform="translate(891 1299)"/>
</clipPath>
</defs>
</svg>
