<svg width="2363" height="2682" viewBox="0 0 2363 2682" fill="none" xmlns="http://www.w3.org/2000/svg">
<g clip-path="url(#clip0_1594_16)">
<path d="M1181.15 1311.45C1240.38 1212.43 1354.39 987.097 1336.64 878" stroke="white" stroke-width="6"/>
<mask id="path-2-outside-1_1594_16" maskUnits="userSpaceOnUse" x="825" y="1008" width="539" height="158" fill="black">
<rect fill="white" x="825" y="1008" width="539" height="158"/>
<path d="M831.25 1014.5H935V1044.5H876.25V1070.5H925.75V1097.5H876.25V1126.5H934.75V1157H831.25V1014.5ZM1036.58 1125.75H995.082L987.582 1157H941.582L987.582 1014.5H1046.33L1090.33 1157H1044.08L1036.58 1125.75ZM1015.58 1045.25L1000.83 1098H1030.58L1016.58 1045.25H1015.58ZM1143.76 1053C1143.76 1056.5 1145.51 1059.25 1149.01 1061.25C1152.68 1063.25 1158.35 1065.42 1166.01 1067.75C1175.18 1070.75 1182.68 1073.67 1188.51 1076.5C1194.51 1079.33 1199.68 1083.75 1204.01 1089.75C1208.51 1095.75 1210.76 1103.58 1210.76 1113.25C1210.76 1144.25 1190.6 1159.75 1150.26 1159.75C1143.6 1159.75 1135.43 1159.17 1125.76 1158C1116.26 1156.83 1107.6 1155.33 1099.76 1153.5C1100.1 1150 1100.76 1144.92 1101.76 1138.25C1102.93 1131.42 1104.01 1126.33 1105.01 1123C1110.85 1123.83 1119.6 1124.83 1131.26 1126C1143.1 1127.17 1152.01 1127.75 1158.01 1127.75C1161.51 1127.75 1163.6 1127.5 1164.26 1127C1165.26 1126.33 1166.01 1125.25 1166.51 1123.75C1167.18 1122.08 1167.51 1120.67 1167.51 1119.5C1167.51 1116.17 1165.93 1113.67 1162.76 1112C1159.6 1110.17 1154.18 1108 1146.51 1105.5C1137.35 1102.67 1129.76 1099.75 1123.76 1096.75C1117.76 1093.75 1112.51 1089.08 1108.01 1082.75C1103.51 1076.42 1101.26 1068.08 1101.26 1057.75C1101.26 1050.42 1102.93 1043.25 1106.26 1036.25C1109.6 1029.08 1113.01 1024.25 1116.51 1021.75C1119.18 1019.92 1124.68 1018.17 1133.01 1016.5C1141.35 1014.83 1149.18 1014 1156.51 1014C1175.18 1014 1190.43 1015.75 1202.26 1019.25C1202.1 1022.58 1201.51 1027.17 1200.51 1033C1199.68 1038.83 1198.76 1044.17 1197.76 1049L1192.01 1048.75C1170.35 1047.25 1156.51 1046.5 1150.51 1046.5C1148.01 1046.5 1146.6 1046.58 1146.26 1046.75C1145.6 1047.08 1145.01 1047.83 1144.51 1049C1144.01 1050.17 1143.76 1051.5 1143.76 1053ZM1306.76 1111.5V1157H1261.76V1112L1213.76 1014.5H1259.51L1278.51 1060.75C1280.51 1065.42 1282.34 1070.33 1284.01 1075.5H1284.51C1286.34 1069.83 1288.17 1064.75 1290.01 1060.25L1308.76 1014.5H1354.26L1306.76 1111.5Z"/>
</mask>
<path d="M831.25 1014.5H935V1044.5H876.25V1070.5H925.75V1097.5H876.25V1126.5H934.75V1157H831.25V1014.5ZM1036.58 1125.75H995.082L987.582 1157H941.582L987.582 1014.5H1046.33L1090.33 1157H1044.08L1036.58 1125.75ZM1015.58 1045.25L1000.83 1098H1030.58L1016.58 1045.25H1015.58ZM1143.76 1053C1143.76 1056.5 1145.51 1059.25 1149.01 1061.25C1152.68 1063.25 1158.35 1065.42 1166.01 1067.75C1175.18 1070.75 1182.68 1073.67 1188.51 1076.5C1194.51 1079.33 1199.68 1083.75 1204.01 1089.75C1208.51 1095.75 1210.76 1103.58 1210.76 1113.25C1210.76 1144.25 1190.6 1159.75 1150.26 1159.75C1143.6 1159.75 1135.43 1159.17 1125.76 1158C1116.26 1156.83 1107.6 1155.33 1099.76 1153.5C1100.1 1150 1100.76 1144.92 1101.76 1138.25C1102.93 1131.42 1104.01 1126.33 1105.01 1123C1110.85 1123.83 1119.6 1124.83 1131.26 1126C1143.1 1127.17 1152.01 1127.75 1158.01 1127.75C1161.51 1127.75 1163.6 1127.5 1164.26 1127C1165.26 1126.33 1166.01 1125.25 1166.51 1123.75C1167.18 1122.08 1167.51 1120.67 1167.51 1119.5C1167.51 1116.17 1165.93 1113.67 1162.76 1112C1159.6 1110.17 1154.18 1108 1146.51 1105.5C1137.35 1102.67 1129.76 1099.75 1123.76 1096.75C1117.76 1093.75 1112.51 1089.08 1108.01 1082.75C1103.51 1076.42 1101.26 1068.08 1101.26 1057.75C1101.26 1050.42 1102.93 1043.25 1106.26 1036.25C1109.6 1029.08 1113.01 1024.25 1116.51 1021.75C1119.18 1019.92 1124.68 1018.17 1133.01 1016.5C1141.35 1014.83 1149.18 1014 1156.51 1014C1175.18 1014 1190.43 1015.75 1202.26 1019.25C1202.1 1022.58 1201.51 1027.17 1200.51 1033C1199.68 1038.83 1198.76 1044.17 1197.76 1049L1192.01 1048.75C1170.35 1047.25 1156.51 1046.5 1150.51 1046.5C1148.01 1046.5 1146.6 1046.58 1146.26 1046.75C1145.6 1047.08 1145.01 1047.83 1144.51 1049C1144.01 1050.17 1143.76 1051.5 1143.76 1053ZM1306.76 1111.5V1157H1261.76V1112L1213.76 1014.5H1259.51L1278.51 1060.75C1280.51 1065.42 1282.34 1070.33 1284.01 1075.5H1284.51C1286.34 1069.83 1288.17 1064.75 1290.01 1060.25L1308.76 1014.5H1354.26L1306.76 1111.5Z" fill="white"/>
<path d="M831.25 1014.5V1008.5H825.25V1014.5H831.25ZM935 1014.5H941V1008.5H935V1014.5ZM935 1044.5V1050.5H941V1044.5H935ZM876.25 1044.5V1038.5H870.25V1044.5H876.25ZM876.25 1070.5H870.25V1076.5H876.25V1070.5ZM925.75 1070.5H931.75V1064.5H925.75V1070.5ZM925.75 1097.5V1103.5H931.75V1097.5H925.75ZM876.25 1097.5V1091.5H870.25V1097.5H876.25ZM876.25 1126.5H870.25V1132.5H876.25V1126.5ZM934.75 1126.5H940.75V1120.5H934.75V1126.5ZM934.75 1157V1163H940.75V1157H934.75ZM831.25 1157H825.25V1163H831.25V1157ZM831.25 1020.5H935V1008.5H831.25V1020.5ZM929 1014.5V1044.5H941V1014.5H929ZM935 1038.5H876.25V1050.5H935V1038.5ZM870.25 1044.5V1070.5H882.25V1044.5H870.25ZM876.25 1076.5H925.75V1064.5H876.25V1076.5ZM919.75 1070.5V1097.5H931.75V1070.5H919.75ZM925.75 1091.5H876.25V1103.5H925.75V1091.5ZM870.25 1097.5V1126.5H882.25V1097.5H870.25ZM876.25 1132.5H934.75V1120.5H876.25V1132.5ZM928.75 1126.5V1157H940.75V1126.5H928.75ZM934.75 1151H831.25V1163H934.75V1151ZM837.25 1157V1014.5H825.25V1157H837.25ZM1036.58 1125.75L1042.42 1124.35L1041.31 1119.75H1036.58V1125.75ZM995.082 1125.75V1119.75H990.352L989.248 1124.35L995.082 1125.75ZM987.582 1157V1163H992.312L993.416 1158.4L987.582 1157ZM941.582 1157L935.872 1155.16L933.34 1163H941.582V1157ZM987.582 1014.5V1008.5H983.214L981.872 1012.66L987.582 1014.5ZM1046.33 1014.5L1052.06 1012.73L1050.76 1008.5H1046.33V1014.5ZM1090.33 1157V1163H1098.46L1096.06 1155.23L1090.33 1157ZM1044.08 1157L1038.25 1158.4L1039.35 1163H1044.08V1157ZM1015.58 1045.25V1039.25H1011.03L1009.8 1043.63L1015.58 1045.25ZM1000.83 1098L995.054 1096.38L992.924 1104H1000.83V1098ZM1030.58 1098V1104H1038.38L1036.38 1096.46L1030.58 1098ZM1016.58 1045.25L1022.38 1043.71L1021.2 1039.25H1016.58V1045.25ZM1036.58 1119.75H995.082V1131.75H1036.58V1119.75ZM989.248 1124.35L981.748 1155.6L993.416 1158.4L1000.92 1127.15L989.248 1124.35ZM987.582 1151H941.582V1163H987.582V1151ZM947.292 1158.84L993.292 1016.34L981.872 1012.66L935.872 1155.16L947.292 1158.84ZM987.582 1020.5H1046.33V1008.5H987.582V1020.5ZM1040.6 1016.27L1084.6 1158.77L1096.06 1155.23L1052.06 1012.73L1040.6 1016.27ZM1090.33 1151H1044.08V1163H1090.33V1151ZM1049.92 1155.6L1042.42 1124.35L1030.75 1127.15L1038.25 1158.4L1049.92 1155.6ZM1009.8 1043.63L995.054 1096.38L1006.61 1099.62L1021.36 1046.87L1009.8 1043.63ZM1000.83 1104H1030.58V1092H1000.83V1104ZM1036.38 1096.46L1022.38 1043.71L1010.78 1046.79L1024.78 1099.54L1036.38 1096.46ZM1016.58 1039.25H1015.58V1051.25H1016.58V1039.25ZM1149.01 1061.25L1146.04 1066.46L1146.09 1066.49L1146.14 1066.52L1149.01 1061.25ZM1166.01 1067.75L1167.88 1062.05L1167.82 1062.03L1167.76 1062.01L1166.01 1067.75ZM1188.51 1076.5L1185.89 1081.9L1185.92 1081.91L1185.95 1081.93L1188.51 1076.5ZM1204.01 1089.75L1199.15 1093.26L1199.18 1093.31L1199.21 1093.35L1204.01 1089.75ZM1125.76 1158L1125.03 1163.96L1125.04 1163.96L1125.76 1158ZM1099.76 1153.5L1093.79 1152.93L1093.29 1158.15L1098.4 1159.34L1099.76 1153.5ZM1101.76 1138.25L1095.85 1137.24L1095.84 1137.3L1095.83 1137.36L1101.76 1138.25ZM1105.01 1123L1105.86 1117.06L1100.75 1116.33L1099.27 1121.28L1105.01 1123ZM1131.26 1126L1130.67 1131.97L1130.67 1131.97L1131.26 1126ZM1164.26 1127L1160.94 1122.01L1160.8 1122.1L1160.66 1122.2L1164.26 1127ZM1166.51 1123.75L1160.94 1121.52L1160.88 1121.69L1160.82 1121.85L1166.51 1123.75ZM1162.76 1112L1159.76 1117.19L1159.86 1117.25L1159.97 1117.31L1162.76 1112ZM1146.51 1105.5L1148.37 1099.8L1148.33 1099.78L1148.29 1099.77L1146.51 1105.5ZM1123.76 1096.75L1126.45 1091.38L1126.45 1091.38L1123.76 1096.75ZM1108.01 1082.75L1112.9 1079.27L1112.9 1079.27L1108.01 1082.75ZM1106.26 1036.25L1111.68 1038.83L1111.69 1038.81L1111.7 1038.78L1106.26 1036.25ZM1116.51 1021.75L1113.11 1016.81L1113.07 1016.84L1113.03 1016.87L1116.51 1021.75ZM1133.01 1016.5L1131.84 1010.62L1131.84 1010.62L1133.01 1016.5ZM1202.26 1019.25L1208.26 1019.55L1208.49 1014.84L1203.97 1013.5L1202.26 1019.25ZM1200.51 1033L1194.6 1031.99L1194.59 1032.07L1194.57 1032.15L1200.51 1033ZM1197.76 1049L1197.5 1054.99L1202.6 1055.22L1203.64 1050.22L1197.76 1049ZM1192.01 1048.75L1191.6 1054.74L1191.68 1054.74L1191.75 1054.74L1192.01 1048.75ZM1146.26 1046.75L1148.95 1052.12L1148.95 1052.12L1146.26 1046.75ZM1144.51 1049L1139 1046.64L1139 1046.64L1144.51 1049ZM1137.76 1053C1137.76 1059.02 1141.01 1063.59 1146.04 1066.46L1151.99 1056.04C1150.02 1054.91 1149.76 1053.98 1149.76 1053H1137.76ZM1146.14 1066.52C1150.36 1068.82 1156.5 1071.13 1164.27 1073.49L1167.76 1062.01C1160.2 1059.71 1155 1057.68 1151.89 1055.98L1146.14 1066.52ZM1164.15 1073.45C1173.17 1076.4 1180.39 1079.22 1185.89 1081.9L1191.14 1071.1C1184.97 1068.11 1177.19 1065.1 1167.88 1062.05L1164.15 1073.45ZM1185.95 1081.93C1190.93 1084.28 1195.34 1087.99 1199.15 1093.26L1208.88 1086.24C1204.02 1079.51 1198.09 1074.39 1191.08 1071.07L1185.95 1081.93ZM1199.21 1093.35C1202.74 1098.05 1204.76 1104.5 1204.76 1113.25H1216.76C1216.76 1102.66 1214.29 1093.45 1208.81 1086.15L1199.21 1093.35ZM1204.76 1113.25C1204.76 1127.34 1200.26 1137 1191.98 1143.37C1183.4 1149.96 1169.83 1153.75 1150.26 1153.75V1165.75C1171.03 1165.75 1187.71 1161.79 1199.3 1152.88C1211.18 1143.75 1216.76 1130.16 1216.76 1113.25H1204.76ZM1150.26 1153.75C1143.92 1153.75 1136.01 1153.19 1126.48 1152.04L1125.04 1163.96C1134.85 1165.14 1143.27 1165.75 1150.26 1165.75V1153.75ZM1126.5 1152.04C1117.17 1150.9 1108.72 1149.43 1101.13 1147.66L1098.4 1159.34C1106.47 1161.23 1115.36 1162.77 1125.03 1163.96L1126.5 1152.04ZM1105.74 1154.07C1106.05 1150.73 1106.7 1145.78 1107.7 1139.14L1095.83 1137.36C1094.83 1144.06 1094.14 1149.27 1093.79 1152.93L1105.74 1154.07ZM1107.68 1139.26C1108.84 1132.48 1109.87 1127.69 1110.76 1124.72L1099.27 1121.28C1098.16 1124.97 1097.03 1130.35 1095.85 1137.24L1107.68 1139.26ZM1104.17 1128.94C1110.13 1129.79 1118.98 1130.8 1130.67 1131.97L1131.86 1120.03C1120.21 1118.87 1111.57 1117.88 1105.86 1117.06L1104.17 1128.94ZM1130.67 1131.97C1142.55 1133.14 1151.71 1133.75 1158.01 1133.75V1121.75C1152.32 1121.75 1143.64 1121.19 1131.85 1120.03L1130.67 1131.97ZM1158.01 1133.75C1159.87 1133.75 1161.53 1133.69 1162.92 1133.52C1163.61 1133.44 1164.35 1133.31 1165.08 1133.12C1165.71 1132.94 1166.81 1132.59 1167.86 1131.8L1160.66 1122.2C1161.06 1121.9 1161.41 1121.74 1161.58 1121.66C1161.77 1121.58 1161.89 1121.55 1161.92 1121.54C1161.96 1121.53 1161.84 1121.56 1161.49 1121.61C1160.79 1121.69 1159.66 1121.75 1158.01 1121.75V1133.75ZM1167.59 1131.99C1170.01 1130.38 1171.42 1128.01 1172.21 1125.65L1160.82 1121.85C1160.72 1122.17 1160.64 1122.28 1160.64 1122.27C1160.65 1122.27 1160.67 1122.23 1160.72 1122.18C1160.78 1122.13 1160.85 1122.07 1160.94 1122.01L1167.59 1131.99ZM1172.08 1125.98C1172.9 1123.94 1173.51 1121.73 1173.51 1119.5H1161.51C1161.51 1119.61 1161.46 1120.22 1160.94 1121.52L1172.08 1125.98ZM1173.51 1119.5C1173.51 1116.84 1172.87 1114.24 1171.4 1111.91C1169.94 1109.61 1167.88 1107.91 1165.56 1106.69L1159.97 1117.31C1160.82 1117.76 1161.13 1118.14 1161.26 1118.34C1161.37 1118.51 1161.51 1118.82 1161.51 1119.5H1173.51ZM1165.77 1106.81C1162.02 1104.63 1156.08 1102.31 1148.37 1099.8L1144.65 1111.2C1152.28 1113.69 1157.18 1115.7 1159.76 1117.19L1165.77 1106.81ZM1148.29 1099.77C1139.31 1096.99 1132.06 1094.19 1126.45 1091.38L1121.08 1102.12C1127.47 1105.31 1135.38 1108.34 1144.74 1111.23L1148.29 1099.77ZM1126.45 1091.38C1121.46 1088.89 1116.93 1084.93 1112.9 1079.27L1103.12 1086.23C1108.1 1093.23 1114.07 1098.61 1121.08 1102.12L1126.45 1091.38ZM1112.9 1079.27C1109.33 1074.24 1107.26 1067.24 1107.26 1057.75H1095.26C1095.26 1068.92 1097.7 1078.59 1103.12 1086.23L1112.9 1079.27ZM1107.26 1057.75C1107.26 1051.36 1108.71 1045.07 1111.68 1038.83L1100.85 1033.67C1097.15 1041.43 1095.26 1049.47 1095.26 1057.75H1107.26ZM1111.7 1038.78C1114.91 1031.89 1117.79 1028.21 1120 1026.63L1113.03 1016.87C1108.24 1020.29 1104.28 1026.28 1100.82 1033.72L1111.7 1038.78ZM1119.91 1026.69C1120.52 1026.28 1121.9 1025.59 1124.46 1024.78C1126.92 1024 1130.15 1023.19 1134.19 1022.38L1131.84 1010.62C1127.54 1011.48 1123.85 1012.38 1120.82 1013.34C1117.87 1014.28 1115.17 1015.39 1113.11 1016.81L1119.91 1026.69ZM1134.19 1022.38C1142.2 1020.78 1149.63 1020 1156.51 1020V1008C1148.73 1008 1140.5 1008.88 1131.84 1010.62L1134.19 1022.38ZM1156.51 1020C1174.87 1020 1189.49 1021.73 1200.56 1025L1203.97 1013.5C1191.37 1009.77 1175.49 1008 1156.51 1008V1020ZM1196.27 1018.95C1196.12 1021.93 1195.59 1026.24 1194.6 1031.99L1206.43 1034.01C1207.44 1028.09 1208.07 1023.24 1208.26 1019.55L1196.27 1018.95ZM1194.57 1032.15C1193.75 1037.88 1192.86 1043.09 1191.89 1047.78L1203.64 1050.22C1204.67 1045.24 1205.61 1039.78 1206.45 1033.85L1194.57 1032.15ZM1198.02 1043.01L1192.27 1042.76L1191.75 1054.74L1197.5 1054.99L1198.02 1043.01ZM1192.43 1042.76C1170.82 1041.27 1156.76 1040.5 1150.51 1040.5V1052.5C1156.26 1052.5 1169.87 1053.23 1191.6 1054.74L1192.43 1042.76ZM1150.51 1040.5C1149.22 1040.5 1148.11 1040.52 1147.22 1040.57C1146.79 1040.6 1146.32 1040.64 1145.87 1040.7C1145.65 1040.73 1144.62 1040.86 1143.58 1041.38L1148.95 1052.12C1148.65 1052.27 1148.4 1052.36 1148.24 1052.41C1148.07 1052.47 1147.93 1052.5 1147.85 1052.52C1147.68 1052.56 1147.57 1052.58 1147.57 1052.58C1147.55 1052.58 1147.65 1052.57 1147.93 1052.55C1148.46 1052.52 1149.31 1052.5 1150.51 1052.5V1040.5ZM1143.58 1041.38C1141.02 1042.67 1139.7 1045 1139 1046.64L1150.03 1051.36C1150.14 1051.1 1150.17 1051.11 1150.06 1051.25C1149.95 1051.39 1149.6 1051.79 1148.95 1052.12L1143.58 1041.38ZM1139 1046.64C1138.13 1048.67 1137.76 1050.83 1137.76 1053H1149.76C1149.76 1052.17 1149.9 1051.66 1150.03 1051.36L1139 1046.64ZM1306.76 1111.5L1301.37 1108.86L1300.76 1110.11V1111.5H1306.76ZM1306.76 1157V1163H1312.76V1157H1306.76ZM1261.76 1157H1255.76V1163H1261.76V1157ZM1261.76 1112H1267.76V1110.6L1267.14 1109.35L1261.76 1112ZM1213.76 1014.5V1008.5H1204.12L1208.37 1017.15L1213.76 1014.5ZM1259.51 1014.5L1265.06 1012.22L1263.53 1008.5H1259.51V1014.5ZM1278.51 1060.75L1272.96 1063.03L1272.98 1063.07L1272.99 1063.11L1278.51 1060.75ZM1284.01 1075.5L1278.3 1077.34L1279.64 1081.5H1284.01V1075.5ZM1284.51 1075.5V1081.5H1288.87L1290.22 1077.35L1284.51 1075.5ZM1290.01 1060.25L1284.46 1057.97L1284.45 1057.99L1290.01 1060.25ZM1308.76 1014.5V1008.5H1304.73L1303.21 1012.22L1308.76 1014.5ZM1354.26 1014.5L1359.65 1017.14L1363.88 1008.5H1354.26V1014.5ZM1300.76 1111.5V1157H1312.76V1111.5H1300.76ZM1306.76 1151H1261.76V1163H1306.76V1151ZM1267.76 1157V1112H1255.76V1157H1267.76ZM1267.14 1109.35L1219.14 1011.85L1208.37 1017.15L1256.37 1114.65L1267.14 1109.35ZM1213.76 1020.5H1259.51V1008.5H1213.76V1020.5ZM1253.96 1016.78L1272.96 1063.03L1284.06 1058.47L1265.06 1012.22L1253.96 1016.78ZM1272.99 1063.11C1274.91 1067.6 1276.68 1072.34 1278.3 1077.34L1289.72 1073.66C1288 1068.33 1286.1 1063.24 1284.02 1058.39L1272.99 1063.11ZM1284.01 1081.5H1284.51V1069.5H1284.01V1081.5ZM1290.22 1077.35C1292.01 1071.79 1293.8 1066.85 1295.56 1062.51L1284.45 1057.99C1282.55 1062.65 1280.67 1067.88 1278.8 1073.65L1290.22 1077.35ZM1295.56 1062.53L1314.31 1016.78L1303.21 1012.22L1284.46 1057.97L1295.56 1062.53ZM1308.76 1020.5H1354.26V1008.5H1308.76V1020.5ZM1348.87 1011.86L1301.37 1108.86L1312.15 1114.14L1359.65 1017.14L1348.87 1011.86Z" fill="#4B7C72" mask="url(#path-2-outside-1_1594_16)"/>
<mask id="path-4-outside-2_1594_16" maskUnits="userSpaceOnUse" x="397" y="1301" width="1543" height="160" fill="black">
<rect fill="white" x="397" y="1301" width="1543" height="160"/>
<path d="M590.25 1452H548.25L545 1373.5C544.5 1358 543.917 1346.25 543.25 1338.25H542.5C540.5 1344.58 538.167 1354.42 535.5 1367.75L534.25 1374L517 1452H475L460.5 1381.75L458 1369.25C454.5 1353.75 452.083 1343.42 450.75 1338.25H450C449.333 1346.58 448.75 1360.17 448.25 1379C448.083 1380.17 448 1382 448 1384.5L445.75 1452H403.5L409.5 1309.5H481L493.25 1371L496.25 1387.5C497.583 1382.33 498.833 1376.58 500 1370.25L511.5 1309.5H584.5L590.25 1452ZM694.811 1420.75H653.311L645.811 1452H599.811L645.811 1309.5H704.561L748.561 1452H702.311L694.811 1420.75ZM673.811 1340.25L659.061 1393H688.811L674.811 1340.25H673.811ZM802.742 1394.5V1452H760.992V1309.5H803.242L840.992 1367C846.659 1375.5 850.992 1382.67 853.992 1388.5H854.742V1364.5V1309.5H896.242V1452H853.742L814.992 1392L803.742 1375H802.992L802.742 1394.5ZM1003.4 1420.75H961.904L954.404 1452H908.404L954.404 1309.5H1013.15L1057.15 1452H1010.9L1003.4 1420.75ZM982.404 1340.25L967.654 1393H997.404L983.404 1340.25H982.404ZM1190.42 1373V1444.25C1179.26 1447.92 1168.67 1450.58 1158.67 1452.25C1148.67 1453.92 1140.26 1454.75 1133.42 1454.75C1110.76 1454.75 1093.01 1448.83 1080.17 1437C1067.34 1425.17 1060.92 1407 1060.92 1382.5C1060.92 1357.5 1067.67 1338.83 1081.17 1326.5C1094.67 1314 1113.67 1307.75 1138.17 1307.75C1151.01 1307.75 1166.42 1309.67 1184.42 1313.5C1184.42 1316.83 1184.09 1321.83 1183.42 1328.5C1182.76 1335 1182.09 1339.58 1181.42 1342.25L1172.42 1342C1161.42 1341.67 1152.84 1341.5 1146.67 1341.5C1128.17 1341.5 1118.09 1342.58 1116.42 1344.75C1113.76 1347.92 1111.84 1352.83 1110.67 1359.5C1109.67 1366.17 1109.17 1372.58 1109.17 1378.75C1109.17 1389.92 1110.42 1398.58 1112.92 1404.75C1115.42 1410.92 1119.26 1415.25 1124.42 1417.75C1129.59 1420.25 1136.59 1421.5 1145.42 1421.5H1146.42V1373H1190.42ZM1210.43 1309.5H1314.18V1339.5H1255.43V1365.5H1304.93V1392.5H1255.43V1421.5H1313.93V1452H1210.43V1309.5ZM1517.01 1452H1475.01L1471.76 1373.5C1471.26 1358 1470.67 1346.25 1470.01 1338.25H1469.26C1467.26 1344.58 1464.92 1354.42 1462.26 1367.75L1461.01 1374L1443.76 1452H1401.76L1387.26 1381.75L1384.76 1369.25C1381.26 1353.75 1378.84 1343.42 1377.51 1338.25H1376.76C1376.09 1346.58 1375.51 1360.17 1375.01 1379C1374.84 1380.17 1374.76 1382 1374.76 1384.5L1372.51 1452H1330.26L1336.26 1309.5H1407.76L1420.01 1371L1423.01 1387.5C1424.34 1382.33 1425.59 1376.58 1426.76 1370.25L1438.26 1309.5H1511.26L1517.01 1452ZM1537.82 1309.5H1641.57V1339.5H1582.82V1365.5H1632.32V1392.5H1582.82V1421.5H1641.32V1452H1537.82V1309.5ZM1702.4 1394.5V1452H1660.65V1309.5H1702.9L1740.65 1367C1746.32 1375.5 1750.65 1382.67 1753.65 1388.5H1754.4V1364.5V1309.5H1795.9V1452H1753.4L1714.65 1392L1703.4 1375H1702.65L1702.4 1394.5ZM1892.87 1452H1847.87V1340.75H1807.62V1309.5H1933.12V1340.75H1892.87V1452Z"/>
</mask>
<path d="M590.25 1452H548.25L545 1373.5C544.5 1358 543.917 1346.25 543.25 1338.25H542.5C540.5 1344.58 538.167 1354.42 535.5 1367.75L534.25 1374L517 1452H475L460.5 1381.75L458 1369.25C454.5 1353.75 452.083 1343.42 450.75 1338.25H450C449.333 1346.58 448.75 1360.17 448.25 1379C448.083 1380.17 448 1382 448 1384.5L445.75 1452H403.5L409.5 1309.5H481L493.25 1371L496.25 1387.5C497.583 1382.33 498.833 1376.58 500 1370.25L511.5 1309.5H584.5L590.25 1452ZM694.811 1420.75H653.311L645.811 1452H599.811L645.811 1309.5H704.561L748.561 1452H702.311L694.811 1420.75ZM673.811 1340.25L659.061 1393H688.811L674.811 1340.25H673.811ZM802.742 1394.5V1452H760.992V1309.5H803.242L840.992 1367C846.659 1375.5 850.992 1382.67 853.992 1388.5H854.742V1364.5V1309.5H896.242V1452H853.742L814.992 1392L803.742 1375H802.992L802.742 1394.5ZM1003.4 1420.75H961.904L954.404 1452H908.404L954.404 1309.5H1013.15L1057.15 1452H1010.9L1003.4 1420.75ZM982.404 1340.25L967.654 1393H997.404L983.404 1340.25H982.404ZM1190.42 1373V1444.25C1179.26 1447.92 1168.67 1450.58 1158.67 1452.25C1148.67 1453.92 1140.26 1454.75 1133.42 1454.75C1110.76 1454.75 1093.01 1448.83 1080.17 1437C1067.34 1425.17 1060.92 1407 1060.92 1382.5C1060.92 1357.5 1067.67 1338.83 1081.17 1326.5C1094.67 1314 1113.67 1307.75 1138.17 1307.75C1151.01 1307.75 1166.42 1309.67 1184.42 1313.5C1184.42 1316.83 1184.09 1321.83 1183.42 1328.5C1182.76 1335 1182.09 1339.58 1181.42 1342.25L1172.42 1342C1161.42 1341.67 1152.84 1341.5 1146.67 1341.5C1128.17 1341.5 1118.09 1342.58 1116.42 1344.75C1113.76 1347.92 1111.84 1352.83 1110.67 1359.5C1109.67 1366.17 1109.17 1372.58 1109.17 1378.75C1109.17 1389.92 1110.42 1398.58 1112.92 1404.75C1115.42 1410.92 1119.26 1415.25 1124.42 1417.75C1129.59 1420.25 1136.59 1421.5 1145.42 1421.5H1146.42V1373H1190.42ZM1210.43 1309.5H1314.18V1339.5H1255.43V1365.5H1304.93V1392.5H1255.43V1421.5H1313.93V1452H1210.43V1309.5ZM1517.01 1452H1475.01L1471.76 1373.5C1471.26 1358 1470.67 1346.25 1470.01 1338.25H1469.26C1467.26 1344.58 1464.92 1354.42 1462.26 1367.75L1461.01 1374L1443.76 1452H1401.76L1387.26 1381.75L1384.76 1369.25C1381.26 1353.75 1378.84 1343.42 1377.51 1338.25H1376.76C1376.09 1346.58 1375.51 1360.17 1375.01 1379C1374.84 1380.17 1374.76 1382 1374.76 1384.5L1372.51 1452H1330.26L1336.26 1309.5H1407.76L1420.01 1371L1423.01 1387.5C1424.34 1382.33 1425.59 1376.58 1426.76 1370.25L1438.26 1309.5H1511.26L1517.01 1452ZM1537.82 1309.5H1641.57V1339.5H1582.82V1365.5H1632.32V1392.5H1582.82V1421.5H1641.32V1452H1537.82V1309.5ZM1702.4 1394.5V1452H1660.65V1309.5H1702.9L1740.65 1367C1746.32 1375.5 1750.65 1382.67 1753.65 1388.5H1754.4V1364.5V1309.5H1795.9V1452H1753.4L1714.65 1392L1703.4 1375H1702.65L1702.4 1394.5ZM1892.87 1452H1847.87V1340.75H1807.62V1309.5H1933.12V1340.75H1892.87V1452Z" fill="white"/>
<path d="M590.25 1452V1458H596.497L596.245 1451.76L590.25 1452ZM548.25 1452L542.255 1452.25L542.493 1458H548.25V1452ZM545 1373.5L539.003 1373.69L539.004 1373.72L539.005 1373.75L545 1373.5ZM543.25 1338.25L549.229 1337.75L548.771 1332.25H543.25V1338.25ZM542.5 1338.25V1332.25H538.103L536.779 1336.44L542.5 1338.25ZM535.5 1367.75L541.383 1368.93L541.383 1368.93L535.5 1367.75ZM534.25 1374L540.108 1375.3L540.122 1375.24L540.133 1375.18L534.25 1374ZM517 1452V1458H521.818L522.858 1453.3L517 1452ZM475 1452L469.124 1453.21L470.112 1458H475V1452ZM460.5 1381.75L454.617 1382.93L454.62 1382.94L454.624 1382.96L460.5 1381.75ZM458 1369.25L463.883 1368.07L463.869 1368L463.853 1367.93L458 1369.25ZM450.75 1338.25L456.56 1336.75L455.398 1332.25H450.75V1338.25ZM450 1338.25V1332.25H444.461L444.019 1337.77L450 1338.25ZM448.25 1379L454.19 1379.85L454.239 1379.51L454.248 1379.16L448.25 1379ZM448 1384.5L453.997 1384.7L454 1384.6V1384.5H448ZM445.75 1452V1458H451.553L451.747 1452.2L445.75 1452ZM403.5 1452L397.505 1451.75L397.242 1458H403.5V1452ZM409.5 1309.5V1303.5H403.747L403.505 1309.25L409.5 1309.5ZM481 1309.5L486.884 1308.33L485.923 1303.5H481V1309.5ZM493.25 1371L499.153 1369.93L499.144 1369.88L499.134 1369.83L493.25 1371ZM496.25 1387.5L490.347 1388.57L502.06 1389L496.25 1387.5ZM500 1370.25L494.105 1369.13L494.102 1369.15L494.099 1369.16L500 1370.25ZM511.5 1309.5V1303.5H506.529L505.605 1308.38L511.5 1309.5ZM584.5 1309.5L590.495 1309.26L590.263 1303.5H584.5V1309.5ZM590.25 1446H548.25V1458H590.25V1446ZM554.245 1451.75L550.995 1373.25L539.005 1373.75L542.255 1452.25L554.245 1451.75ZM550.997 1373.31C550.496 1357.78 549.909 1345.91 549.229 1337.75L537.271 1338.75C537.924 1346.59 538.504 1358.22 539.003 1373.69L550.997 1373.31ZM543.25 1332.25H542.5V1344.25H543.25V1332.25ZM536.779 1336.44C534.676 1343.1 532.291 1353.2 529.617 1366.57L541.383 1368.93C544.042 1355.63 546.324 1346.07 548.222 1340.06L536.779 1336.44ZM529.617 1366.57L528.367 1372.82L540.133 1375.18L541.383 1368.93L529.617 1366.57ZM528.392 1372.7L511.142 1450.7L522.858 1453.3L540.108 1375.3L528.392 1372.7ZM517 1446H475V1458H517V1446ZM480.876 1450.79L466.376 1380.54L454.624 1382.96L469.124 1453.21L480.876 1450.79ZM466.383 1380.57L463.883 1368.07L452.117 1370.43L454.617 1382.93L466.383 1380.57ZM463.853 1367.93C460.356 1352.44 457.92 1342.02 456.56 1336.75L444.94 1339.75C446.247 1344.81 448.644 1355.06 452.147 1370.57L463.853 1367.93ZM450.75 1332.25H450V1344.25H450.75V1332.25ZM444.019 1337.77C443.339 1346.28 442.752 1360 442.252 1378.84L454.248 1379.16C454.748 1360.33 455.328 1346.89 455.981 1338.73L444.019 1337.77ZM442.31 1378.15C442.08 1379.77 442 1381.96 442 1384.5H454C454 1382.04 454.087 1380.57 454.19 1379.85L442.31 1378.15ZM442.003 1384.3L439.753 1451.8L451.747 1452.2L453.997 1384.7L442.003 1384.3ZM445.75 1446H403.5V1458H445.75V1446ZM409.495 1452.25L415.495 1309.75L403.505 1309.25L397.505 1451.75L409.495 1452.25ZM409.5 1315.5H481V1303.5H409.5V1315.5ZM475.116 1310.67L487.366 1372.17L499.134 1369.83L486.884 1308.33L475.116 1310.67ZM487.347 1372.07L490.347 1388.57L502.153 1386.43L499.153 1369.93L487.347 1372.07ZM502.06 1389C503.434 1383.67 504.714 1377.78 505.901 1371.34L494.099 1369.16C492.953 1375.39 491.732 1380.99 490.44 1386L502.06 1389ZM505.895 1371.37L517.395 1310.62L505.605 1308.38L494.105 1369.13L505.895 1371.37ZM511.5 1315.5H584.5V1303.5H511.5V1315.5ZM578.505 1309.74L584.255 1452.24L596.245 1451.76L590.495 1309.26L578.505 1309.74ZM694.811 1420.75L700.645 1419.35L699.541 1414.75H694.811V1420.75ZM653.311 1420.75V1414.75H648.58L647.476 1419.35L653.311 1420.75ZM645.811 1452V1458H650.541L651.645 1453.4L645.811 1452ZM599.811 1452L594.101 1450.16L591.569 1458H599.811V1452ZM645.811 1309.5V1303.5H641.443L640.101 1307.66L645.811 1309.5ZM704.561 1309.5L710.293 1307.73L708.987 1303.5H704.561V1309.5ZM748.561 1452V1458H756.693L754.293 1450.23L748.561 1452ZM702.311 1452L696.476 1453.4L697.58 1458H702.311V1452ZM673.811 1340.25V1334.25H669.258L668.032 1338.63L673.811 1340.25ZM659.061 1393L653.282 1391.38L651.153 1399H659.061V1393ZM688.811 1393V1399H696.611L694.61 1391.46L688.811 1393ZM674.811 1340.25L680.61 1338.71L679.426 1334.25H674.811V1340.25ZM694.811 1414.75H653.311V1426.75H694.811V1414.75ZM647.476 1419.35L639.976 1450.6L651.645 1453.4L659.145 1422.15L647.476 1419.35ZM645.811 1446H599.811V1458H645.811V1446ZM605.52 1453.84L651.52 1311.34L640.101 1307.66L594.101 1450.16L605.52 1453.84ZM645.811 1315.5H704.561V1303.5H645.811V1315.5ZM698.828 1311.27L742.828 1453.77L754.293 1450.23L710.293 1307.73L698.828 1311.27ZM748.561 1446H702.311V1458H748.561V1446ZM708.145 1450.6L700.645 1419.35L688.976 1422.15L696.476 1453.4L708.145 1450.6ZM668.032 1338.63L653.282 1391.38L664.839 1394.62L679.589 1341.87L668.032 1338.63ZM659.061 1399H688.811V1387H659.061V1399ZM694.61 1391.46L680.61 1338.71L669.011 1341.79L683.011 1394.54L694.61 1391.46ZM674.811 1334.25H673.811V1346.25H674.811V1334.25ZM802.742 1394.5L796.743 1394.42L796.742 1394.46V1394.5H802.742ZM802.742 1452V1458H808.742V1452H802.742ZM760.992 1452H754.992V1458H760.992V1452ZM760.992 1309.5V1303.5H754.992V1309.5H760.992ZM803.242 1309.5L808.258 1306.21L806.481 1303.5H803.242V1309.5ZM840.992 1367L835.977 1370.29L835.988 1370.31L836 1370.33L840.992 1367ZM853.992 1388.5L848.656 1391.24L850.331 1394.5H853.992V1388.5ZM854.742 1388.5V1394.5H860.742V1388.5H854.742ZM854.742 1309.5V1303.5H848.742V1309.5H854.742ZM896.242 1309.5H902.242V1303.5H896.242V1309.5ZM896.242 1452V1458H902.242V1452H896.242ZM853.742 1452L848.702 1455.26L850.475 1458H853.742V1452ZM814.992 1392L820.032 1388.74L820.014 1388.72L819.996 1388.69L814.992 1392ZM803.742 1375L808.746 1371.69L806.966 1369H803.742V1375ZM802.992 1375V1369H797.069L796.993 1374.92L802.992 1375ZM796.742 1394.5V1452H808.742V1394.5H796.742ZM802.742 1446H760.992V1458H802.742V1446ZM766.992 1452V1309.5H754.992V1452H766.992ZM760.992 1315.5H803.242V1303.5H760.992V1315.5ZM798.227 1312.79L835.977 1370.29L846.008 1363.71L808.258 1306.21L798.227 1312.79ZM836 1370.33C841.602 1378.73 845.8 1385.69 848.656 1391.24L859.328 1385.76C856.184 1379.64 851.716 1372.27 845.984 1363.67L836 1370.33ZM853.992 1394.5H854.742V1382.5H853.992V1394.5ZM860.742 1388.5V1364.5H848.742V1388.5H860.742ZM860.742 1364.5V1309.5H848.742V1364.5H860.742ZM854.742 1315.5H896.242V1303.5H854.742V1315.5ZM890.242 1309.5V1452H902.242V1309.5H890.242ZM896.242 1446H853.742V1458H896.242V1446ZM858.782 1448.74L820.032 1388.74L809.952 1395.26L848.702 1455.26L858.782 1448.74ZM819.996 1388.69L808.746 1371.69L798.739 1378.31L809.989 1395.31L819.996 1388.69ZM803.742 1369H802.992V1381H803.742V1369ZM796.993 1374.92L796.743 1394.42L808.742 1394.58L808.992 1375.08L796.993 1374.92ZM1003.4 1420.75L1009.24 1419.35L1008.13 1414.75H1003.4V1420.75ZM961.904 1420.75V1414.75H957.174L956.07 1419.35L961.904 1420.75ZM954.404 1452V1458H959.135L960.239 1453.4L954.404 1452ZM908.404 1452L902.694 1450.16L900.163 1458H908.404V1452ZM954.404 1309.5V1303.5H950.036L948.694 1307.66L954.404 1309.5ZM1013.15 1309.5L1018.89 1307.73L1017.58 1303.5H1013.15V1309.5ZM1057.15 1452V1458H1065.29L1062.89 1450.23L1057.15 1452ZM1010.9 1452L1005.07 1453.4L1006.17 1458H1010.9V1452ZM982.404 1340.25V1334.25H977.852L976.626 1338.63L982.404 1340.25ZM967.654 1393L961.876 1391.38L959.746 1399H967.654V1393ZM997.404 1393V1399H1005.2L1003.2 1391.46L997.404 1393ZM983.404 1340.25L989.204 1338.71L988.02 1334.25H983.404V1340.25ZM1003.4 1414.75H961.904V1426.75H1003.4V1414.75ZM956.07 1419.35L948.57 1450.6L960.239 1453.4L967.739 1422.15L956.07 1419.35ZM954.404 1446H908.404V1458H954.404V1446ZM914.114 1453.84L960.114 1311.34L948.694 1307.66L902.694 1450.16L914.114 1453.84ZM954.404 1315.5H1013.15V1303.5H954.404V1315.5ZM1007.42 1311.27L1051.42 1453.77L1062.89 1450.23L1018.89 1307.73L1007.42 1311.27ZM1057.15 1446H1010.9V1458H1057.15V1446ZM1016.74 1450.6L1009.24 1419.35L997.57 1422.15L1005.07 1453.4L1016.74 1450.6ZM976.626 1338.63L961.876 1391.38L973.433 1394.62L988.183 1341.87L976.626 1338.63ZM967.654 1399H997.404V1387H967.654V1399ZM1003.2 1391.46L989.204 1338.71L977.605 1341.79L991.605 1394.54L1003.2 1391.46ZM983.404 1334.25H982.404V1346.25H983.404V1334.25ZM1190.42 1373H1196.42V1367H1190.42V1373ZM1190.42 1444.25L1192.3 1449.95L1196.42 1448.6V1444.25H1190.42ZM1158.67 1452.25L1157.69 1446.33L1158.67 1452.25ZM1080.17 1437L1076.11 1441.41L1076.11 1441.41L1080.17 1437ZM1081.17 1326.5L1085.22 1330.93L1085.24 1330.92L1085.25 1330.9L1081.17 1326.5ZM1184.42 1313.5H1190.42V1308.64L1185.67 1307.63L1184.42 1313.5ZM1183.42 1328.5L1189.39 1329.11L1189.39 1329.1L1189.39 1329.1L1183.42 1328.5ZM1181.42 1342.25L1181.26 1348.25L1186.08 1348.38L1187.24 1343.71L1181.42 1342.25ZM1172.42 1342L1172.24 1348L1172.25 1348L1172.26 1348L1172.42 1342ZM1116.42 1344.75L1121.01 1348.61L1121.1 1348.51L1121.18 1348.41L1116.42 1344.75ZM1110.67 1359.5L1104.76 1358.47L1104.75 1358.54L1104.74 1358.61L1110.67 1359.5ZM1112.92 1404.75L1107.36 1407L1107.36 1407L1112.92 1404.75ZM1124.42 1417.75L1121.81 1423.15L1121.81 1423.15L1124.42 1417.75ZM1146.42 1421.5V1427.5H1152.42V1421.5H1146.42ZM1146.42 1373V1367H1140.42V1373H1146.42ZM1184.42 1373V1444.25H1196.42V1373H1184.42ZM1188.55 1438.55C1177.63 1442.14 1167.34 1444.72 1157.69 1446.33L1159.66 1458.17C1170 1456.44 1180.88 1453.7 1192.3 1449.95L1188.55 1438.55ZM1157.69 1446.33C1147.87 1447.97 1139.81 1448.75 1133.42 1448.75V1460.75C1140.7 1460.75 1149.47 1459.87 1159.66 1458.17L1157.69 1446.33ZM1133.42 1448.75C1111.8 1448.75 1095.67 1443.12 1084.24 1432.59L1076.11 1441.41C1090.35 1454.54 1109.71 1460.75 1133.42 1460.75V1448.75ZM1084.24 1432.59C1073.07 1422.29 1066.92 1406.02 1066.92 1382.5H1054.92C1054.92 1407.98 1061.61 1428.04 1076.11 1441.41L1084.24 1432.59ZM1066.92 1382.5C1066.92 1358.54 1073.37 1341.76 1085.22 1330.93L1077.13 1322.07C1061.98 1335.91 1054.92 1356.46 1054.92 1382.5H1066.92ZM1085.25 1330.9C1097.32 1319.73 1114.67 1313.75 1138.17 1313.75V1301.75C1112.67 1301.75 1092.03 1308.27 1077.1 1322.1L1085.25 1330.9ZM1138.17 1313.75C1150.45 1313.75 1165.42 1315.59 1183.17 1319.37L1185.67 1307.63C1167.42 1303.75 1151.56 1301.75 1138.17 1301.75V1313.75ZM1178.42 1313.5C1178.42 1316.52 1178.12 1321.28 1177.45 1327.9L1189.39 1329.1C1190.06 1322.39 1190.42 1317.14 1190.42 1313.5H1178.42ZM1177.46 1327.89C1176.79 1334.38 1176.16 1338.59 1175.6 1340.79L1187.24 1343.71C1188.03 1340.58 1188.73 1335.62 1189.39 1329.11L1177.46 1327.89ZM1181.59 1336.25L1172.59 1336L1172.26 1348L1181.26 1348.25L1181.59 1336.25ZM1172.61 1336C1161.58 1335.67 1152.93 1335.5 1146.67 1335.5V1347.5C1152.75 1347.5 1161.26 1347.66 1172.24 1348L1172.61 1336ZM1146.67 1335.5C1137.35 1335.5 1129.96 1335.77 1124.6 1336.35C1121.93 1336.63 1119.57 1337.01 1117.65 1337.55C1116.69 1337.81 1115.69 1338.16 1114.75 1338.63C1113.87 1339.07 1112.64 1339.82 1111.67 1341.09L1121.18 1348.41C1120.88 1348.8 1120.59 1349.04 1120.43 1349.16C1120.26 1349.29 1120.14 1349.35 1120.14 1349.35C1120.13 1349.35 1120.18 1349.33 1120.31 1349.28C1120.43 1349.24 1120.61 1349.18 1120.85 1349.11C1121.87 1348.83 1123.5 1348.53 1125.88 1348.28C1130.6 1347.77 1137.49 1347.5 1146.67 1347.5V1335.5ZM1111.83 1340.89C1108.18 1345.22 1106.01 1351.35 1104.76 1358.47L1116.58 1360.53C1117.67 1354.32 1119.33 1350.61 1121.01 1348.61L1111.83 1340.89ZM1104.74 1358.61C1103.7 1365.54 1103.17 1372.26 1103.17 1378.75H1115.17C1115.17 1372.91 1115.65 1366.79 1116.61 1360.39L1104.74 1358.61ZM1103.17 1378.75C1103.17 1390.24 1104.44 1399.8 1107.36 1407L1118.48 1402.5C1116.41 1397.37 1115.17 1389.6 1115.17 1378.75H1103.17ZM1107.36 1407C1110.33 1414.31 1115.09 1419.9 1121.81 1423.15L1127.04 1412.35C1123.42 1410.6 1120.52 1407.52 1118.48 1402.5L1107.36 1407ZM1121.81 1423.15C1128.11 1426.2 1136.13 1427.5 1145.42 1427.5V1415.5C1137.05 1415.5 1131.07 1414.3 1127.04 1412.35L1121.81 1423.15ZM1145.42 1427.5H1146.42V1415.5H1145.42V1427.5ZM1152.42 1421.5V1373H1140.42V1421.5H1152.42ZM1146.42 1379H1190.42V1367H1146.42V1379ZM1210.43 1309.5V1303.5H1204.43V1309.5H1210.43ZM1314.18 1309.5H1320.18V1303.5H1314.18V1309.5ZM1314.18 1339.5V1345.5H1320.18V1339.5H1314.18ZM1255.43 1339.5V1333.5H1249.43V1339.5H1255.43ZM1255.43 1365.5H1249.43V1371.5H1255.43V1365.5ZM1304.93 1365.5H1310.93V1359.5H1304.93V1365.5ZM1304.93 1392.5V1398.5H1310.93V1392.5H1304.93ZM1255.43 1392.5V1386.5H1249.43V1392.5H1255.43ZM1255.43 1421.5H1249.43V1427.5H1255.43V1421.5ZM1313.93 1421.5H1319.93V1415.5H1313.93V1421.5ZM1313.93 1452V1458H1319.93V1452H1313.93ZM1210.43 1452H1204.43V1458H1210.43V1452ZM1210.43 1315.5H1314.18V1303.5H1210.43V1315.5ZM1308.18 1309.5V1339.5H1320.18V1309.5H1308.18ZM1314.18 1333.5H1255.43V1345.5H1314.18V1333.5ZM1249.43 1339.5V1365.5H1261.43V1339.5H1249.43ZM1255.43 1371.5H1304.93V1359.5H1255.43V1371.5ZM1298.93 1365.5V1392.5H1310.93V1365.5H1298.93ZM1304.93 1386.5H1255.43V1398.5H1304.93V1386.5ZM1249.43 1392.5V1421.5H1261.43V1392.5H1249.43ZM1255.43 1427.5H1313.93V1415.5H1255.43V1427.5ZM1307.93 1421.5V1452H1319.93V1421.5H1307.93ZM1313.93 1446H1210.43V1458H1313.93V1446ZM1216.43 1452V1309.5H1204.43V1452H1216.43ZM1517.01 1452V1458H1523.25L1523 1451.76L1517.01 1452ZM1475.01 1452L1469.01 1452.25L1469.25 1458H1475.01V1452ZM1471.76 1373.5L1465.76 1373.69L1465.76 1373.72L1465.76 1373.75L1471.76 1373.5ZM1470.01 1338.25L1475.99 1337.75L1475.53 1332.25H1470.01V1338.25ZM1469.26 1338.25V1332.25H1464.86L1463.54 1336.44L1469.26 1338.25ZM1462.26 1367.75L1468.14 1368.93L1468.14 1368.93L1462.26 1367.75ZM1461.01 1374L1466.87 1375.3L1466.88 1375.24L1466.89 1375.18L1461.01 1374ZM1443.76 1452V1458H1448.58L1449.62 1453.3L1443.76 1452ZM1401.76 1452L1395.88 1453.21L1396.87 1458H1401.76V1452ZM1387.26 1381.75L1381.37 1382.93L1381.38 1382.94L1381.38 1382.96L1387.26 1381.75ZM1384.76 1369.25L1390.64 1368.07L1390.63 1368L1390.61 1367.93L1384.76 1369.25ZM1377.51 1338.25L1383.32 1336.75L1382.16 1332.25H1377.51V1338.25ZM1376.76 1338.25V1332.25H1371.22L1370.78 1337.77L1376.76 1338.25ZM1375.01 1379L1380.95 1379.85L1381 1379.51L1381.01 1379.16L1375.01 1379ZM1374.76 1384.5L1380.75 1384.7L1380.76 1384.6V1384.5H1374.76ZM1372.51 1452V1458H1378.31L1378.5 1452.2L1372.51 1452ZM1330.26 1452L1324.26 1451.75L1324 1458H1330.26V1452ZM1336.26 1309.5V1303.5H1330.51L1330.26 1309.25L1336.26 1309.5ZM1407.76 1309.5L1413.64 1308.33L1412.68 1303.5H1407.76V1309.5ZM1420.01 1371L1425.91 1369.93L1425.9 1369.88L1425.89 1369.83L1420.01 1371ZM1423.01 1387.5L1417.1 1388.57L1428.82 1389L1423.01 1387.5ZM1426.76 1370.25L1420.86 1369.13L1420.86 1369.15L1420.86 1369.16L1426.76 1370.25ZM1438.26 1309.5V1303.5H1433.29L1432.36 1308.38L1438.26 1309.5ZM1511.26 1309.5L1517.25 1309.26L1517.02 1303.5H1511.26V1309.5ZM1517.01 1446H1475.01V1458H1517.01V1446ZM1481 1451.75L1477.75 1373.25L1465.76 1373.75L1469.01 1452.25L1481 1451.75ZM1477.75 1373.31C1477.25 1357.78 1476.67 1345.91 1475.99 1337.75L1464.03 1338.75C1464.68 1346.59 1465.26 1358.22 1465.76 1373.69L1477.75 1373.31ZM1470.01 1332.25H1469.26V1344.25H1470.01V1332.25ZM1463.54 1336.44C1461.43 1343.1 1459.05 1353.2 1456.37 1366.57L1468.14 1368.93C1470.8 1355.63 1473.08 1346.07 1474.98 1340.06L1463.54 1336.44ZM1456.37 1366.57L1455.12 1372.82L1466.89 1375.18L1468.14 1368.93L1456.37 1366.57ZM1455.15 1372.7L1437.9 1450.7L1449.62 1453.3L1466.87 1375.3L1455.15 1372.7ZM1443.76 1446H1401.76V1458H1443.76V1446ZM1407.63 1450.79L1393.13 1380.54L1381.38 1382.96L1395.88 1453.21L1407.63 1450.79ZM1393.14 1380.57L1390.64 1368.07L1378.87 1370.43L1381.37 1382.93L1393.14 1380.57ZM1390.61 1367.93C1387.11 1352.44 1384.68 1342.02 1383.32 1336.75L1371.7 1339.75C1373 1344.81 1375.4 1355.06 1378.91 1370.57L1390.61 1367.93ZM1377.51 1332.25H1376.76V1344.25H1377.51V1332.25ZM1370.78 1337.77C1370.1 1346.28 1369.51 1360 1369.01 1378.84L1381.01 1379.16C1381.51 1360.33 1382.09 1346.89 1382.74 1338.73L1370.78 1337.77ZM1369.07 1378.15C1368.84 1379.77 1368.76 1381.96 1368.76 1384.5H1380.76C1380.76 1382.04 1380.84 1380.57 1380.95 1379.85L1369.07 1378.15ZM1368.76 1384.3L1366.51 1451.8L1378.5 1452.2L1380.75 1384.7L1368.76 1384.3ZM1372.51 1446H1330.26V1458H1372.51V1446ZM1336.25 1452.25L1342.25 1309.75L1330.26 1309.25L1324.26 1451.75L1336.25 1452.25ZM1336.26 1315.5H1407.76V1303.5H1336.26V1315.5ZM1401.87 1310.67L1414.12 1372.17L1425.89 1369.83L1413.64 1308.33L1401.87 1310.67ZM1414.1 1372.07L1417.1 1388.57L1428.91 1386.43L1425.91 1369.93L1414.1 1372.07ZM1428.82 1389C1430.19 1383.67 1431.47 1377.78 1432.66 1371.34L1420.86 1369.16C1419.71 1375.39 1418.49 1380.99 1417.2 1386L1428.82 1389ZM1432.65 1371.37L1444.15 1310.62L1432.36 1308.38L1420.86 1369.13L1432.65 1371.37ZM1438.26 1315.5H1511.26V1303.5H1438.26V1315.5ZM1505.26 1309.74L1511.01 1452.24L1523 1451.76L1517.25 1309.26L1505.26 1309.74ZM1537.82 1309.5V1303.5H1531.82V1309.5H1537.82ZM1641.57 1309.5H1647.57V1303.5H1641.57V1309.5ZM1641.57 1339.5V1345.5H1647.57V1339.5H1641.57ZM1582.82 1339.5V1333.5H1576.82V1339.5H1582.82ZM1582.82 1365.5H1576.82V1371.5H1582.82V1365.5ZM1632.32 1365.5H1638.32V1359.5H1632.32V1365.5ZM1632.32 1392.5V1398.5H1638.32V1392.5H1632.32ZM1582.82 1392.5V1386.5H1576.82V1392.5H1582.82ZM1582.82 1421.5H1576.82V1427.5H1582.82V1421.5ZM1641.32 1421.5H1647.32V1415.5H1641.32V1421.5ZM1641.32 1452V1458H1647.32V1452H1641.32ZM1537.82 1452H1531.82V1458H1537.82V1452ZM1537.82 1315.5H1641.57V1303.5H1537.82V1315.5ZM1635.57 1309.5V1339.5H1647.57V1309.5H1635.57ZM1641.57 1333.5H1582.82V1345.5H1641.57V1333.5ZM1576.82 1339.5V1365.5H1588.82V1339.5H1576.82ZM1582.82 1371.5H1632.32V1359.5H1582.82V1371.5ZM1626.32 1365.5V1392.5H1638.32V1365.5H1626.32ZM1632.32 1386.5H1582.82V1398.5H1632.32V1386.5ZM1576.82 1392.5V1421.5H1588.82V1392.5H1576.82ZM1582.82 1427.5H1641.32V1415.5H1582.82V1427.5ZM1635.32 1421.5V1452H1647.32V1421.5H1635.32ZM1641.32 1446H1537.82V1458H1641.32V1446ZM1543.82 1452V1309.5H1531.82V1452H1543.82ZM1702.4 1394.5L1696.4 1394.42L1696.4 1394.46V1394.5H1702.4ZM1702.4 1452V1458H1708.4V1452H1702.4ZM1660.65 1452H1654.65V1458H1660.65V1452ZM1660.65 1309.5V1303.5H1654.65V1309.5H1660.65ZM1702.9 1309.5L1707.92 1306.21L1706.14 1303.5H1702.9V1309.5ZM1740.65 1367L1735.63 1370.29L1735.65 1370.31L1735.66 1370.33L1740.65 1367ZM1753.65 1388.5L1748.31 1391.24L1749.99 1394.5H1753.65V1388.5ZM1754.4 1388.5V1394.5H1760.4V1388.5H1754.4ZM1754.4 1309.5V1303.5H1748.4V1309.5H1754.4ZM1795.9 1309.5H1801.9V1303.5H1795.9V1309.5ZM1795.9 1452V1458H1801.9V1452H1795.9ZM1753.4 1452L1748.36 1455.26L1750.13 1458H1753.4V1452ZM1714.65 1392L1719.69 1388.74L1719.67 1388.72L1719.65 1388.69L1714.65 1392ZM1703.4 1375L1708.4 1371.69L1706.62 1369H1703.4V1375ZM1702.65 1375V1369H1696.73L1696.65 1374.92L1702.65 1375ZM1696.4 1394.5V1452H1708.4V1394.5H1696.4ZM1702.4 1446H1660.65V1458H1702.4V1446ZM1666.65 1452V1309.5H1654.65V1452H1666.65ZM1660.65 1315.5H1702.9V1303.5H1660.65V1315.5ZM1697.88 1312.79L1735.63 1370.29L1745.67 1363.71L1707.92 1306.21L1697.88 1312.79ZM1735.66 1370.33C1741.26 1378.73 1745.46 1385.69 1748.31 1391.24L1758.99 1385.76C1755.84 1379.64 1751.37 1372.27 1745.64 1363.67L1735.66 1370.33ZM1753.65 1394.5H1754.4V1382.5H1753.65V1394.5ZM1760.4 1388.5V1364.5H1748.4V1388.5H1760.4ZM1760.4 1364.5V1309.5H1748.4V1364.5H1760.4ZM1754.4 1315.5H1795.9V1303.5H1754.4V1315.5ZM1789.9 1309.5V1452H1801.9V1309.5H1789.9ZM1795.9 1446H1753.4V1458H1795.9V1446ZM1758.44 1448.74L1719.69 1388.74L1709.61 1395.26L1748.36 1455.26L1758.44 1448.74ZM1719.65 1388.69L1708.4 1371.69L1698.4 1378.31L1709.65 1395.31L1719.65 1388.69ZM1703.4 1369H1702.65V1381H1703.4V1369ZM1696.65 1374.92L1696.4 1394.42L1708.4 1394.58L1708.65 1375.08L1696.65 1374.92ZM1892.87 1452V1458H1898.87V1452H1892.87ZM1847.87 1452H1841.87V1458H1847.87V1452ZM1847.87 1340.75H1853.87V1334.75H1847.87V1340.75ZM1807.62 1340.75H1801.62V1346.75H1807.62V1340.75ZM1807.62 1309.5V1303.5H1801.62V1309.5H1807.62ZM1933.12 1309.5H1939.12V1303.5H1933.12V1309.5ZM1933.12 1340.75V1346.75H1939.12V1340.75H1933.12ZM1892.87 1340.75V1334.75H1886.87V1340.75H1892.87ZM1892.87 1446H1847.87V1458H1892.87V1446ZM1853.87 1452V1340.75H1841.87V1452H1853.87ZM1847.87 1334.75H1807.62V1346.75H1847.87V1334.75ZM1813.62 1340.75V1309.5H1801.62V1340.75H1813.62ZM1807.62 1315.5H1933.12V1303.5H1807.62V1315.5ZM1927.12 1309.5V1340.75H1939.12V1309.5H1927.12ZM1933.12 1334.75H1892.87V1346.75H1933.12V1334.75ZM1886.87 1340.75V1452H1898.87V1340.75H1886.87Z" fill="#4B7C72" mask="url(#path-4-outside-2_1594_16)"/>
<path d="M1350 1311C1344.83 1222.29 1350.33 1024.76 1413.67 944.339C1477.02 863.921 1482.02 867.016 1476.59 878.615" stroke="white" stroke-width="6"/>
<g clip-path="url(#clip1_1594_16)">
<path d="M1473.54 796.777H1471.83C1470.93 796.777 1470.07 796.394 1469.44 795.71C1468.81 795.027 1468.46 794.1 1468.46 793.134C1468.51 786.219 1467.25 779.365 1464.76 772.996C1459.23 759.865 1449.49 749.339 1437.35 743.363C1431.45 740.677 1425.11 739.317 1418.72 739.367C1417.83 739.361 1416.98 738.977 1416.35 738.299C1415.73 737.622 1415.37 736.704 1415.37 735.745V733.868C1415.37 732.908 1415.72 731.987 1416.35 731.308C1416.98 730.629 1417.83 730.247 1418.72 730.247C1425.12 730.3 1431.46 728.932 1437.35 726.228C1443.41 723.345 1448.91 719.23 1453.54 714.106C1458.28 709.082 1462.08 703.133 1464.76 696.573C1467.25 690.212 1468.51 683.365 1468.46 676.457C1468.46 675.495 1468.82 674.574 1469.45 673.895C1470.08 673.217 1470.94 672.836 1471.83 672.836H1473.54C1474.43 672.836 1475.29 673.217 1475.92 673.895C1476.55 674.574 1476.91 675.495 1476.91 676.457C1476.86 683.365 1478.12 690.212 1480.61 696.573C1483.27 703.135 1487.08 709.08 1491.82 714.084C1496.45 719.215 1501.95 723.331 1508.02 726.206C1513.91 728.91 1520.25 730.278 1526.65 730.225C1527.54 730.225 1528.39 730.606 1529.02 731.286C1529.65 731.965 1530 732.886 1530 733.846V735.723C1529.99 736.682 1529.64 737.6 1529.01 738.277C1528.39 738.955 1527.54 739.339 1526.65 739.344C1520.25 739.295 1513.92 740.655 1508.02 743.341C1495.87 749.323 1486.13 759.857 1480.61 772.996C1478.12 779.367 1476.86 786.219 1476.91 793.134C1476.91 793.613 1476.82 794.086 1476.66 794.528C1476.49 794.97 1476.24 795.372 1475.92 795.71C1475.61 796.049 1475.24 796.317 1474.83 796.5C1474.42 796.683 1473.98 796.777 1473.54 796.777ZM1347.69 741.288H1345.65C1344.76 741.276 1343.92 740.887 1343.29 740.205C1342.67 739.523 1342.32 738.603 1342.32 737.644C1342.38 729.305 1340.87 721.039 1337.87 713.355C1334.65 705.465 1330.07 698.315 1324.37 692.29C1318.79 686.128 1312.18 681.174 1304.88 677.694C1297.77 674.455 1290.13 672.818 1282.41 672.88C1281.97 672.886 1281.53 672.798 1281.12 672.62C1280.71 672.442 1280.33 672.179 1280.02 671.844C1279.7 671.51 1279.45 671.112 1279.27 670.672C1279.1 670.232 1279.01 669.759 1279 669.281V667.073C1279.01 666.114 1279.36 665.196 1279.99 664.519C1280.61 663.841 1281.46 663.457 1282.35 663.452C1290.07 663.517 1297.71 661.871 1304.82 658.616C1312.12 655.149 1318.74 650.193 1324.31 644.02C1330 637.964 1334.59 630.793 1337.81 622.888C1340.83 615.217 1342.36 606.959 1342.32 598.621C1342.33 597.67 1342.68 596.759 1343.29 596.082C1343.91 595.406 1344.75 595.017 1345.63 595H1347.67C1348.56 595.006 1349.41 595.389 1350.04 596.067C1350.66 596.745 1351.02 597.663 1351.02 598.621C1350.96 606.964 1352.48 615.232 1355.5 622.911C1358.69 630.807 1363.27 637.96 1368.98 643.976C1374.54 650.151 1381.16 655.107 1388.47 658.572C1395.57 661.828 1403.22 663.474 1410.93 663.407C1411.38 663.404 1411.81 663.496 1412.22 663.677C1412.63 663.857 1413 664.124 1413.32 664.46C1413.63 664.797 1413.88 665.197 1414.05 665.638C1414.22 666.079 1414.3 666.551 1414.3 667.029V669.237C1414.3 669.715 1414.22 670.189 1414.05 670.631C1413.88 671.073 1413.63 671.475 1413.32 671.813C1413 672.151 1412.63 672.42 1412.22 672.603C1411.82 672.786 1411.38 672.88 1410.93 672.88C1403.22 672.817 1395.57 674.455 1388.47 677.694C1373.85 684.891 1362.15 697.568 1355.52 713.377C1352.5 721.057 1350.98 729.324 1351.04 737.666C1351.04 738.629 1350.69 739.552 1350.06 740.235C1349.44 740.917 1348.58 741.304 1347.69 741.31V741.288ZM1343.96 710.551C1345.02 713.235 1345.93 715.994 1346.65 718.809C1347.38 715.994 1348.28 713.235 1349.35 710.551C1356.64 692.993 1369.64 678.932 1385.87 671.025C1388.35 669.878 1390.91 668.911 1393.51 668.133C1390.91 667.337 1388.36 666.363 1385.87 665.218C1377.78 661.394 1370.45 655.921 1364.28 649.099C1357.95 642.427 1352.88 634.493 1349.35 625.737C1348.27 623.041 1347.37 620.267 1346.65 617.434C1345.93 620.243 1345.03 622.995 1343.96 625.671C1340.42 634.436 1335.36 642.382 1329.04 649.077C1322.87 655.919 1315.53 661.408 1307.43 665.24C1304.94 666.389 1302.38 667.362 1299.77 668.155C1302.39 668.928 1304.95 669.902 1307.43 671.07C1315.53 674.88 1322.86 680.355 1329.02 687.189C1335.35 693.857 1340.43 701.791 1343.96 710.551ZM1374.02 835H1372.96C1372.07 835 1371.22 834.618 1370.59 833.939C1369.96 833.26 1369.61 832.339 1369.61 831.379C1369.64 827.292 1368.9 823.242 1367.43 819.477C1364.14 811.642 1358.33 805.364 1351.08 801.812C1347.59 800.223 1343.84 799.42 1340.05 799.449C1339.19 799.438 1338.36 799.067 1337.75 798.413C1337.13 797.758 1336.77 796.872 1336.75 795.938V794.746C1336.75 793.786 1337.1 792.865 1337.73 792.185C1338.35 791.506 1339.21 791.125 1340.1 791.125C1343.88 791.156 1347.62 790.352 1351.11 788.762C1358.36 785.222 1364.17 778.94 1367.45 771.097C1368.91 767.339 1369.66 763.297 1369.63 759.217C1369.63 758.259 1369.98 757.339 1370.6 756.657C1371.23 755.975 1372.07 755.586 1372.96 755.574H1374.04C1374.93 755.574 1375.78 755.956 1376.41 756.635C1377.04 757.314 1377.39 758.235 1377.39 759.195C1377.36 763.292 1378.11 767.351 1379.6 771.119C1382.88 778.962 1388.69 785.244 1395.94 788.784C1399.43 790.387 1403.18 791.192 1406.97 791.147C1407.41 791.147 1407.85 791.241 1408.26 791.425C1408.67 791.608 1409.04 791.877 1409.35 792.215C1409.66 792.554 1409.91 792.956 1410.07 793.398C1410.24 793.84 1410.32 794.313 1410.32 794.79V795.938C1410.32 796.899 1409.97 797.82 1409.34 798.499C1408.71 799.178 1407.86 799.56 1406.97 799.56C1403.18 799.53 1399.43 800.334 1395.94 801.922C1392.31 803.65 1389.01 806.116 1386.24 809.187L1386.08 809.364C1383.32 812.276 1381.11 815.732 1379.56 819.543C1378.09 823.316 1377.34 827.373 1377.37 831.467C1377.38 831.943 1377.29 832.416 1377.12 832.856C1376.96 833.297 1376.71 833.697 1376.4 834.034C1376.09 834.371 1375.72 834.638 1375.31 834.819C1374.9 835 1374.46 835.091 1374.02 835.088V835ZM1365.47 803.954C1368.84 807.516 1371.56 811.743 1373.47 816.408C1375.37 811.831 1378.04 807.676 1381.34 804.153L1381.5 803.954C1384.81 800.304 1388.74 797.367 1393.06 795.298C1384.38 791.034 1377.43 783.52 1373.47 774.144C1371.56 778.806 1368.84 783.032 1365.47 786.598C1362.16 790.251 1358.24 793.195 1353.92 795.276C1358.24 797.357 1362.16 800.301 1365.47 803.954ZM1471.01 770.17C1471.66 771.848 1472.25 773.548 1472.77 775.293C1473.28 773.548 1473.87 771.848 1474.52 770.17C1480.7 755.301 1491.71 743.399 1505.47 736.717C1507.04 735.988 1508.61 735.348 1510.23 734.796C1508.61 734.258 1507.02 733.624 1505.47 732.897C1498.59 729.668 1492.34 725.034 1487.08 719.251C1481.73 713.561 1477.43 706.816 1474.42 699.378C1473.77 697.677 1473.17 695.977 1472.66 694.233C1472.15 695.955 1471.56 697.655 1470.91 699.333C1467.91 706.772 1463.62 713.519 1458.26 719.206C1453 725.004 1446.76 729.652 1439.88 732.897C1438.31 733.603 1436.73 734.244 1435.12 734.796C1436.73 735.348 1438.31 735.988 1439.88 736.717C1453.7 743.36 1464.78 755.266 1471.01 770.17Z" fill="#015F4D"/>
</g>
</g>
<defs>
<clipPath id="clip0_1594_16">
<rect width="2363" height="2682" fill="white"/>
</clipPath>
<clipPath id="clip1_1594_16">
<rect width="251" height="240" fill="white" transform="translate(1279 595)"/>
</clipPath>
</defs>
</svg>
