<svg width="6608" height="3817" viewBox="0 0 6608 3817" fill="none" xmlns="http://www.w3.org/2000/svg">
<rect width="6608" height="3817" fill="white"/>
<mask id="path-1-outside-1_1619_38" maskUnits="userSpaceOnUse" x="547" y="1234" width="3226" height="440" fill="black">
<rect fill="white" x="547" y="1234" width="3226" height="440"/>
<path d="M946.5 1664H798.75L715.5 1504.25C714 1501.75 710 1494.75 703.5 1483.25C697.5 1471.75 690.75 1460.75 683.25 1450.25V1664H548.25V1236.5H683.25V1430.75C691.75 1421.25 699 1411 705 1400C711.5 1388.5 715.25 1381.75 716.25 1379.75L796.5 1236.5H939L853.5 1379.75C852 1381.75 848.75 1387 843.75 1395.5C838.75 1404 833.25 1412 827.25 1419.5C821.75 1426.5 815.75 1433 809.25 1439C818.25 1447.5 825.5 1456 831 1464.5C837 1472.5 843.75 1483.25 851.25 1496.75L946.5 1664ZM980.379 1236.5H1116.13V1393.25H1232.38V1236.5H1368.13V1664H1232.38V1479.5H1116.13V1664H980.379V1236.5ZM1691.48 1570.25H1566.98L1544.48 1664H1406.48L1544.48 1236.5H1720.73L1852.73 1664H1713.98L1691.48 1570.25ZM1628.48 1328.75L1584.23 1487H1673.48L1631.48 1328.75H1628.48ZM2015.28 1491.5V1664H1890.03V1236.5H2016.78L2130.03 1409C2147.03 1434.5 2160.03 1456 2169.03 1473.5H2171.28V1401.5V1236.5H2295.78V1664H2168.28L2052.03 1484L2018.28 1433H2016.03L2015.28 1491.5ZM2589.9 1527.5V1664H2454.9V1529L2310.9 1236.5H2448.15L2505.15 1375.25C2511.15 1389.25 2516.65 1404 2521.65 1419.5H2523.15C2528.65 1402.5 2534.15 1387.25 2539.65 1373.75L2595.9 1236.5H2732.4L2589.9 1527.5ZM2765.29 1236.5H2900.29V1664H2765.29V1236.5ZM3099.21 1352C3099.21 1362.5 3104.46 1370.75 3114.96 1376.75C3125.96 1382.75 3142.96 1389.25 3165.96 1396.25C3193.46 1405.25 3215.96 1414 3233.46 1422.5C3251.46 1431 3266.96 1444.25 3279.96 1462.25C3293.46 1480.25 3300.21 1503.75 3300.21 1532.75C3300.21 1625.75 3239.71 1672.25 3118.71 1672.25C3098.71 1672.25 3074.21 1670.5 3045.21 1667C3016.71 1663.5 2990.71 1659 2967.21 1653.5C2968.21 1643 2970.21 1627.75 2973.21 1607.75C2976.71 1587.25 2979.96 1572 2982.96 1562C3000.46 1564.5 3026.71 1567.5 3061.71 1571C3097.21 1574.5 3123.96 1576.25 3141.96 1576.25C3152.46 1576.25 3158.71 1575.5 3160.71 1574C3163.71 1572 3165.96 1568.75 3167.46 1564.25C3169.46 1559.25 3170.46 1555 3170.46 1551.5C3170.46 1541.5 3165.71 1534 3156.21 1529C3146.71 1523.5 3130.46 1517 3107.46 1509.5C3079.96 1501 3057.21 1492.25 3039.21 1483.25C3021.21 1474.25 3005.46 1460.25 2991.96 1441.25C2978.46 1422.25 2971.71 1397.25 2971.71 1366.25C2971.71 1344.25 2976.71 1322.75 2986.71 1301.75C2996.71 1280.25 3006.96 1265.75 3017.46 1258.25C3025.46 1252.75 3041.96 1247.5 3066.96 1242.5C3091.96 1237.5 3115.46 1235 3137.46 1235C3193.46 1235 3239.21 1240.25 3274.71 1250.75C3274.21 1260.75 3272.46 1274.5 3269.46 1292C3266.96 1309.5 3264.21 1325.5 3261.21 1340L3243.96 1339.25C3178.96 1334.75 3137.46 1332.5 3119.46 1332.5C3111.96 1332.5 3107.71 1332.75 3106.71 1333.25C3104.71 1334.25 3102.96 1336.5 3101.46 1340C3099.96 1343.5 3099.21 1347.5 3099.21 1352ZM3609.7 1570.25H3485.2L3462.7 1664H3324.7L3462.7 1236.5H3638.95L3770.95 1664H3632.2L3609.7 1570.25ZM3546.7 1328.75L3502.45 1487H3591.7L3549.7 1328.75H3546.7Z"/>
</mask>
<g filter="url(#filter0_i_1619_38)">
<path d="M946.5 1664H798.75L715.5 1504.25C714 1501.75 710 1494.75 703.5 1483.25C697.5 1471.75 690.75 1460.75 683.25 1450.25V1664H548.25V1236.5H683.25V1430.75C691.75 1421.25 699 1411 705 1400C711.5 1388.5 715.25 1381.75 716.25 1379.75L796.5 1236.5H939L853.5 1379.75C852 1381.75 848.75 1387 843.75 1395.5C838.75 1404 833.25 1412 827.25 1419.5C821.75 1426.5 815.75 1433 809.25 1439C818.25 1447.5 825.5 1456 831 1464.5C837 1472.5 843.75 1483.25 851.25 1496.75L946.5 1664ZM980.379 1236.5H1116.13V1393.25H1232.38V1236.5H1368.13V1664H1232.38V1479.5H1116.13V1664H980.379V1236.5ZM1691.48 1570.25H1566.98L1544.48 1664H1406.48L1544.48 1236.5H1720.73L1852.73 1664H1713.98L1691.48 1570.25ZM1628.48 1328.75L1584.23 1487H1673.48L1631.48 1328.75H1628.48ZM2015.28 1491.5V1664H1890.03V1236.5H2016.78L2130.03 1409C2147.03 1434.5 2160.03 1456 2169.03 1473.5H2171.28V1401.5V1236.5H2295.78V1664H2168.28L2052.03 1484L2018.28 1433H2016.03L2015.28 1491.5ZM2589.9 1527.5V1664H2454.9V1529L2310.9 1236.5H2448.15L2505.15 1375.25C2511.15 1389.25 2516.65 1404 2521.65 1419.5H2523.15C2528.65 1402.5 2534.15 1387.25 2539.65 1373.75L2595.9 1236.5H2732.4L2589.9 1527.5ZM2765.29 1236.5H2900.29V1664H2765.29V1236.5ZM3099.21 1352C3099.21 1362.5 3104.46 1370.75 3114.96 1376.75C3125.96 1382.75 3142.96 1389.25 3165.96 1396.25C3193.46 1405.25 3215.96 1414 3233.46 1422.5C3251.46 1431 3266.96 1444.25 3279.96 1462.25C3293.46 1480.25 3300.21 1503.75 3300.21 1532.75C3300.21 1625.75 3239.71 1672.25 3118.71 1672.25C3098.71 1672.25 3074.21 1670.5 3045.21 1667C3016.71 1663.5 2990.71 1659 2967.21 1653.5C2968.21 1643 2970.21 1627.75 2973.21 1607.75C2976.71 1587.25 2979.96 1572 2982.96 1562C3000.46 1564.5 3026.71 1567.5 3061.71 1571C3097.21 1574.5 3123.96 1576.25 3141.96 1576.25C3152.46 1576.25 3158.71 1575.5 3160.71 1574C3163.71 1572 3165.96 1568.75 3167.46 1564.25C3169.46 1559.25 3170.46 1555 3170.46 1551.5C3170.46 1541.5 3165.71 1534 3156.21 1529C3146.71 1523.5 3130.46 1517 3107.46 1509.5C3079.96 1501 3057.21 1492.25 3039.21 1483.25C3021.21 1474.25 3005.46 1460.25 2991.96 1441.25C2978.46 1422.25 2971.71 1397.25 2971.71 1366.25C2971.71 1344.25 2976.71 1322.75 2986.71 1301.75C2996.71 1280.25 3006.96 1265.75 3017.46 1258.25C3025.46 1252.75 3041.96 1247.5 3066.96 1242.5C3091.96 1237.5 3115.46 1235 3137.46 1235C3193.46 1235 3239.21 1240.25 3274.71 1250.75C3274.21 1260.75 3272.46 1274.5 3269.46 1292C3266.96 1309.5 3264.21 1325.5 3261.21 1340L3243.96 1339.25C3178.96 1334.75 3137.46 1332.5 3119.46 1332.5C3111.96 1332.5 3107.71 1332.75 3106.71 1333.25C3104.71 1334.25 3102.96 1336.5 3101.46 1340C3099.96 1343.5 3099.21 1347.5 3099.21 1352ZM3609.7 1570.25H3485.2L3462.7 1664H3324.7L3462.7 1236.5H3638.95L3770.95 1664H3632.2L3609.7 1570.25ZM3546.7 1328.75L3502.45 1487H3591.7L3549.7 1328.75H3546.7Z" fill="#E3E3E3"/>
</g>
<path d="M946.5 1664V1665H948.22L947.369 1663.51L946.5 1664ZM798.75 1664L797.863 1664.46L798.144 1665H798.75V1664ZM715.5 1504.25L716.387 1503.79L716.373 1503.76L716.358 1503.74L715.5 1504.25ZM703.5 1483.25L702.613 1483.71L702.621 1483.73L702.629 1483.74L703.5 1483.25ZM683.25 1450.25L684.064 1449.67L682.25 1447.13V1450.25H683.25ZM683.25 1664V1665H684.25V1664H683.25ZM548.25 1664H547.25V1665H548.25V1664ZM548.25 1236.5V1235.5H547.25V1236.5H548.25ZM683.25 1236.5H684.25V1235.5H683.25V1236.5ZM683.25 1430.75H682.25V1433.37L683.995 1431.42L683.25 1430.75ZM705 1400L704.129 1399.51L704.126 1399.51L704.122 1399.52L705 1400ZM716.25 1379.75L715.378 1379.26L715.366 1379.28L715.356 1379.3L716.25 1379.75ZM796.5 1236.5V1235.5H795.914L795.628 1236.01L796.5 1236.5ZM939 1236.5L939.859 1237.01L940.761 1235.5H939V1236.5ZM853.5 1379.75L854.3 1380.35L854.332 1380.31L854.359 1380.26L853.5 1379.75ZM843.75 1395.5L844.612 1396.01L844.612 1396.01L843.75 1395.5ZM827.25 1419.5L826.469 1418.88L826.464 1418.88L827.25 1419.5ZM809.25 1439L808.572 1438.27L807.785 1438.99L808.563 1439.73L809.25 1439ZM831 1464.5L830.16 1465.04L830.179 1465.07L830.2 1465.1L831 1464.5ZM851.25 1496.75L850.376 1497.24L850.381 1497.24L851.25 1496.75ZM946.5 1663H798.75V1665H946.5V1663ZM799.637 1663.54L716.387 1503.79L714.613 1504.71L797.863 1664.46L799.637 1663.54ZM716.358 1503.74C714.866 1501.25 710.873 1494.26 704.371 1482.76L702.629 1483.74C709.127 1495.24 713.134 1502.25 714.643 1504.76L716.358 1503.74ZM704.387 1482.79C698.365 1471.25 691.591 1460.21 684.064 1449.67L682.436 1450.83C689.909 1461.29 696.635 1472.25 702.613 1483.71L704.387 1482.79ZM682.25 1450.25V1664H684.25V1450.25H682.25ZM683.25 1663H548.25V1665H683.25V1663ZM549.25 1664V1236.5H547.25V1664H549.25ZM548.25 1237.5H683.25V1235.5H548.25V1237.5ZM682.25 1236.5V1430.75H684.25V1236.5H682.25ZM683.995 1431.42C692.546 1421.86 699.84 1411.55 705.878 1400.48L704.122 1399.52C698.16 1410.45 690.954 1420.64 682.505 1430.08L683.995 1431.42ZM705.871 1400.49C712.363 1389.01 716.13 1382.23 717.144 1380.2L715.356 1379.3C714.37 1381.27 710.637 1387.99 704.129 1399.51L705.871 1400.49ZM717.122 1380.24L797.372 1236.99L795.628 1236.01L715.378 1379.26L717.122 1380.24ZM796.5 1237.5H939V1235.5H796.5V1237.5ZM938.141 1235.99L852.641 1379.24L854.359 1380.26L939.859 1237.01L938.141 1235.99ZM852.7 1379.15C851.159 1381.2 847.878 1386.51 842.888 1394.99L844.612 1396.01C849.622 1387.49 852.841 1382.3 854.3 1380.35L852.7 1379.15ZM842.888 1394.99C837.912 1403.45 832.439 1411.41 826.469 1418.88L828.031 1420.12C834.061 1412.59 839.588 1404.55 844.612 1396.01L842.888 1394.99ZM826.464 1418.88C820.996 1425.84 815.032 1432.3 808.572 1438.27L809.928 1439.73C816.468 1433.7 822.504 1427.16 828.036 1420.12L826.464 1418.88ZM808.563 1439.73C817.518 1448.18 824.712 1456.62 830.16 1465.04L831.84 1463.96C826.288 1455.38 818.982 1446.82 809.937 1438.27L808.563 1439.73ZM830.2 1465.1C836.162 1473.05 842.887 1483.76 850.376 1497.24L852.124 1496.26C844.613 1482.74 837.838 1471.95 831.8 1463.9L830.2 1465.1ZM850.381 1497.24L945.631 1664.49L947.369 1663.51L852.119 1496.26L850.381 1497.24ZM980.379 1236.5V1235.5H979.379V1236.5H980.379ZM1116.13 1236.5H1117.13V1235.5H1116.13V1236.5ZM1116.13 1393.25H1115.13V1394.25H1116.13V1393.25ZM1232.38 1393.25V1394.25H1233.38V1393.25H1232.38ZM1232.38 1236.5V1235.5H1231.38V1236.5H1232.38ZM1368.13 1236.5H1369.13V1235.5H1368.13V1236.5ZM1368.13 1664V1665H1369.13V1664H1368.13ZM1232.38 1664H1231.38V1665H1232.38V1664ZM1232.38 1479.5H1233.38V1478.5H1232.38V1479.5ZM1116.13 1479.5V1478.5H1115.13V1479.5H1116.13ZM1116.13 1664V1665H1117.13V1664H1116.13ZM980.379 1664H979.379V1665H980.379V1664ZM980.379 1237.5H1116.13V1235.5H980.379V1237.5ZM1115.13 1236.5V1393.25H1117.13V1236.5H1115.13ZM1116.13 1394.25H1232.38V1392.25H1116.13V1394.25ZM1233.38 1393.25V1236.5H1231.38V1393.25H1233.38ZM1232.38 1237.5H1368.13V1235.5H1232.38V1237.5ZM1367.13 1236.5V1664H1369.13V1236.5H1367.13ZM1368.13 1663H1232.38V1665H1368.13V1663ZM1233.38 1664V1479.5H1231.38V1664H1233.38ZM1232.38 1478.5H1116.13V1480.5H1232.38V1478.5ZM1115.13 1479.5V1664H1117.13V1479.5H1115.13ZM1116.13 1663H980.379V1665H1116.13V1663ZM981.379 1664V1236.5H979.379V1664H981.379ZM1691.48 1570.25L1692.46 1570.02L1692.27 1569.25H1691.48V1570.25ZM1566.98 1570.25V1569.25H1566.2L1566.01 1570.02L1566.98 1570.25ZM1544.48 1664V1665H1545.27L1545.46 1664.23L1544.48 1664ZM1406.48 1664L1405.53 1663.69L1405.11 1665H1406.48V1664ZM1544.48 1236.5V1235.5H1543.76L1543.53 1236.19L1544.48 1236.5ZM1720.73 1236.5L1721.69 1236.2L1721.47 1235.5H1720.73V1236.5ZM1852.73 1664V1665H1854.09L1853.69 1663.7L1852.73 1664ZM1713.98 1664L1713.01 1664.23L1713.2 1665H1713.98V1664ZM1628.48 1328.75V1327.75H1627.73L1627.52 1328.48L1628.48 1328.75ZM1584.23 1487L1583.27 1486.73L1582.92 1488H1584.23V1487ZM1673.48 1487V1488H1674.78L1674.45 1486.74L1673.48 1487ZM1631.48 1328.75L1632.45 1328.49L1632.25 1327.75H1631.48V1328.75ZM1691.48 1569.25H1566.98V1571.25H1691.48V1569.25ZM1566.01 1570.02L1543.51 1663.77L1545.46 1664.23L1567.96 1570.48L1566.01 1570.02ZM1544.48 1663H1406.48V1665H1544.48V1663ZM1407.44 1664.31L1545.44 1236.81L1543.53 1236.19L1405.53 1663.69L1407.44 1664.31ZM1544.48 1237.5H1720.73V1235.5H1544.48V1237.5ZM1719.78 1236.79L1851.78 1664.3L1853.69 1663.7L1721.69 1236.2L1719.78 1236.79ZM1852.73 1663H1713.98V1665H1852.73V1663ZM1714.96 1663.77L1692.46 1570.02L1690.51 1570.48L1713.01 1664.23L1714.96 1663.77ZM1627.52 1328.48L1583.27 1486.73L1585.2 1487.27L1629.45 1329.02L1627.52 1328.48ZM1584.23 1488H1673.48V1486H1584.23V1488ZM1674.45 1486.74L1632.45 1328.49L1630.52 1329.01L1672.52 1487.26L1674.45 1486.74ZM1631.48 1327.75H1628.48V1329.75H1631.48V1327.75ZM2015.28 1491.5L2014.28 1491.49V1491.5H2015.28ZM2015.28 1664V1665H2016.28V1664H2015.28ZM1890.03 1664H1889.03V1665H1890.03V1664ZM1890.03 1236.5V1235.5H1889.03V1236.5H1890.03ZM2016.78 1236.5L2017.62 1235.95L2017.32 1235.5H2016.78V1236.5ZM2130.03 1409L2129.19 1409.55L2129.2 1409.55L2130.03 1409ZM2169.03 1473.5L2168.14 1473.96L2168.42 1474.5H2169.03V1473.5ZM2171.28 1473.5V1474.5H2172.28V1473.5H2171.28ZM2171.28 1236.5V1235.5H2170.28V1236.5H2171.28ZM2295.78 1236.5H2296.78V1235.5H2295.78V1236.5ZM2295.78 1664V1665H2296.78V1664H2295.78ZM2168.28 1664L2167.44 1664.54L2167.73 1665H2168.28V1664ZM2052.03 1484L2052.87 1483.46L2052.86 1483.45L2052.03 1484ZM2018.28 1433L2019.11 1432.45L2018.82 1432H2018.28V1433ZM2016.03 1433V1432H2015.04L2015.03 1432.99L2016.03 1433ZM2014.28 1491.5V1664H2016.28V1491.5H2014.28ZM2015.28 1663H1890.03V1665H2015.28V1663ZM1891.03 1664V1236.5H1889.03V1664H1891.03ZM1890.03 1237.5H2016.78V1235.5H1890.03V1237.5ZM2015.94 1237.05L2129.19 1409.55L2130.87 1408.45L2017.62 1235.95L2015.94 1237.05ZM2129.2 1409.55C2146.19 1435.04 2159.16 1456.5 2168.14 1473.96L2169.92 1473.04C2160.89 1455.5 2147.87 1433.96 2130.86 1408.45L2129.2 1409.55ZM2169.03 1474.5H2171.28V1472.5H2169.03V1474.5ZM2172.28 1473.5V1401.5H2170.28V1473.5H2172.28ZM2172.28 1401.5V1236.5H2170.28V1401.5H2172.28ZM2171.28 1237.5H2295.78V1235.5H2171.28V1237.5ZM2294.78 1236.5V1664H2296.78V1236.5H2294.78ZM2295.78 1663H2168.28V1665H2295.78V1663ZM2169.12 1663.46L2052.87 1483.46L2051.19 1484.54L2167.44 1664.54L2169.12 1663.46ZM2052.86 1483.45L2019.11 1432.45L2017.45 1433.55L2051.2 1484.55L2052.86 1483.45ZM2018.28 1432H2016.03V1434H2018.28V1432ZM2015.03 1432.99L2014.28 1491.49L2016.28 1491.51L2017.03 1433.01L2015.03 1432.99ZM2589.9 1527.5L2589 1527.06L2588.9 1527.27V1527.5H2589.9ZM2589.9 1664V1665H2590.9V1664H2589.9ZM2454.9 1664H2453.9V1665H2454.9V1664ZM2454.9 1529H2455.9V1528.77L2455.8 1528.56L2454.9 1529ZM2310.9 1236.5V1235.5H2309.3L2310.01 1236.94L2310.9 1236.5ZM2448.15 1236.5L2449.08 1236.12L2448.82 1235.5H2448.15V1236.5ZM2505.15 1375.25L2504.23 1375.63L2504.23 1375.64L2504.23 1375.64L2505.15 1375.25ZM2521.65 1419.5L2520.7 1419.81L2520.92 1420.5H2521.65V1419.5ZM2523.15 1419.5V1420.5H2523.88L2524.1 1419.81L2523.15 1419.5ZM2539.65 1373.75L2538.73 1373.37L2538.73 1373.37L2539.65 1373.75ZM2595.9 1236.5V1235.5H2595.23L2594.98 1236.12L2595.9 1236.5ZM2732.4 1236.5L2733.3 1236.94L2734.01 1235.5H2732.4V1236.5ZM2588.9 1527.5V1664H2590.9V1527.5H2588.9ZM2589.9 1663H2454.9V1665H2589.9V1663ZM2455.9 1664V1529H2453.9V1664H2455.9ZM2455.8 1528.56L2311.8 1236.06L2310.01 1236.94L2454.01 1529.44L2455.8 1528.56ZM2310.9 1237.5H2448.15V1235.5H2310.9V1237.5ZM2447.23 1236.88L2504.23 1375.63L2506.08 1374.87L2449.08 1236.12L2447.23 1236.88ZM2504.23 1375.64C2510.22 1389.61 2515.71 1404.33 2520.7 1419.81L2522.6 1419.19C2517.6 1403.67 2512.08 1388.89 2506.07 1374.86L2504.23 1375.64ZM2521.65 1420.5H2523.15V1418.5H2521.65V1420.5ZM2524.1 1419.81C2529.6 1402.83 2535.09 1387.6 2540.58 1374.13L2538.73 1373.37C2533.22 1386.9 2527.71 1402.17 2522.2 1419.19L2524.1 1419.81ZM2540.58 1374.13L2596.83 1236.88L2594.98 1236.12L2538.73 1373.37L2540.58 1374.13ZM2595.9 1237.5H2732.4V1235.5H2595.9V1237.5ZM2731.5 1236.06L2589 1527.06L2590.8 1527.94L2733.3 1236.94L2731.5 1236.06ZM2765.29 1236.5V1235.5H2764.29V1236.5H2765.29ZM2900.29 1236.5H2901.29V1235.5H2900.29V1236.5ZM2900.29 1664V1665H2901.29V1664H2900.29ZM2765.29 1664H2764.29V1665H2765.29V1664ZM2765.29 1237.5H2900.29V1235.5H2765.29V1237.5ZM2899.29 1236.5V1664H2901.29V1236.5H2899.29ZM2900.29 1663H2765.29V1665H2900.29V1663ZM2766.29 1664V1236.5H2764.29V1664H2766.29ZM3114.96 1376.75L3114.46 1377.62L3114.47 1377.62L3114.48 1377.63L3114.96 1376.75ZM3165.96 1396.25L3166.27 1395.3L3166.26 1395.3L3166.25 1395.29L3165.96 1396.25ZM3233.46 1422.5L3233.02 1423.4L3233.03 1423.4L3233.46 1422.5ZM3279.96 1462.25L3279.15 1462.84L3279.16 1462.84L3279.16 1462.85L3279.96 1462.25ZM3045.21 1667L3045.09 1667.99L3045.09 1667.99L3045.21 1667ZM2967.21 1653.5L2966.22 1653.41L2966.13 1654.27L2966.98 1654.47L2967.21 1653.5ZM2973.21 1607.75L2972.23 1607.58L2972.22 1607.59L2972.22 1607.6L2973.21 1607.75ZM2982.96 1562L2983.1 1561.01L2982.25 1560.89L2982 1561.71L2982.96 1562ZM3061.71 1571L3061.61 1572L3061.61 1572L3061.71 1571ZM3160.71 1574L3160.16 1573.17L3160.13 1573.18L3160.11 1573.2L3160.71 1574ZM3167.46 1564.25L3166.53 1563.88L3166.52 1563.91L3166.51 1563.93L3167.46 1564.25ZM3156.21 1529L3155.71 1529.87L3155.73 1529.88L3155.75 1529.88L3156.21 1529ZM3107.46 1509.5L3107.77 1508.55L3107.76 1508.55L3107.76 1508.54L3107.46 1509.5ZM3039.21 1483.25L3039.66 1482.36L3039.66 1482.36L3039.21 1483.25ZM2991.96 1441.25L2992.78 1440.67L2992.78 1440.67L2991.96 1441.25ZM2986.71 1301.75L2987.61 1302.18L2987.62 1302.17L2986.71 1301.75ZM3017.46 1258.25L3016.89 1257.43L3016.89 1257.43L3016.88 1257.44L3017.46 1258.25ZM3066.96 1242.5L3066.76 1241.52L3066.76 1241.52L3066.96 1242.5ZM3274.71 1250.75L3275.71 1250.8L3275.75 1250.01L3274.99 1249.79L3274.71 1250.75ZM3269.46 1292L3268.48 1291.83L3268.47 1291.84L3268.47 1291.86L3269.46 1292ZM3261.21 1340L3261.17 1341L3262.02 1341.04L3262.19 1340.2L3261.21 1340ZM3243.96 1339.25L3243.89 1340.25L3243.9 1340.25L3243.92 1340.25L3243.96 1339.25ZM3106.71 1333.25L3107.16 1334.14L3107.16 1334.14L3106.71 1333.25ZM3101.46 1340L3100.54 1339.61L3100.54 1339.61L3101.46 1340ZM3098.21 1352C3098.21 1362.92 3103.71 1371.47 3114.46 1377.62L3115.46 1375.88C3105.21 1370.03 3100.21 1362.08 3100.21 1352H3098.21ZM3114.48 1377.63C3125.57 1383.68 3142.65 1390.2 3165.67 1397.21L3166.25 1395.29C3143.27 1388.3 3126.35 1381.82 3115.44 1375.87L3114.48 1377.63ZM3165.65 1397.2C3193.13 1406.19 3215.58 1414.93 3233.02 1423.4L3233.9 1421.6C3216.34 1413.07 3193.8 1404.31 3166.27 1395.3L3165.65 1397.2ZM3233.03 1423.4C3250.86 1431.82 3266.24 1444.96 3279.15 1462.84L3280.77 1461.66C3267.68 1443.54 3252.06 1430.18 3233.89 1421.6L3233.03 1423.4ZM3279.16 1462.85C3292.5 1480.63 3299.21 1503.9 3299.21 1532.75H3301.21C3301.21 1503.6 3294.42 1479.87 3280.76 1461.65L3279.16 1462.85ZM3299.21 1532.75C3299.21 1579.02 3284.18 1613.56 3254.23 1636.58C3224.23 1659.64 3179.11 1671.25 3118.71 1671.25V1673.25C3179.31 1673.25 3224.94 1661.61 3255.45 1638.17C3286 1614.69 3301.21 1579.48 3301.21 1532.75H3299.21ZM3118.71 1671.25C3098.76 1671.25 3074.31 1669.5 3045.33 1666.01L3045.09 1667.99C3074.11 1671.5 3098.66 1673.25 3118.71 1673.25V1671.25ZM3045.33 1666.01C3016.86 1662.51 2990.9 1658.02 2967.44 1652.53L2966.98 1654.47C2990.52 1659.98 3016.56 1664.49 3045.09 1667.99L3045.33 1666.01ZM2968.21 1653.59C2969.2 1643.12 2971.2 1627.89 2974.2 1607.9L2972.22 1607.6C2969.22 1627.61 2967.22 1642.88 2966.22 1653.41L2968.21 1653.59ZM2974.2 1607.92C2977.7 1587.43 2980.94 1572.23 2983.92 1562.29L2982 1561.71C2978.98 1571.77 2975.73 1587.07 2972.23 1607.58L2974.2 1607.92ZM2982.82 1562.99C3000.34 1565.49 3026.61 1568.49 3061.61 1572L3061.81 1570C3026.81 1566.51 3000.58 1563.51 2983.1 1561.01L2982.82 1562.99ZM3061.61 1572C3097.12 1575.5 3123.91 1577.25 3141.96 1577.25V1575.25C3124.01 1575.25 3097.3 1573.5 3061.81 1570L3061.61 1572ZM3141.96 1577.25C3147.23 1577.25 3151.46 1577.06 3154.64 1576.68C3156.23 1576.49 3157.58 1576.25 3158.68 1575.95C3159.76 1575.65 3160.66 1575.29 3161.31 1574.8L3160.11 1573.2C3159.76 1573.46 3159.13 1573.75 3158.15 1574.02C3157.18 1574.28 3155.94 1574.51 3154.4 1574.69C3151.34 1575.06 3147.19 1575.25 3141.96 1575.25V1577.25ZM3161.27 1574.83C3164.5 1572.67 3166.86 1569.21 3168.41 1564.57L3166.51 1563.93C3165.06 1568.29 3162.92 1571.33 3160.16 1573.17L3161.27 1574.83ZM3168.39 1564.62C3170.41 1559.56 3171.46 1555.18 3171.46 1551.5H3169.46C3169.46 1554.82 3168.51 1558.94 3166.53 1563.88L3168.39 1564.62ZM3171.46 1551.5C3171.46 1546.34 3170.23 1541.77 3167.74 1537.84C3165.26 1533.91 3161.55 1530.68 3156.68 1528.12L3155.75 1529.88C3160.37 1532.32 3163.79 1535.34 3166.05 1538.91C3168.31 1542.48 3169.46 1546.66 3169.46 1551.5H3171.46ZM3156.71 1528.13C3147.11 1522.58 3130.78 1516.05 3107.77 1508.55L3107.15 1510.45C3130.14 1517.95 3146.31 1524.42 3155.71 1529.87L3156.71 1528.13ZM3107.76 1508.54C3080.29 1500.05 3057.59 1491.32 3039.66 1482.36L3038.76 1484.14C3056.83 1493.18 3079.63 1501.95 3107.17 1510.46L3107.76 1508.54ZM3039.66 1482.36C3021.83 1473.44 3006.2 1459.56 2992.78 1440.67L2991.15 1441.83C3004.73 1460.94 3020.6 1475.06 3038.76 1484.14L3039.66 1482.36ZM2992.78 1440.67C2979.43 1421.89 2972.71 1397.11 2972.71 1366.25H2970.71C2970.71 1397.39 2977.49 1422.61 2991.15 1441.83L2992.78 1440.67ZM2972.71 1366.25C2972.71 1344.41 2977.67 1323.05 2987.61 1302.18L2985.81 1301.32C2975.75 1322.45 2970.71 1344.09 2970.71 1366.25H2972.71ZM2987.62 1302.17C2997.6 1280.72 3007.76 1266.41 3018.04 1259.06L3016.88 1257.44C3006.17 1265.09 2995.83 1279.78 2985.8 1301.33L2987.62 1302.17ZM3018.03 1259.07C3021.91 1256.41 3027.92 1253.76 3036.14 1251.14C3044.34 1248.53 3054.68 1245.98 3067.16 1243.48L3066.76 1241.52C3054.24 1244.02 3043.83 1246.59 3035.53 1249.23C3027.25 1251.87 3021.02 1254.59 3016.89 1257.43L3018.03 1259.07ZM3067.16 1243.48C3092.1 1238.49 3115.54 1236 3137.46 1236V1234C3115.39 1234 3091.82 1236.51 3066.76 1241.52L3067.16 1243.48ZM3137.46 1236C3193.41 1236 3239.05 1241.25 3274.43 1251.71L3274.99 1249.79C3239.37 1239.25 3193.51 1234 3137.46 1234V1236ZM3273.71 1250.7C3273.22 1260.64 3271.47 1274.35 3268.48 1291.83L3270.45 1292.17C3273.45 1274.65 3275.21 1260.86 3275.71 1250.8L3273.71 1250.7ZM3268.47 1291.86C3265.97 1309.34 3263.23 1325.32 3260.23 1339.8L3262.19 1340.2C3265.2 1325.68 3267.95 1309.66 3270.45 1292.14L3268.47 1291.86ZM3261.25 1339L3244 1338.25L3243.92 1340.25L3261.17 1341L3261.25 1339ZM3244.03 1338.25C3179.04 1333.75 3137.5 1331.5 3119.46 1331.5V1333.5C3137.42 1333.5 3178.88 1335.75 3243.89 1340.25L3244.03 1338.25ZM3119.46 1331.5C3115.7 1331.5 3112.74 1331.56 3110.59 1331.69C3109.51 1331.75 3108.62 1331.83 3107.93 1331.93C3107.27 1332.03 3106.67 1332.15 3106.26 1332.36L3107.16 1334.14C3107.25 1334.1 3107.56 1334.01 3108.21 1333.91C3108.83 1333.82 3109.66 1333.75 3110.71 1333.69C3112.8 1333.56 3115.72 1333.5 3119.46 1333.5V1331.5ZM3106.26 1332.36C3103.95 1333.51 3102.08 1336.03 3100.54 1339.61L3102.38 1340.39C3103.85 1336.97 3105.47 1334.99 3107.16 1334.14L3106.26 1332.36ZM3100.54 1339.61C3098.98 1343.25 3098.21 1347.39 3098.21 1352H3100.21C3100.21 1347.61 3100.94 1343.75 3102.38 1340.39L3100.54 1339.61ZM3609.7 1570.25L3610.67 1570.02L3610.49 1569.25H3609.7V1570.25ZM3485.2 1570.25V1569.25H3484.41L3484.22 1570.02L3485.2 1570.25ZM3462.7 1664V1665H3463.49L3463.67 1664.23L3462.7 1664ZM3324.7 1664L3323.75 1663.69L3323.32 1665H3324.7V1664ZM3462.7 1236.5V1235.5H3461.97L3461.75 1236.19L3462.7 1236.5ZM3638.95 1236.5L3639.9 1236.2L3639.69 1235.5H3638.95V1236.5ZM3770.95 1664V1665H3772.3L3771.9 1663.7L3770.95 1664ZM3632.2 1664L3631.22 1664.23L3631.41 1665H3632.2V1664ZM3546.7 1328.75V1327.75H3545.94L3545.73 1328.48L3546.7 1328.75ZM3502.45 1487L3501.48 1486.73L3501.13 1488H3502.45V1487ZM3591.7 1487V1488H3593L3592.66 1486.74L3591.7 1487ZM3549.7 1328.75L3550.66 1328.49L3550.47 1327.75H3549.7V1328.75ZM3609.7 1569.25H3485.2V1571.25H3609.7V1569.25ZM3484.22 1570.02L3461.72 1663.77L3463.67 1664.23L3486.17 1570.48L3484.22 1570.02ZM3462.7 1663H3324.7V1665H3462.7V1663ZM3325.65 1664.31L3463.65 1236.81L3461.75 1236.19L3323.75 1663.69L3325.65 1664.31ZM3462.7 1237.5H3638.95V1235.5H3462.7V1237.5ZM3637.99 1236.79L3769.99 1664.3L3771.9 1663.7L3639.9 1236.2L3637.99 1236.79ZM3770.95 1663H3632.2V1665H3770.95V1663ZM3633.17 1663.77L3610.67 1570.02L3608.72 1570.48L3631.22 1664.23L3633.17 1663.77ZM3545.73 1328.48L3501.48 1486.73L3503.41 1487.27L3547.66 1329.02L3545.73 1328.48ZM3502.45 1488H3591.7V1486H3502.45V1488ZM3592.66 1486.74L3550.66 1328.49L3548.73 1329.01L3590.73 1487.26L3592.66 1486.74ZM3549.7 1327.75H3546.7V1329.75H3549.7V1327.75Z" fill="#EEEEEE" mask="url(#path-1-outside-1_1619_38)"/>
<g filter="url(#filter1_i_1619_38)">
<line x1="517.42" y1="2073.54" x2="1550.42" y2="2062.58" stroke="#EEEEEE" stroke-width="15" stroke-linecap="round"/>
</g>
<g filter="url(#filter2_i_1619_38)">
<line x1="2758.92" y1="2062.5" x2="3762.92" y2="2051.5" stroke="#EEEEEE" stroke-width="15"/>
</g>
<mask id="path-5-outside-2_1619_38" maskUnits="userSpaceOnUse" x="1702" y="1989" width="849" height="120" fill="black">
<rect fill="white" x="1702" y="1989" width="849" height="120"/>
<path d="M1771.8 2105H1735.8V2016H1703.6V1991H1804V2016H1771.8V2105ZM1848.32 2021.8C1848.32 2024.6 1849.72 2026.8 1852.52 2028.4C1855.45 2030 1859.98 2031.73 1866.12 2033.6C1873.45 2036 1879.45 2038.33 1884.12 2040.6C1888.92 2042.87 1893.05 2046.4 1896.52 2051.2C1900.12 2056 1901.92 2062.27 1901.92 2070C1901.92 2094.8 1885.78 2107.2 1853.52 2107.2C1848.18 2107.2 1841.65 2106.73 1833.92 2105.8C1826.32 2104.87 1819.38 2103.67 1813.12 2102.2C1813.38 2099.4 1813.92 2095.33 1814.72 2090C1815.65 2084.53 1816.52 2080.47 1817.32 2077.8C1821.98 2078.47 1828.98 2079.27 1838.32 2080.2C1847.78 2081.13 1854.92 2081.6 1859.72 2081.6C1862.52 2081.6 1864.18 2081.4 1864.72 2081C1865.52 2080.47 1866.12 2079.6 1866.52 2078.4C1867.05 2077.07 1867.32 2075.93 1867.32 2075C1867.32 2072.33 1866.05 2070.33 1863.52 2069C1860.98 2067.53 1856.65 2065.8 1850.52 2063.8C1843.18 2061.53 1837.12 2059.2 1832.32 2056.8C1827.52 2054.4 1823.32 2050.67 1819.72 2045.6C1816.12 2040.53 1814.32 2033.87 1814.32 2025.6C1814.32 2019.73 1815.65 2014 1818.32 2008.4C1820.98 2002.67 1823.72 1998.8 1826.52 1996.8C1828.65 1995.33 1833.05 1993.93 1839.72 1992.6C1846.38 1991.27 1852.65 1990.6 1858.52 1990.6C1873.45 1990.6 1885.65 1992 1895.12 1994.8C1894.98 1997.47 1894.52 2001.13 1893.72 2005.8C1893.05 2010.47 1892.32 2014.73 1891.52 2018.6L1886.92 2018.4C1869.58 2017.2 1858.52 2016.6 1853.72 2016.6C1851.72 2016.6 1850.58 2016.67 1850.32 2016.8C1849.78 2017.07 1849.32 2017.67 1848.92 2018.6C1848.52 2019.53 1848.32 2020.6 1848.32 2021.8ZM1918.65 1991H1954.85V2032.8H1985.85V1991H2022.05V2105H1985.85V2055.8H1954.85V2105H1918.65V1991ZM2109.47 2105H2064.47L2035.07 1991H2073.47L2088.67 2074.8H2089.67L2105.87 1991H2143.47L2160.07 2074.8H2160.67L2176.07 1991H2212.87L2183.47 2105H2138.67L2125.07 2032.2H2123.87L2109.47 2105ZM2286.2 2080H2253L2247 2105H2210.2L2247 1991H2294L2329.2 2105H2292.2L2286.2 2080ZM2269.4 2015.6L2257.6 2057.8H2281.4L2270.2 2015.6H2269.4ZM2372.55 2059V2105H2339.15V1991H2372.95L2403.15 2037C2407.68 2043.8 2411.15 2049.53 2413.55 2054.2H2414.15V2035V1991H2447.35V2105H2413.35L2382.35 2057L2373.35 2043.4H2372.75L2372.55 2059ZM2466.08 1991H2549.08V2015H2502.08V2035.8H2541.68V2057.4H2502.08V2080.6H2548.88V2105H2466.08V1991Z"/>
</mask>
<g filter="url(#filter3_i_1619_38)">
<path d="M1771.8 2105H1735.8V2016H1703.6V1991H1804V2016H1771.8V2105ZM1848.32 2021.8C1848.32 2024.6 1849.72 2026.8 1852.52 2028.4C1855.45 2030 1859.98 2031.73 1866.12 2033.6C1873.45 2036 1879.45 2038.33 1884.12 2040.6C1888.92 2042.87 1893.05 2046.4 1896.52 2051.2C1900.12 2056 1901.92 2062.27 1901.92 2070C1901.92 2094.8 1885.78 2107.2 1853.52 2107.2C1848.18 2107.2 1841.65 2106.73 1833.92 2105.8C1826.32 2104.87 1819.38 2103.67 1813.12 2102.2C1813.38 2099.4 1813.92 2095.33 1814.72 2090C1815.65 2084.53 1816.52 2080.47 1817.32 2077.8C1821.98 2078.47 1828.98 2079.27 1838.32 2080.2C1847.78 2081.13 1854.92 2081.6 1859.72 2081.6C1862.52 2081.6 1864.18 2081.4 1864.72 2081C1865.52 2080.47 1866.12 2079.6 1866.52 2078.4C1867.05 2077.07 1867.32 2075.93 1867.32 2075C1867.32 2072.33 1866.05 2070.33 1863.52 2069C1860.98 2067.53 1856.65 2065.8 1850.52 2063.8C1843.18 2061.53 1837.12 2059.2 1832.32 2056.8C1827.52 2054.4 1823.32 2050.67 1819.72 2045.6C1816.12 2040.53 1814.32 2033.87 1814.32 2025.6C1814.32 2019.73 1815.65 2014 1818.32 2008.4C1820.98 2002.67 1823.72 1998.8 1826.52 1996.8C1828.65 1995.33 1833.05 1993.93 1839.72 1992.6C1846.38 1991.27 1852.65 1990.6 1858.52 1990.6C1873.45 1990.6 1885.65 1992 1895.12 1994.8C1894.98 1997.47 1894.52 2001.13 1893.72 2005.8C1893.05 2010.47 1892.32 2014.73 1891.52 2018.6L1886.92 2018.4C1869.58 2017.2 1858.52 2016.6 1853.72 2016.6C1851.72 2016.6 1850.58 2016.67 1850.32 2016.8C1849.78 2017.07 1849.32 2017.67 1848.92 2018.6C1848.52 2019.53 1848.32 2020.6 1848.32 2021.8ZM1918.65 1991H1954.85V2032.8H1985.85V1991H2022.05V2105H1985.85V2055.8H1954.85V2105H1918.65V1991ZM2109.47 2105H2064.47L2035.07 1991H2073.47L2088.67 2074.8H2089.67L2105.87 1991H2143.47L2160.07 2074.8H2160.67L2176.07 1991H2212.87L2183.47 2105H2138.67L2125.07 2032.2H2123.87L2109.47 2105ZM2286.2 2080H2253L2247 2105H2210.2L2247 1991H2294L2329.2 2105H2292.2L2286.2 2080ZM2269.4 2015.6L2257.6 2057.8H2281.4L2270.2 2015.6H2269.4ZM2372.55 2059V2105H2339.15V1991H2372.95L2403.15 2037C2407.68 2043.8 2411.15 2049.53 2413.55 2054.2H2414.15V2035V1991H2447.35V2105H2413.35L2382.35 2057L2373.35 2043.4H2372.75L2372.55 2059ZM2466.08 1991H2549.08V2015H2502.08V2035.8H2541.68V2057.4H2502.08V2080.6H2548.88V2105H2466.08V1991Z" fill="#D8D8D8"/>
</g>
<path d="M1771.8 2105V2106H1772.8V2105H1771.8ZM1735.8 2105H1734.8V2106H1735.8V2105ZM1735.8 2016H1736.8V2015H1735.8V2016ZM1703.6 2016H1702.6V2017H1703.6V2016ZM1703.6 1991V1990H1702.6V1991H1703.6ZM1804 1991H1805V1990H1804V1991ZM1804 2016V2017H1805V2016H1804ZM1771.8 2016V2015H1770.8V2016H1771.8ZM1771.8 2104H1735.8V2106H1771.8V2104ZM1736.8 2105V2016H1734.8V2105H1736.8ZM1735.8 2015H1703.6V2017H1735.8V2015ZM1704.6 2016V1991H1702.6V2016H1704.6ZM1703.6 1992H1804V1990H1703.6V1992ZM1803 1991V2016H1805V1991H1803ZM1804 2015H1771.8V2017H1804V2015ZM1770.8 2016V2105H1772.8V2016H1770.8ZM1852.52 2028.4L1852.02 2029.27L1852.03 2029.27L1852.04 2029.28L1852.52 2028.4ZM1866.12 2033.6L1866.43 2032.65L1866.42 2032.65L1866.41 2032.64L1866.12 2033.6ZM1884.12 2040.6L1883.68 2041.5L1883.69 2041.5L1884.12 2040.6ZM1896.52 2051.2L1895.7 2051.79L1895.71 2051.79L1895.72 2051.8L1896.52 2051.2ZM1833.92 2105.8L1833.79 2106.79L1833.8 2106.79L1833.92 2105.8ZM1813.12 2102.2L1812.12 2102.11L1812.04 2102.97L1812.89 2103.17L1813.12 2102.2ZM1814.72 2090L1813.73 2089.83L1813.73 2089.84L1813.73 2089.85L1814.72 2090ZM1817.32 2077.8L1817.46 2076.81L1816.61 2076.69L1816.36 2077.51L1817.32 2077.8ZM1838.32 2080.2L1838.22 2081.2L1838.22 2081.2L1838.32 2080.2ZM1864.72 2081L1864.16 2080.17L1864.14 2080.18L1864.12 2080.2L1864.72 2081ZM1866.52 2078.4L1865.59 2078.03L1865.58 2078.06L1865.57 2078.08L1866.52 2078.4ZM1863.52 2069L1863.01 2069.87L1863.03 2069.88L1863.05 2069.88L1863.52 2069ZM1850.52 2063.8L1850.83 2062.85L1850.82 2062.85L1850.81 2062.84L1850.52 2063.8ZM1832.32 2056.8L1832.76 2055.91L1832.76 2055.91L1832.32 2056.8ZM1819.72 2045.6L1820.53 2045.02L1820.53 2045.02L1819.72 2045.6ZM1818.32 2008.4L1819.22 2008.83L1819.22 2008.82L1818.32 2008.4ZM1826.52 1996.8L1825.95 1995.98L1825.94 1995.98L1825.93 1995.99L1826.52 1996.8ZM1839.72 1992.6L1839.52 1991.62L1839.52 1991.62L1839.72 1992.6ZM1895.12 1994.8L1896.11 1994.85L1896.15 1994.06L1895.4 1993.84L1895.12 1994.8ZM1893.72 2005.8L1892.73 2005.63L1892.73 2005.64L1892.73 2005.66L1893.72 2005.8ZM1891.52 2018.6L1891.47 2019.6L1892.32 2019.64L1892.49 2018.8L1891.52 2018.6ZM1886.92 2018.4L1886.85 2019.4L1886.86 2019.4L1886.87 2019.4L1886.92 2018.4ZM1850.32 2016.8L1850.76 2017.69L1850.76 2017.69L1850.32 2016.8ZM1848.92 2018.6L1848 2018.21L1848 2018.21L1848.92 2018.6ZM1847.32 2021.8C1847.32 2025.02 1848.96 2027.52 1852.02 2029.27L1853.01 2027.53C1850.47 2026.08 1849.32 2024.18 1849.32 2021.8H1847.32ZM1852.04 2029.28C1855.06 2030.93 1859.67 2032.68 1865.82 2034.56L1866.41 2032.64C1860.29 2030.78 1855.84 2029.07 1852.99 2027.52L1852.04 2029.28ZM1865.8 2034.55C1873.11 2036.94 1879.07 2039.26 1883.68 2041.5L1884.55 2039.7C1879.83 2037.41 1873.78 2035.06 1866.43 2032.65L1865.8 2034.55ZM1883.69 2041.5C1888.32 2043.69 1892.33 2047.11 1895.7 2051.79L1897.33 2050.61C1893.77 2045.69 1889.51 2042.04 1884.54 2039.7L1883.69 2041.5ZM1895.72 2051.8C1899.15 2056.38 1900.92 2062.42 1900.92 2070H1902.92C1902.92 2062.11 1901.08 2055.62 1897.32 2050.6L1895.72 2051.8ZM1900.92 2070C1900.92 2082.17 1896.97 2091.14 1889.21 2097.11C1881.39 2103.11 1869.55 2106.2 1853.52 2106.2V2108.2C1869.75 2108.2 1882.11 2105.09 1890.43 2098.69C1898.79 2092.26 1902.92 2082.63 1902.92 2070H1900.92ZM1853.52 2106.2C1848.24 2106.2 1841.75 2105.74 1834.04 2104.81L1833.8 2106.79C1841.55 2107.73 1848.13 2108.2 1853.52 2108.2V2106.2ZM1834.04 2104.81C1826.47 2103.88 1819.57 2102.68 1813.34 2101.23L1812.89 2103.17C1819.2 2104.65 1826.16 2105.86 1833.79 2106.79L1834.04 2104.81ZM1814.11 2102.29C1814.38 2099.52 1814.91 2095.48 1815.7 2090.15L1813.73 2089.85C1812.93 2095.19 1812.39 2099.28 1812.12 2102.11L1814.11 2102.29ZM1815.7 2090.17C1816.63 2084.71 1817.49 2080.69 1818.27 2078.09L1816.36 2077.51C1815.54 2080.24 1814.66 2084.36 1813.73 2089.83L1815.7 2090.17ZM1817.17 2078.79C1821.86 2079.46 1828.88 2080.26 1838.22 2081.2L1838.42 2079.2C1829.08 2078.27 1822.1 2077.47 1817.46 2076.81L1817.17 2078.79ZM1838.22 2081.2C1847.69 2082.13 1854.86 2082.6 1859.72 2082.6V2080.6C1854.97 2080.6 1847.87 2080.14 1838.41 2079.2L1838.22 2081.2ZM1859.72 2082.6C1861.13 2082.6 1862.29 2082.55 1863.18 2082.44C1863.63 2082.39 1864.03 2082.32 1864.37 2082.23C1864.69 2082.14 1865.03 2082.01 1865.32 2081.8L1864.12 2080.2C1864.13 2080.19 1864.07 2080.24 1863.84 2080.3C1863.63 2080.36 1863.33 2080.41 1862.95 2080.46C1862.17 2080.55 1861.1 2080.6 1859.72 2080.6V2082.6ZM1865.27 2081.83C1866.31 2081.14 1867.02 2080.06 1867.46 2078.72L1865.57 2078.08C1865.22 2079.14 1864.72 2079.79 1864.16 2080.17L1865.27 2081.83ZM1867.44 2078.77C1868 2077.38 1868.32 2076.11 1868.32 2075H1866.32C1866.32 2075.76 1866.1 2076.76 1865.59 2078.03L1867.44 2078.77ZM1868.32 2075C1868.32 2073.5 1867.96 2072.14 1867.21 2070.96C1866.47 2069.79 1865.37 2068.85 1863.98 2068.12L1863.05 2069.88C1864.19 2070.49 1865 2071.21 1865.52 2072.04C1866.04 2072.86 1866.32 2073.83 1866.32 2075H1868.32ZM1864.02 2068.13C1861.39 2066.61 1856.97 2064.85 1850.83 2062.85L1850.21 2064.75C1856.33 2066.75 1860.58 2068.46 1863.01 2069.87L1864.02 2068.13ZM1850.81 2062.84C1843.51 2060.59 1837.5 2058.27 1832.76 2055.91L1831.87 2057.69C1836.73 2060.13 1842.85 2062.48 1850.22 2064.76L1850.81 2062.84ZM1832.76 2055.91C1828.13 2053.59 1824.05 2049.98 1820.53 2045.02L1818.9 2046.18C1822.58 2051.36 1826.9 2055.21 1831.87 2057.69L1832.76 2055.91ZM1820.53 2045.02C1817.09 2040.17 1815.32 2033.73 1815.32 2025.6H1813.32C1813.32 2034.01 1815.15 2040.9 1818.9 2046.18L1820.53 2045.02ZM1815.32 2025.6C1815.32 2019.89 1816.61 2014.3 1819.22 2008.83L1817.41 2007.97C1814.69 2013.7 1813.32 2019.58 1813.32 2025.6H1815.32ZM1819.22 2008.82C1821.87 2003.13 1824.51 1999.46 1827.1 1997.61L1825.93 1995.99C1822.92 1998.14 1820.1 2002.2 1817.41 2007.98L1819.22 2008.82ZM1827.08 1997.62C1828.03 1996.97 1829.55 1996.29 1831.72 1995.6C1833.87 1994.92 1836.6 1994.24 1839.91 1993.58L1839.52 1991.62C1836.17 1992.29 1833.36 1992.98 1831.11 1993.7C1828.88 1994.41 1827.14 1995.16 1825.95 1995.98L1827.08 1997.62ZM1839.91 1993.58C1846.52 1992.26 1852.72 1991.6 1858.52 1991.6V1989.6C1852.57 1989.6 1846.24 1990.28 1839.52 1991.62L1839.91 1993.58ZM1858.52 1991.6C1873.4 1991.6 1885.49 1993 1894.83 1995.76L1895.4 1993.84C1885.81 1991 1873.5 1989.6 1858.52 1989.6V1991.6ZM1894.12 1994.75C1893.99 1997.36 1893.53 2000.98 1892.73 2005.63L1894.7 2005.97C1895.5 2001.29 1895.98 1997.58 1896.11 1994.85L1894.12 1994.75ZM1892.73 2005.66C1892.06 2010.31 1891.33 2014.55 1890.54 2018.4L1892.49 2018.8C1893.3 2014.91 1894.04 2010.62 1894.71 2005.94L1892.73 2005.66ZM1891.56 2017.6L1886.96 2017.4L1886.87 2019.4L1891.47 2019.6L1891.56 2017.6ZM1886.98 2017.4C1869.66 2016.2 1858.56 2015.6 1853.72 2015.6V2017.6C1858.47 2017.6 1869.5 2018.2 1886.85 2019.4L1886.98 2017.4ZM1853.72 2015.6C1852.71 2015.6 1851.9 2015.62 1851.31 2015.65C1851.01 2015.67 1850.75 2015.69 1850.54 2015.72C1850.36 2015.75 1850.09 2015.79 1849.87 2015.91L1850.76 2017.69C1850.67 2017.74 1850.64 2017.73 1850.82 2017.7C1850.96 2017.68 1851.15 2017.66 1851.42 2017.65C1851.96 2017.62 1852.72 2017.6 1853.72 2017.6V2015.6ZM1849.87 2015.91C1849.02 2016.33 1848.43 2017.2 1848 2018.21L1849.83 2018.99C1850.2 2018.14 1850.55 2017.8 1850.76 2017.69L1849.87 2015.91ZM1848 2018.21C1847.53 2019.28 1847.32 2020.49 1847.32 2021.8H1849.32C1849.32 2020.71 1849.5 2019.78 1849.83 2018.99L1848 2018.21ZM1918.65 1991V1990H1917.65V1991H1918.65ZM1954.85 1991H1955.85V1990H1954.85V1991ZM1954.85 2032.8H1953.85V2033.8H1954.85V2032.8ZM1985.85 2032.8V2033.8H1986.85V2032.8H1985.85ZM1985.85 1991V1990H1984.85V1991H1985.85ZM2022.05 1991H2023.05V1990H2022.05V1991ZM2022.05 2105V2106H2023.05V2105H2022.05ZM1985.85 2105H1984.85V2106H1985.85V2105ZM1985.85 2055.8H1986.85V2054.8H1985.85V2055.8ZM1954.85 2055.8V2054.8H1953.85V2055.8H1954.85ZM1954.85 2105V2106H1955.85V2105H1954.85ZM1918.65 2105H1917.65V2106H1918.65V2105ZM1918.65 1992H1954.85V1990H1918.65V1992ZM1953.85 1991V2032.8H1955.85V1991H1953.85ZM1954.85 2033.8H1985.85V2031.8H1954.85V2033.8ZM1986.85 2032.8V1991H1984.85V2032.8H1986.85ZM1985.85 1992H2022.05V1990H1985.85V1992ZM2021.05 1991V2105H2023.05V1991H2021.05ZM2022.05 2104H1985.85V2106H2022.05V2104ZM1986.85 2105V2055.8H1984.85V2105H1986.85ZM1985.85 2054.8H1954.85V2056.8H1985.85V2054.8ZM1953.85 2055.8V2105H1955.85V2055.8H1953.85ZM1954.85 2104H1918.65V2106H1954.85V2104ZM1919.65 2105V1991H1917.65V2105H1919.65ZM2109.47 2105V2106H2110.3L2110.45 2105.19L2109.47 2105ZM2064.47 2105L2063.51 2105.25L2063.7 2106H2064.47V2105ZM2035.07 1991V1990H2033.78L2034.11 1991.25L2035.07 1991ZM2073.47 1991L2074.46 1990.82L2074.31 1990H2073.47V1991ZM2088.67 2074.8L2087.69 2074.98L2087.84 2075.8H2088.67V2074.8ZM2089.67 2074.8V2075.8H2090.5L2090.66 2074.99L2089.67 2074.8ZM2105.87 1991V1990H2105.05L2104.89 1990.81L2105.87 1991ZM2143.47 1991L2144.45 1990.81L2144.29 1990H2143.47V1991ZM2160.07 2074.8L2159.09 2074.99L2159.25 2075.8H2160.07V2074.8ZM2160.67 2074.8V2075.8H2161.51L2161.66 2074.98L2160.67 2074.8ZM2176.07 1991V1990H2175.24L2175.09 1990.82L2176.07 1991ZM2212.87 1991L2213.84 1991.25L2214.16 1990H2212.87V1991ZM2183.47 2105V2106H2184.25L2184.44 2105.25L2183.47 2105ZM2138.67 2105L2137.69 2105.18L2137.84 2106H2138.67V2105ZM2125.07 2032.2L2126.06 2032.02L2125.9 2031.2H2125.07V2032.2ZM2123.87 2032.2V2031.2H2123.05L2122.89 2032.01L2123.87 2032.2ZM2109.47 2104H2064.47V2106H2109.47V2104ZM2065.44 2104.75L2036.04 1990.75L2034.11 1991.25L2063.51 2105.25L2065.44 2104.75ZM2035.07 1992H2073.47V1990H2035.07V1992ZM2072.49 1991.18L2087.69 2074.98L2089.66 2074.62L2074.46 1990.82L2072.49 1991.18ZM2088.67 2075.8H2089.67V2073.8H2088.67V2075.8ZM2090.66 2074.99L2106.86 1991.19L2104.89 1990.81L2088.69 2074.61L2090.66 2074.99ZM2105.87 1992H2143.47V1990H2105.87V1992ZM2142.49 1991.19L2159.09 2074.99L2161.05 2074.61L2144.45 1990.81L2142.49 1991.19ZM2160.07 2075.8H2160.67V2073.8H2160.07V2075.8ZM2161.66 2074.98L2177.06 1991.18L2175.09 1990.82L2159.69 2074.62L2161.66 2074.98ZM2176.07 1992H2212.87V1990H2176.07V1992ZM2211.91 1990.75L2182.51 2104.75L2184.44 2105.25L2213.84 1991.25L2211.91 1990.75ZM2183.47 2104H2138.67V2106H2183.47V2104ZM2139.66 2104.82L2126.06 2032.02L2124.09 2032.38L2137.69 2105.18L2139.66 2104.82ZM2125.07 2031.2H2123.87V2033.2H2125.07V2031.2ZM2122.89 2032.01L2108.49 2104.81L2110.45 2105.19L2124.85 2032.39L2122.89 2032.01ZM2286.2 2080L2287.18 2079.77L2286.99 2079H2286.2V2080ZM2253 2080V2079H2252.21L2252.03 2079.77L2253 2080ZM2247 2105V2106H2247.79L2247.98 2105.23L2247 2105ZM2210.2 2105L2209.25 2104.69L2208.83 2106H2210.2V2105ZM2247 1991V1990H2246.28L2246.05 1990.69L2247 1991ZM2294 1991L2294.96 1990.7L2294.74 1990H2294V1991ZM2329.2 2105V2106H2330.56L2330.16 2104.7L2329.2 2105ZM2292.2 2105L2291.23 2105.23L2291.41 2106H2292.2V2105ZM2269.4 2015.6V2014.6H2268.64L2268.44 2015.33L2269.4 2015.6ZM2257.6 2057.8L2256.64 2057.53L2256.29 2058.8H2257.6V2057.8ZM2281.4 2057.8V2058.8H2282.7L2282.37 2057.54L2281.4 2057.8ZM2270.2 2015.6L2271.17 2015.34L2270.97 2014.6H2270.2V2015.6ZM2286.2 2079H2253V2081H2286.2V2079ZM2252.03 2079.77L2246.03 2104.77L2247.98 2105.23L2253.98 2080.23L2252.03 2079.77ZM2247 2104H2210.2V2106H2247V2104ZM2211.15 2105.31L2247.95 1991.31L2246.05 1990.69L2209.25 2104.69L2211.15 2105.31ZM2247 1992H2294V1990H2247V1992ZM2293.05 1991.3L2328.25 2105.3L2330.16 2104.7L2294.96 1990.7L2293.05 1991.3ZM2329.2 2104H2292.2V2106H2329.2V2104ZM2293.18 2104.77L2287.18 2079.77L2285.23 2080.23L2291.23 2105.23L2293.18 2104.77ZM2268.44 2015.33L2256.64 2057.53L2258.57 2058.07L2270.37 2015.87L2268.44 2015.33ZM2257.6 2058.8H2281.4V2056.8H2257.6V2058.8ZM2282.37 2057.54L2271.17 2015.34L2269.24 2015.86L2280.44 2058.06L2282.37 2057.54ZM2270.2 2014.6H2269.4V2016.6H2270.2V2014.6ZM2372.55 2059L2371.55 2058.99V2059H2372.55ZM2372.55 2105V2106H2373.55V2105H2372.55ZM2339.15 2105H2338.15V2106H2339.15V2105ZM2339.15 1991V1990H2338.15V1991H2339.15ZM2372.95 1991L2373.78 1990.45L2373.49 1990H2372.95V1991ZM2403.15 2037L2402.31 2037.55L2402.32 2037.55L2403.15 2037ZM2413.55 2054.2L2412.66 2054.66L2412.94 2055.2H2413.55V2054.2ZM2414.15 2054.2V2055.2H2415.15V2054.2H2414.15ZM2414.15 1991V1990H2413.15V1991H2414.15ZM2447.35 1991H2448.35V1990H2447.35V1991ZM2447.35 2105V2106H2448.35V2105H2447.35ZM2413.35 2105L2412.51 2105.54L2412.8 2106H2413.35V2105ZM2382.35 2057L2383.19 2056.46L2383.18 2056.45L2382.35 2057ZM2373.35 2043.4L2374.18 2042.85L2373.89 2042.4H2373.35V2043.4ZM2372.75 2043.4V2042.4H2371.76L2371.75 2043.39L2372.75 2043.4ZM2371.55 2059V2105H2373.55V2059H2371.55ZM2372.55 2104H2339.15V2106H2372.55V2104ZM2340.15 2105V1991H2338.15V2105H2340.15ZM2339.15 1992H2372.95V1990H2339.15V1992ZM2372.11 1991.55L2402.31 2037.55L2403.98 2036.45L2373.78 1990.45L2372.11 1991.55ZM2402.32 2037.55C2406.84 2044.34 2410.28 2050.04 2412.66 2054.66L2414.44 2053.74C2412.01 2049.03 2408.52 2043.26 2403.98 2036.45L2402.32 2037.55ZM2413.55 2055.2H2414.15V2053.2H2413.55V2055.2ZM2415.15 2054.2V2035H2413.15V2054.2H2415.15ZM2415.15 2035V1991H2413.15V2035H2415.15ZM2414.15 1992H2447.35V1990H2414.15V1992ZM2446.35 1991V2105H2448.35V1991H2446.35ZM2447.35 2104H2413.35V2106H2447.35V2104ZM2414.19 2104.46L2383.19 2056.46L2381.51 2057.54L2412.51 2105.54L2414.19 2104.46ZM2383.18 2056.45L2374.18 2042.85L2372.51 2043.95L2381.51 2057.55L2383.18 2056.45ZM2373.35 2042.4H2372.75V2044.4H2373.35V2042.4ZM2371.75 2043.39L2371.55 2058.99L2373.55 2059.01L2373.75 2043.41L2371.75 2043.39ZM2466.08 1991V1990H2465.08V1991H2466.08ZM2549.08 1991H2550.08V1990H2549.08V1991ZM2549.08 2015V2016H2550.08V2015H2549.08ZM2502.08 2015V2014H2501.08V2015H2502.08ZM2502.08 2035.8H2501.08V2036.8H2502.08V2035.8ZM2541.68 2035.8H2542.68V2034.8H2541.68V2035.8ZM2541.68 2057.4V2058.4H2542.68V2057.4H2541.68ZM2502.08 2057.4V2056.4H2501.08V2057.4H2502.08ZM2502.08 2080.6H2501.08V2081.6H2502.08V2080.6ZM2548.88 2080.6H2549.88V2079.6H2548.88V2080.6ZM2548.88 2105V2106H2549.88V2105H2548.88ZM2466.08 2105H2465.08V2106H2466.08V2105ZM2466.08 1992H2549.08V1990H2466.08V1992ZM2548.08 1991V2015H2550.08V1991H2548.08ZM2549.08 2014H2502.08V2016H2549.08V2014ZM2501.08 2015V2035.8H2503.08V2015H2501.08ZM2502.08 2036.8H2541.68V2034.8H2502.08V2036.8ZM2540.68 2035.8V2057.4H2542.68V2035.8H2540.68ZM2541.68 2056.4H2502.08V2058.4H2541.68V2056.4ZM2501.08 2057.4V2080.6H2503.08V2057.4H2501.08ZM2502.08 2081.6H2548.88V2079.6H2502.08V2081.6ZM2547.88 2080.6V2105H2549.88V2080.6H2547.88ZM2548.88 2104H2466.08V2106H2548.88V2104ZM2467.08 2105V1991H2465.08V2105H2467.08Z" fill="#EEEEEE" mask="url(#path-5-outside-2_1619_38)"/>
<defs>
<filter id="filter0_i_1619_38" x="548.25" y="1235" width="3222.7" height="441.25" filterUnits="userSpaceOnUse" color-interpolation-filters="sRGB">
<feFlood flood-opacity="0" result="BackgroundImageFix"/>
<feBlend mode="normal" in="SourceGraphic" in2="BackgroundImageFix" result="shape"/>
<feColorMatrix in="SourceAlpha" type="matrix" values="0 0 0 0 0 0 0 0 0 0 0 0 0 0 0 0 0 0 127 0" result="hardAlpha"/>
<feOffset dy="4"/>
<feGaussianBlur stdDeviation="2"/>
<feComposite in2="hardAlpha" operator="arithmetic" k2="-1" k3="1"/>
<feColorMatrix type="matrix" values="0 0 0 0 0 0 0 0 0 0 0 0 0 0 0 0 0 0 0.25 0"/>
<feBlend mode="normal" in2="shape" result="effect1_innerShadow_1619_38"/>
</filter>
<filter id="filter1_i_1619_38" x="509.922" y="2055.08" width="1048" height="29.957" filterUnits="userSpaceOnUse" color-interpolation-filters="sRGB">
<feFlood flood-opacity="0" result="BackgroundImageFix"/>
<feBlend mode="normal" in="SourceGraphic" in2="BackgroundImageFix" result="shape"/>
<feColorMatrix in="SourceAlpha" type="matrix" values="0 0 0 0 0 0 0 0 0 0 0 0 0 0 0 0 0 0 127 0" result="hardAlpha"/>
<feOffset dy="4"/>
<feGaussianBlur stdDeviation="2"/>
<feComposite in2="hardAlpha" operator="arithmetic" k2="-1" k3="1"/>
<feColorMatrix type="matrix" values="0 0 0 0 0 0 0 0 0 0 0 0 0 0 0 0 0 0 0.25 0"/>
<feBlend mode="normal" in2="shape" result="effect1_innerShadow_1619_38"/>
</filter>
<filter id="filter2_i_1619_38" x="2758.84" y="2044" width="1004.16" height="30" filterUnits="userSpaceOnUse" color-interpolation-filters="sRGB">
<feFlood flood-opacity="0" result="BackgroundImageFix"/>
<feBlend mode="normal" in="SourceGraphic" in2="BackgroundImageFix" result="shape"/>
<feColorMatrix in="SourceAlpha" type="matrix" values="0 0 0 0 0 0 0 0 0 0 0 0 0 0 0 0 0 0 127 0" result="hardAlpha"/>
<feOffset dy="4"/>
<feGaussianBlur stdDeviation="2"/>
<feComposite in2="hardAlpha" operator="arithmetic" k2="-1" k3="1"/>
<feColorMatrix type="matrix" values="0 0 0 0 0 0 0 0 0 0 0 0 0 0 0 0 0 0 0.25 0"/>
<feBlend mode="normal" in2="shape" result="effect1_innerShadow_1619_38"/>
</filter>
<filter id="filter3_i_1619_38" x="1703.6" y="1990.6" width="845.477" height="120.598" filterUnits="userSpaceOnUse" color-interpolation-filters="sRGB">
<feFlood flood-opacity="0" result="BackgroundImageFix"/>
<feBlend mode="normal" in="SourceGraphic" in2="BackgroundImageFix" result="shape"/>
<feColorMatrix in="SourceAlpha" type="matrix" values="0 0 0 0 0 0 0 0 0 0 0 0 0 0 0 0 0 0 127 0" result="hardAlpha"/>
<feOffset dy="4"/>
<feGaussianBlur stdDeviation="2"/>
<feComposite in2="hardAlpha" operator="arithmetic" k2="-1" k3="1"/>
<feColorMatrix type="matrix" values="0 0 0 0 0 0 0 0 0 0 0 0 0 0 0 0 0 0 0.25 0"/>
<feBlend mode="normal" in2="shape" result="effect1_innerShadow_1619_38"/>
</filter>
</defs>
</svg>
