<svg width="1390" height="814" viewBox="0 0 1390 814" fill="none" xmlns="http://www.w3.org/2000/svg">
<rect width="1390" height="814" fill="white"/>
<path d="M557.25 317.9C557.25 324.05 557.7 330.35 557.1 336.5C556.2 345.95 552.15 354.05 544.35 360.05C538.95 364.1 532.95 366.05 526.35 366.05C521.1 366.05 516 364.4 511.65 361.7C506.4 358.55 504.45 353.3 504 347.45C503.4 338 507 329.6 510.9 321.35C514.8 312.8 518.7 304.1 520.8 294.95C522 289.55 522.3 284.45 518.4 280.1C516.6 278.15 514.2 276.35 511.65 275.3C508.8 274.1 505.95 275.6 504.6 278.6C502.2 283.7 501.15 289.1 502.2 294.5C503.25 299.75 504.9 304.7 506.7 309.65C509.55 317.45 508.5 324.2 503.25 330.5C498.15 336.65 492 338.45 484.35 337.85C479.7 337.55 475.65 336.5 471.75 334.4C466.8 331.85 463.8 327.95 463.2 322.25C462.45 316.85 463.8 311.75 464.1 306.35C464.7 297.95 465 289.4 460.8 281.75C459.75 279.95 458.25 278.3 456.6 277.25C453.3 275.6 449.7 277.1 447.75 280.7C445.5 284.6 445.65 288.95 446.4 293.15C447 297.2 448.35 301.1 449.85 304.85C450.75 307.25 452.7 309.05 454.05 311.3C457.35 317.15 460.8 323.3 461.7 330.2C462.3 335.15 461.7 340.1 460.35 345.05C457.95 354.35 451.35 359.6 443.1 362.75C435 365.75 426.6 366.5 418.5 362.3C411.15 358.55 407.1 352.7 407.1 344.45C407.25 336.95 408.3 329.3 408.9 321.65C409.35 317 409.65 312.2 410.1 307.4C411.15 298.4 409.05 289.7 407.4 281C406.35 275.6 406.2 269.9 408.3 264.65C410.1 259.7 413.4 255.95 419.1 256.25C421.65 256.4 424.5 257.45 426.6 258.95C430.95 261.95 432.6 262.25 436.2 258.35C440.55 253.55 445.5 249.5 451.95 247.55C460.05 245.15 467.7 246.8 474.45 251.9C477.45 254 480 256.7 482.55 259.1C486.75 263.15 489.45 263.3 494.55 258.65C501.45 252.5 508.8 247.25 517.95 244.85C525.75 242.9 533.25 242.9 540.15 247.7C545.4 251.45 548.55 256.85 550.35 263C552.15 269.15 553.5 275.6 554.55 281.9C555.3 285.95 555.3 290.15 555.75 294.2C556.2 299.75 556.8 305.15 557.1 310.7C557.25 313.1 557.25 315.5 557.25 317.9ZM580.348 300.5C577.198 298.55 574.198 297.05 571.648 294.8C567.298 291.2 567.298 286.1 567.748 281.15C569.098 268.1 576.148 258.35 586.198 250.7C598.648 241.25 612.598 236.6 628.348 239.75C642.148 242.6 650.848 253.4 650.398 266.9C650.398 269.45 649.948 272.15 649.348 274.55C647.998 279.5 641.548 283.7 635.698 284C626.248 284.6 618.448 281.15 611.248 275.3C608.848 273.35 605.848 271.85 602.848 270.8C600.298 269.9 596.848 271.4 596.098 273.2C595.198 275.15 596.848 278.9 599.548 280.25C601.498 281.15 603.748 281.6 605.848 282.35C608.248 283.1 610.648 283.85 612.898 284.9C617.848 287 620.998 292.55 618.448 298.85C615.298 306.65 609.898 312.8 603.148 317.75C601.948 318.65 600.298 318.8 599.098 319.7C598.348 320.15 597.298 321.35 597.448 322.1C597.448 322.85 598.948 324.2 599.548 324.05C602.398 323.45 605.548 323 607.798 321.35C614.548 316.55 620.398 310.4 623.548 302.75C625.348 297.95 628.798 296.75 632.998 295.85C642.598 293.75 653.098 301.7 655.348 312.05C658.198 324.8 655.198 336.05 646.798 345.8C639.298 354.8 629.548 360.65 618.298 363.2C607.198 365.75 596.248 365.15 585.898 360.05C578.398 356.45 572.548 350.9 568.498 343.7C565.648 338.9 565.498 333.5 565.798 328.1C566.098 321.95 567.448 316.1 571.198 311C573.598 307.7 576.298 304.7 578.998 301.55C579.298 300.95 580.048 300.8 580.348 300.5ZM679.593 245C685.143 245.75 690.693 246.35 696.093 247.4C704.793 248.9 713.043 248.6 721.143 245.15C730.743 241.1 740.493 240.2 750.543 243.5C754.743 244.85 758.643 246.35 762.243 249.05C765.543 251.45 768.093 258.2 767.043 262.25C766.143 265.55 765.243 268.85 762.993 271.55C758.793 276.95 753.393 279.05 746.643 278.3C743.493 277.85 740.343 277.4 737.043 277.1C735.093 276.95 733.893 277.55 734.043 279.95C734.193 285.05 736.593 289.1 738.843 293.3C741.843 299 745.443 304.4 747.993 310.25C752.793 321.5 753.093 333.2 747.993 344.45C744.843 351.5 739.443 356.75 731.793 358.85C727.743 360.2 723.393 361.25 719.193 361.25C711.393 361.25 703.593 359.9 697.443 354.65C692.193 350.15 690.543 343.7 690.543 337.1C690.393 331.7 691.293 326.3 692.043 320.9C693.693 309.8 695.643 298.85 697.293 287.75C697.443 287.15 697.443 286.4 697.293 285.8C696.543 281.9 695.793 281.45 692.043 283.1C685.743 285.95 679.293 286.4 672.843 283.85C661.893 279.65 656.343 270.5 660.693 257.6C663.093 250.1 670.293 245 679.593 245ZM779.273 300.5C776.123 298.55 773.123 297.05 770.573 294.8C766.223 291.2 766.223 286.1 766.673 281.15C768.023 268.1 775.073 258.35 785.123 250.7C797.573 241.25 811.523 236.6 827.273 239.75C841.073 242.6 849.773 253.4 849.323 266.9C849.323 269.45 848.873 272.15 848.273 274.55C846.923 279.5 840.473 283.7 834.623 284C825.173 284.6 817.373 281.15 810.173 275.3C807.773 273.35 804.773 271.85 801.773 270.8C799.223 269.9 795.773 271.4 795.023 273.2C794.123 275.15 795.773 278.9 798.473 280.25C800.423 281.15 802.673 281.6 804.773 282.35C807.173 283.1 809.573 283.85 811.823 284.9C816.773 287 819.923 292.55 817.373 298.85C814.223 306.65 808.823 312.8 802.073 317.75C800.873 318.65 799.223 318.8 798.023 319.7C797.273 320.15 796.223 321.35 796.373 322.1C796.373 322.85 797.873 324.2 798.473 324.05C801.323 323.45 804.473 323 806.723 321.35C813.473 316.55 819.323 310.4 822.473 302.75C824.273 297.95 827.723 296.75 831.923 295.85C841.523 293.75 852.023 301.7 854.273 312.05C857.123 324.8 854.123 336.05 845.723 345.8C838.223 354.8 828.473 360.65 817.223 363.2C806.123 365.75 795.173 365.15 784.823 360.05C777.323 356.45 771.473 350.9 767.423 343.7C764.573 338.9 764.423 333.5 764.723 328.1C765.023 321.95 766.373 316.1 770.123 311C772.523 307.7 775.223 304.7 777.923 301.55C778.223 300.95 778.973 300.8 779.273 300.5ZM928.069 308.15C931.819 313.25 936.919 313.7 942.019 313.7C947.269 313.85 952.369 314.6 956.719 317.75C960.319 320.45 964.369 323.15 964.969 327.95C966.169 335.75 965.269 343.25 959.869 349.7C952.969 358.25 943.669 359.3 933.919 357.2C921.919 354.65 912.919 347.9 908.419 336.05C908.419 335.75 908.119 335.45 908.119 335.6C907.969 339.35 908.119 343.55 907.519 347.6C906.769 354.05 901.069 359 894.619 360.05C889.819 360.65 885.169 360.2 880.819 358.55C872.569 355.4 868.369 347.3 868.969 338.45C869.419 332.15 869.869 326 871.069 319.85C873.169 308.9 873.619 297.95 873.469 287C873.319 280.7 873.169 274.55 872.719 268.4C872.419 263.9 871.519 259.4 870.769 254.9C870.769 254.45 870.619 253.85 870.769 253.55C872.719 251 874.369 248.15 876.619 246.05C879.169 243.8 882.619 243.95 885.769 244.85C892.069 246.65 897.769 245.45 903.619 242.6C906.619 241.1 910.219 240.8 913.519 240.05C919.969 238.55 926.269 239.75 932.569 241.4C941.869 243.95 949.369 248.75 953.869 257.6C958.369 266.6 958.069 275.6 953.569 284.3C949.669 292.25 943.969 298.85 936.169 303.2C933.469 304.85 930.769 306.5 928.069 308.15ZM921.469 262.85C919.369 260 916.219 259.55 913.669 259.4C907.969 259.4 904.519 262.25 903.319 267.65C903.019 268.7 903.319 270.8 903.919 271.1C904.969 271.7 906.769 271.4 907.819 270.8C909.619 269.75 911.269 269.45 913.219 270.2C914.269 270.5 915.319 270.95 916.369 271.1C918.619 271.7 920.719 271.55 922.069 269.3C923.269 267.05 922.819 264.95 921.469 262.85ZM996.784 316.1C993.484 315.65 988.384 315.2 983.284 314.15C974.584 312.35 969.784 305.15 972.334 295.55C974.434 287.6 981.334 282.95 988.084 283.1C997.684 283.25 1007.28 282.5 1016.73 283.25C1025.88 284.15 1034.58 290.3 1032.93 301.85C1032.18 306.65 1029.03 310.1 1024.68 311.75C1020.48 313.25 1015.98 314.45 1011.63 315.2C1007.43 315.8 1003.08 315.65 996.784 316.1ZM557.25 467.9C557.25 474.05 557.7 480.35 557.1 486.5C556.2 495.95 552.15 504.05 544.35 510.05C538.95 514.1 532.95 516.05 526.35 516.05C521.1 516.05 516 514.4 511.65 511.7C506.4 508.55 504.45 503.3 504 497.45C503.4 488 507 479.6 510.9 471.35C514.8 462.8 518.7 454.1 520.8 444.95C522 439.55 522.3 434.45 518.4 430.1C516.6 428.15 514.2 426.35 511.65 425.3C508.8 424.1 505.95 425.6 504.6 428.6C502.2 433.7 501.15 439.1 502.2 444.5C503.25 449.75 504.9 454.7 506.7 459.65C509.55 467.45 508.5 474.2 503.25 480.5C498.15 486.65 492 488.45 484.35 487.85C479.7 487.55 475.65 486.5 471.75 484.4C466.8 481.85 463.8 477.95 463.2 472.25C462.45 466.85 463.8 461.75 464.1 456.35C464.7 447.95 465 439.4 460.8 431.75C459.75 429.95 458.25 428.3 456.6 427.25C453.3 425.6 449.7 427.1 447.75 430.7C445.5 434.6 445.65 438.95 446.4 443.15C447 447.2 448.35 451.1 449.85 454.85C450.75 457.25 452.7 459.05 454.05 461.3C457.35 467.15 460.8 473.3 461.7 480.2C462.3 485.15 461.7 490.1 460.35 495.05C457.95 504.35 451.35 509.6 443.1 512.75C435 515.75 426.6 516.5 418.5 512.3C411.15 508.55 407.1 502.7 407.1 494.45C407.25 486.95 408.3 479.3 408.9 471.65C409.35 467 409.65 462.2 410.1 457.4C411.15 448.4 409.05 439.7 407.4 431C406.35 425.6 406.2 419.9 408.3 414.65C410.1 409.7 413.4 405.95 419.1 406.25C421.65 406.4 424.5 407.45 426.6 408.95C430.95 411.95 432.6 412.25 436.2 408.35C440.55 403.55 445.5 399.5 451.95 397.55C460.05 395.15 467.7 396.8 474.45 401.9C477.45 404 480 406.7 482.55 409.1C486.75 413.15 489.45 413.3 494.55 408.65C501.45 402.5 508.8 397.25 517.95 394.85C525.75 392.9 533.25 392.9 540.15 397.7C545.4 401.45 548.55 406.85 550.35 413C552.15 419.15 553.5 425.6 554.55 431.9C555.3 435.95 555.3 440.15 555.75 444.2C556.2 449.75 556.8 455.15 557.1 460.7C557.25 463.1 557.25 465.5 557.25 467.9ZM580.348 450.5C577.198 448.55 574.198 447.05 571.648 444.8C567.298 441.2 567.298 436.1 567.748 431.15C569.098 418.1 576.148 408.35 586.198 400.7C598.648 391.25 612.598 386.6 628.348 389.75C642.148 392.6 650.848 403.4 650.398 416.9C650.398 419.45 649.948 422.15 649.348 424.55C647.998 429.5 641.548 433.7 635.698 434C626.248 434.6 618.448 431.15 611.248 425.3C608.848 423.35 605.848 421.85 602.848 420.8C600.298 419.9 596.848 421.4 596.098 423.2C595.198 425.15 596.848 428.9 599.548 430.25C601.498 431.15 603.748 431.6 605.848 432.35C608.248 433.1 610.648 433.85 612.898 434.9C617.848 437 620.998 442.55 618.448 448.85C615.298 456.65 609.898 462.8 603.148 467.75C601.948 468.65 600.298 468.8 599.098 469.7C598.348 470.15 597.298 471.35 597.448 472.1C597.448 472.85 598.948 474.2 599.548 474.05C602.398 473.45 605.548 473 607.798 471.35C614.548 466.55 620.398 460.4 623.548 452.75C625.348 447.95 628.798 446.75 632.998 445.85C642.598 443.75 653.098 451.7 655.348 462.05C658.198 474.8 655.198 486.05 646.798 495.8C639.298 504.8 629.548 510.65 618.298 513.2C607.198 515.75 596.248 515.15 585.898 510.05C578.398 506.45 572.548 500.9 568.498 493.7C565.648 488.9 565.498 483.5 565.798 478.1C566.098 471.95 567.448 466.1 571.198 461C573.598 457.7 576.298 454.7 578.998 451.55C579.298 450.95 580.048 450.8 580.348 450.5Z" fill="black"/>
<path d="M404.284 621.182V643H401.642V621.182H404.284ZM411.755 633.156V643H409.241V626.636H411.67V629.193H411.883C412.266 628.362 412.849 627.695 413.63 627.19C414.411 626.679 415.42 626.423 416.655 626.423C417.763 626.423 418.733 626.651 419.564 627.105C420.395 627.553 421.041 628.234 421.503 629.151C421.964 630.06 422.195 631.21 422.195 632.602V643H419.681V632.773C419.681 631.487 419.347 630.486 418.68 629.768C418.012 629.044 417.096 628.682 415.931 628.682C415.128 628.682 414.411 628.856 413.779 629.204C413.154 629.552 412.66 630.06 412.298 630.727C411.936 631.395 411.755 632.205 411.755 633.156ZM435.227 649.136V626.636H437.656V629.236H437.954C438.139 628.952 438.395 628.589 438.721 628.149C439.055 627.702 439.531 627.304 440.149 626.956C440.774 626.601 441.619 626.423 442.684 626.423C444.062 626.423 445.277 626.768 446.328 627.457C447.379 628.146 448.199 629.122 448.789 630.386C449.378 631.651 449.673 633.142 449.673 634.861C449.673 636.594 449.378 638.096 448.789 639.367C448.199 640.631 447.382 641.612 446.338 642.308C445.294 642.996 444.091 643.341 442.727 643.341C441.676 643.341 440.834 643.167 440.202 642.819C439.57 642.464 439.083 642.062 438.743 641.615C438.402 641.161 438.139 640.784 437.954 640.486H437.741V649.136H435.227ZM437.699 634.818C437.699 636.054 437.88 637.144 438.242 638.089C438.604 639.026 439.133 639.761 439.829 640.294C440.525 640.82 441.377 641.082 442.386 641.082C443.437 641.082 444.314 640.805 445.017 640.251C445.728 639.69 446.26 638.937 446.615 637.993C446.978 637.041 447.159 635.983 447.159 634.818C447.159 633.668 446.981 632.631 446.626 631.707C446.278 630.777 445.749 630.042 445.039 629.502C444.336 628.955 443.451 628.682 442.386 628.682C441.363 628.682 440.504 628.941 439.808 629.46C439.112 629.971 438.586 630.688 438.231 631.612C437.876 632.528 437.699 633.597 437.699 634.818ZM458.324 643.384C457.287 643.384 456.346 643.188 455.5 642.798C454.655 642.4 453.984 641.828 453.487 641.082C452.99 640.33 452.741 639.42 452.741 638.355C452.741 637.418 452.926 636.658 453.295 636.075C453.664 635.486 454.158 635.024 454.776 634.69C455.394 634.357 456.076 634.108 456.821 633.945C457.574 633.774 458.331 633.639 459.091 633.54C460.085 633.412 460.891 633.316 461.509 633.252C462.134 633.181 462.588 633.064 462.873 632.901C463.164 632.737 463.309 632.453 463.309 632.048V631.963C463.309 630.912 463.022 630.095 462.446 629.513C461.878 628.93 461.015 628.639 459.858 628.639C458.657 628.639 457.716 628.902 457.034 629.428C456.353 629.953 455.873 630.514 455.596 631.111L453.21 630.259C453.636 629.264 454.204 628.49 454.914 627.936C455.632 627.375 456.413 626.984 457.258 626.764C458.11 626.537 458.949 626.423 459.772 626.423C460.298 626.423 460.902 626.487 461.583 626.615C462.272 626.736 462.936 626.988 463.576 627.371C464.222 627.755 464.758 628.334 465.184 629.108C465.61 629.882 465.824 630.919 465.824 632.219V643H463.309V640.784H463.181C463.011 641.139 462.727 641.519 462.329 641.924C461.931 642.329 461.402 642.673 460.742 642.957C460.081 643.241 459.275 643.384 458.324 643.384ZM458.707 641.125C459.701 641.125 460.539 640.93 461.221 640.539C461.91 640.148 462.429 639.644 462.777 639.026C463.132 638.408 463.309 637.759 463.309 637.077V634.776C463.203 634.903 462.968 635.021 462.606 635.127C462.251 635.227 461.839 635.315 461.37 635.393C460.909 635.464 460.458 635.528 460.017 635.585C459.584 635.635 459.233 635.678 458.963 635.713C458.309 635.798 457.699 635.937 457.13 636.129C456.569 636.313 456.115 636.594 455.767 636.97C455.426 637.339 455.255 637.844 455.255 638.483C455.255 639.357 455.578 640.017 456.225 640.464C456.878 640.905 457.706 641.125 458.707 641.125ZM470.412 643V626.636H472.841V629.108H473.012C473.31 628.298 473.85 627.641 474.631 627.137C475.412 626.633 476.293 626.381 477.273 626.381C477.458 626.381 477.689 626.384 477.966 626.391C478.243 626.398 478.452 626.409 478.594 626.423V628.98C478.509 628.959 478.314 628.927 478.008 628.884C477.71 628.835 477.394 628.81 477.06 628.81C476.265 628.81 475.555 628.977 474.93 629.31C474.312 629.637 473.822 630.092 473.459 630.674C473.104 631.249 472.927 631.906 472.927 632.645V643H470.412ZM489.716 626.636V628.767H481.236V626.636H489.716ZM483.708 622.716H486.222V638.312C486.222 639.023 486.325 639.555 486.531 639.911C486.744 640.259 487.014 640.493 487.341 640.614C487.675 640.727 488.026 640.784 488.395 640.784C488.672 640.784 488.9 640.77 489.077 640.741C489.255 640.706 489.397 640.678 489.503 640.656L490.015 642.915C489.844 642.979 489.606 643.043 489.301 643.107C488.996 643.178 488.608 643.213 488.14 643.213C487.43 643.213 486.733 643.06 486.052 642.755C485.377 642.45 484.816 641.984 484.368 641.359C483.928 640.734 483.708 639.946 483.708 638.994V622.716ZM496.013 633.156V643H493.498V626.636H495.927V629.193H496.14C496.524 628.362 497.106 627.695 497.888 627.19C498.669 626.679 499.677 626.423 500.913 626.423C502.021 626.423 502.991 626.651 503.822 627.105C504.653 627.553 505.299 628.234 505.76 629.151C506.222 630.06 506.453 631.21 506.453 632.602V643H503.939V632.773C503.939 631.487 503.605 630.486 502.937 629.768C502.27 629.044 501.354 628.682 500.189 628.682C499.386 628.682 498.669 628.856 498.037 629.204C497.412 629.552 496.918 630.06 496.556 630.727C496.194 631.395 496.013 632.205 496.013 633.156ZM517.908 643.341C516.331 643.341 514.971 642.993 513.828 642.297C512.691 641.594 511.814 640.614 511.196 639.357C510.586 638.092 510.28 636.622 510.28 634.946C510.28 633.27 510.586 631.793 511.196 630.514C511.814 629.229 512.674 628.227 513.775 627.51C514.882 626.786 516.175 626.423 517.652 626.423C518.505 626.423 519.346 626.565 520.177 626.849C521.008 627.134 521.765 627.595 522.446 628.234C523.128 628.866 523.672 629.705 524.076 630.749C524.481 631.793 524.684 633.078 524.684 634.605V635.67H512.07V633.497H522.127C522.127 632.574 521.942 631.75 521.573 631.026C521.211 630.301 520.692 629.729 520.017 629.31C519.35 628.891 518.561 628.682 517.652 628.682C516.651 628.682 515.784 628.93 515.053 629.428C514.328 629.918 513.771 630.557 513.38 631.345C512.99 632.134 512.794 632.979 512.794 633.881V635.33C512.794 636.565 513.007 637.613 513.434 638.472C513.867 639.325 514.467 639.974 515.234 640.422C516.001 640.862 516.892 641.082 517.908 641.082C518.569 641.082 519.165 640.99 519.698 640.805C520.238 640.614 520.703 640.33 521.093 639.953C521.484 639.57 521.786 639.094 521.999 638.526L524.428 639.207C524.172 640.031 523.743 640.756 523.139 641.381C522.535 641.999 521.789 642.482 520.902 642.83C520.014 643.17 519.016 643.341 517.908 643.341ZM528.508 643V626.636H530.937V629.108H531.108C531.406 628.298 531.946 627.641 532.727 627.137C533.508 626.633 534.389 626.381 535.369 626.381C535.554 626.381 535.784 626.384 536.061 626.391C536.338 626.398 536.548 626.409 536.69 626.423V628.98C536.605 628.959 536.409 628.927 536.104 628.884C535.806 628.835 535.49 628.81 535.156 628.81C534.36 628.81 533.65 628.977 533.025 629.31C532.407 629.637 531.917 630.092 531.555 630.674C531.2 631.249 531.022 631.906 531.022 632.645V643H528.508ZM551.261 630.301L549.003 630.94C548.861 630.564 548.651 630.198 548.374 629.843C548.104 629.481 547.735 629.183 547.266 628.948C546.797 628.714 546.197 628.597 545.466 628.597C544.464 628.597 543.63 628.827 542.962 629.289C542.302 629.744 541.971 630.322 541.971 631.026C541.971 631.651 542.199 632.144 542.653 632.506C543.108 632.869 543.818 633.17 544.784 633.412L547.213 634.009C548.676 634.364 549.766 634.907 550.483 635.638C551.201 636.363 551.559 637.297 551.559 638.44C551.559 639.378 551.29 640.216 550.75 640.955C550.217 641.693 549.471 642.276 548.513 642.702C547.554 643.128 546.439 643.341 545.167 643.341C543.498 643.341 542.117 642.979 541.023 642.254C539.93 641.53 539.237 640.472 538.946 639.08L541.332 638.483C541.559 639.364 541.989 640.024 542.621 640.464C543.26 640.905 544.095 641.125 545.125 641.125C546.297 641.125 547.227 640.876 547.916 640.379C548.612 639.875 548.96 639.271 548.96 638.568C548.96 638 548.761 637.524 548.363 637.141C547.966 636.75 547.355 636.459 546.531 636.267L543.804 635.628C542.305 635.273 541.204 634.722 540.501 633.977C539.805 633.224 539.457 632.283 539.457 631.153C539.457 630.23 539.716 629.413 540.235 628.703C540.76 627.993 541.474 627.435 542.376 627.031C543.285 626.626 544.315 626.423 545.466 626.423C547.085 626.423 548.356 626.778 549.28 627.489C550.21 628.199 550.871 629.136 551.261 630.301ZM557.858 633.156V643H555.344V621.182H557.858V629.193H558.071C558.455 628.348 559.03 627.677 559.797 627.18C560.571 626.675 561.601 626.423 562.887 626.423C564.002 626.423 564.978 626.647 565.816 627.094C566.654 627.535 567.304 628.213 567.766 629.129C568.235 630.038 568.469 631.196 568.469 632.602V643H565.955V632.773C565.955 631.473 565.618 630.468 564.943 629.758C564.275 629.04 563.348 628.682 562.162 628.682C561.338 628.682 560.6 628.856 559.946 629.204C559.3 629.552 558.789 630.06 558.412 630.727C558.043 631.395 557.858 632.205 557.858 633.156ZM573.069 643V626.636H575.583V643H573.069ZM574.347 623.909C573.857 623.909 573.434 623.742 573.079 623.408C572.731 623.075 572.557 622.673 572.557 622.205C572.557 621.736 572.731 621.335 573.079 621.001C573.434 620.667 573.857 620.5 574.347 620.5C574.837 620.5 575.256 620.667 575.604 621.001C575.959 621.335 576.137 621.736 576.137 622.205C576.137 622.673 575.959 623.075 575.604 623.408C575.256 623.742 574.837 623.909 574.347 623.909ZM580.188 649.136V626.636H582.617V629.236H582.915C583.1 628.952 583.355 628.589 583.682 628.149C584.016 627.702 584.492 627.304 585.11 626.956C585.735 626.601 586.58 626.423 587.645 626.423C589.023 626.423 590.238 626.768 591.289 627.457C592.34 628.146 593.16 629.122 593.75 630.386C594.339 631.651 594.634 633.142 594.634 634.861C594.634 636.594 594.339 638.096 593.75 639.367C593.16 640.631 592.343 641.612 591.299 642.308C590.255 642.996 589.051 643.341 587.688 643.341C586.637 643.341 585.795 643.167 585.163 642.819C584.531 642.464 584.044 642.062 583.703 641.615C583.363 641.161 583.1 640.784 582.915 640.486H582.702V649.136H580.188ZM582.659 634.818C582.659 636.054 582.841 637.144 583.203 638.089C583.565 639.026 584.094 639.761 584.79 640.294C585.486 640.82 586.338 641.082 587.347 641.082C588.398 641.082 589.275 640.805 589.978 640.251C590.689 639.69 591.221 638.937 591.576 637.993C591.939 637.041 592.12 635.983 592.12 634.818C592.12 633.668 591.942 632.631 591.587 631.707C591.239 630.777 590.71 630.042 590 629.502C589.297 628.955 588.412 628.682 587.347 628.682C586.324 628.682 585.465 628.941 584.769 629.46C584.073 629.971 583.547 630.688 583.192 631.612C582.837 632.528 582.659 633.597 582.659 634.818ZM610.614 643L605.628 626.636H608.27L611.807 639.165H611.978L615.472 626.636H618.157L621.608 639.122H621.779L625.316 626.636H627.958L622.972 643H620.5L616.921 630.429H616.665L613.086 643H610.614ZM631.282 643V626.636H633.796V643H631.282ZM632.56 623.909C632.07 623.909 631.647 623.742 631.292 623.408C630.944 623.075 630.77 622.673 630.77 622.205C630.77 621.736 630.944 621.335 631.292 621.001C631.647 620.667 632.07 620.5 632.56 620.5C633.05 620.5 633.469 620.667 633.817 621.001C634.172 621.335 634.35 621.736 634.35 622.205C634.35 622.673 634.172 623.075 633.817 623.408C633.469 623.742 633.05 623.909 632.56 623.909ZM645.517 626.636V628.767H637.037V626.636H645.517ZM639.509 622.716H642.023V638.312C642.023 639.023 642.126 639.555 642.332 639.911C642.545 640.259 642.815 640.493 643.142 640.614C643.475 640.727 643.827 640.784 644.196 640.784C644.473 640.784 644.7 640.77 644.878 640.741C645.056 640.706 645.198 640.678 645.304 640.656L645.816 642.915C645.645 642.979 645.407 643.043 645.102 643.107C644.796 643.178 644.409 643.213 643.941 643.213C643.23 643.213 642.534 643.06 641.852 642.755C641.178 642.45 640.617 641.984 640.169 641.359C639.729 640.734 639.509 639.946 639.509 638.994V622.716ZM652.165 633.156V643H649.651V621.182H652.165V629.193H652.378C652.762 628.348 653.337 627.677 654.104 627.18C654.878 626.675 655.908 626.423 657.193 626.423C658.308 626.423 659.285 626.647 660.123 627.094C660.961 627.535 661.611 628.213 662.073 629.129C662.541 630.038 662.776 631.196 662.776 632.602V643H660.262V632.773C660.262 631.473 659.924 630.468 659.249 629.758C658.582 629.04 657.655 628.682 656.469 628.682C655.645 628.682 654.906 628.856 654.253 629.204C653.607 629.552 653.095 630.06 652.719 630.727C652.35 631.395 652.165 632.205 652.165 633.156ZM682.929 626.636V628.767H674.449V626.636H682.929ZM676.921 622.716H679.435V638.312C679.435 639.023 679.538 639.555 679.744 639.911C679.957 640.259 680.227 640.493 680.554 640.614C680.887 640.727 681.239 640.784 681.608 640.784C681.885 640.784 682.113 640.77 682.29 640.741C682.468 640.706 682.61 640.678 682.716 640.656L683.228 642.915C683.057 642.979 682.819 643.043 682.514 643.107C682.208 643.178 681.821 643.213 681.353 643.213C680.642 643.213 679.946 643.06 679.265 642.755C678.59 642.45 678.029 641.984 677.581 641.359C677.141 640.734 676.921 639.946 676.921 638.994V622.716ZM689.577 633.156V643H687.063V621.182H689.577V629.193H689.79C690.174 628.348 690.749 627.677 691.516 627.18C692.29 626.675 693.32 626.423 694.605 626.423C695.721 626.423 696.697 626.647 697.535 627.094C698.373 627.535 699.023 628.213 699.485 629.129C699.953 630.038 700.188 631.196 700.188 632.602V643H697.674V632.773C697.674 631.473 697.336 630.468 696.662 629.758C695.994 629.04 695.067 628.682 693.881 628.682C693.057 628.682 692.319 628.856 691.665 629.204C691.019 629.552 690.507 630.06 690.131 630.727C689.762 631.395 689.577 632.205 689.577 633.156ZM711.648 643.341C710.072 643.341 708.711 642.993 707.568 642.297C706.432 641.594 705.555 640.614 704.937 639.357C704.326 638.092 704.02 636.622 704.02 634.946C704.02 633.27 704.326 631.793 704.937 630.514C705.555 629.229 706.414 628.227 707.515 627.51C708.623 626.786 709.915 626.423 711.393 626.423C712.245 626.423 713.086 626.565 713.917 626.849C714.748 627.134 715.505 627.595 716.187 628.234C716.868 628.866 717.412 629.705 717.817 630.749C718.221 631.793 718.424 633.078 718.424 634.605V635.67H705.81V633.497H715.867C715.867 632.574 715.682 631.75 715.313 631.026C714.951 630.301 714.432 629.729 713.758 629.31C713.09 628.891 712.302 628.682 711.393 628.682C710.391 628.682 709.525 628.93 708.793 629.428C708.069 629.918 707.511 630.557 707.121 631.345C706.73 632.134 706.535 632.979 706.535 633.881V635.33C706.535 636.565 706.748 637.613 707.174 638.472C707.607 639.325 708.207 639.974 708.974 640.422C709.741 640.862 710.633 641.082 711.648 641.082C712.309 641.082 712.905 640.99 713.438 640.805C713.978 640.614 714.443 640.33 714.834 639.953C715.224 639.57 715.526 639.094 715.739 638.526L718.168 639.207C717.912 640.031 717.483 640.756 716.879 641.381C716.275 641.999 715.53 642.482 714.642 642.83C713.754 643.17 712.756 643.341 711.648 643.341Z" fill="black"/>
<path d="M748.584 628H745.942C745.785 627.24 745.512 626.572 745.121 625.997C744.738 625.422 744.269 624.939 743.715 624.548C743.168 624.151 742.561 623.852 741.893 623.653C741.226 623.455 740.53 623.355 739.805 623.355C738.484 623.355 737.287 623.689 736.215 624.357C735.15 625.024 734.301 626.008 733.669 627.308C733.044 628.607 732.731 630.202 732.731 632.091C732.731 633.98 733.044 635.575 733.669 636.874C734.301 638.174 735.15 639.158 736.215 639.825C737.287 640.493 738.484 640.827 739.805 640.827C740.53 640.827 741.226 640.727 741.893 640.528C742.561 640.33 743.168 640.035 743.715 639.644C744.269 639.246 744.738 638.76 745.121 638.185C745.512 637.602 745.785 636.935 745.942 636.182H748.584C748.385 637.297 748.023 638.295 747.497 639.175C746.971 640.056 746.318 640.805 745.537 641.423C744.756 642.034 743.878 642.499 742.905 642.819C741.939 643.138 740.906 643.298 739.805 643.298C737.944 643.298 736.29 642.844 734.841 641.935C733.392 641.026 732.252 639.733 731.421 638.057C730.59 636.381 730.175 634.392 730.175 632.091C730.175 629.79 730.59 627.801 731.421 626.125C732.252 624.449 733.392 623.156 734.841 622.247C736.29 621.338 737.944 620.884 739.805 620.884C740.906 620.884 741.939 621.043 742.905 621.363C743.878 621.683 744.756 622.151 745.537 622.769C746.318 623.38 746.971 624.126 747.497 625.006C748.023 625.88 748.385 626.878 748.584 628ZM752.512 643V626.636H755.026V643H752.512ZM753.79 623.909C753.3 623.909 752.878 623.742 752.523 623.408C752.175 623.075 752.001 622.673 752.001 622.205C752.001 621.736 752.175 621.335 752.523 621.001C752.878 620.667 753.3 620.5 753.79 620.5C754.281 620.5 754.7 620.667 755.048 621.001C755.403 621.335 755.58 621.736 755.58 622.205C755.58 622.673 755.403 623.075 755.048 623.408C754.7 623.742 754.281 623.909 753.79 623.909ZM766.748 626.636V628.767H758.268V626.636H766.748ZM760.739 622.716H763.253V638.312C763.253 639.023 763.356 639.555 763.562 639.911C763.775 640.259 764.045 640.493 764.372 640.614C764.706 640.727 765.057 640.784 765.427 640.784C765.704 640.784 765.931 640.77 766.108 640.741C766.286 640.706 766.428 640.678 766.535 640.656L767.046 642.915C766.876 642.979 766.638 643.043 766.332 643.107C766.027 643.178 765.64 643.213 765.171 643.213C764.461 643.213 763.765 643.06 763.083 642.755C762.408 642.45 761.847 641.984 761.4 641.359C760.959 640.734 760.739 639.946 760.739 638.994V622.716ZM772.149 649.136C771.723 649.136 771.343 649.101 771.009 649.03C770.675 648.966 770.444 648.902 770.317 648.838L770.956 646.622C771.567 646.778 772.106 646.835 772.575 646.793C773.044 646.75 773.459 646.54 773.822 646.164C774.191 645.795 774.528 645.195 774.834 644.364L775.302 643.085L769.251 626.636H771.979L776.496 639.676H776.666L781.183 626.636H783.91L776.964 645.386C776.652 646.232 776.265 646.931 775.803 647.485C775.341 648.046 774.805 648.462 774.194 648.732C773.591 649.001 772.909 649.136 772.149 649.136ZM814.416 632.091C814.416 634.392 814.001 636.381 813.17 638.057C812.339 639.733 811.199 641.026 809.75 641.935C808.301 642.844 806.646 643.298 804.786 643.298C802.925 643.298 801.27 642.844 799.821 641.935C798.372 641.026 797.232 639.733 796.401 638.057C795.57 636.381 795.155 634.392 795.155 632.091C795.155 629.79 795.57 627.801 796.401 626.125C797.232 624.449 798.372 623.156 799.821 622.247C801.27 621.338 802.925 620.884 804.786 620.884C806.646 620.884 808.301 621.338 809.75 622.247C811.199 623.156 812.339 624.449 813.17 626.125C814.001 627.801 814.416 629.79 814.416 632.091ZM811.86 632.091C811.86 630.202 811.544 628.607 810.911 627.308C810.286 626.008 809.438 625.024 808.365 624.357C807.3 623.689 806.107 623.355 804.786 623.355C803.465 623.355 802.268 623.689 801.195 624.357C800.13 625.024 799.281 626.008 798.649 627.308C798.024 628.607 797.712 630.202 797.712 632.091C797.712 633.98 798.024 635.575 798.649 636.874C799.281 638.174 800.13 639.158 801.195 639.825C802.268 640.493 803.465 640.827 804.786 640.827C806.107 640.827 807.3 640.493 808.365 639.825C809.438 639.158 810.286 638.174 810.911 636.874C811.544 635.575 811.86 633.98 811.86 632.091ZM825.805 626.636V628.767H816.984V626.636H825.805ZM819.626 643V624.378C819.626 623.44 819.846 622.659 820.286 622.034C820.727 621.409 821.298 620.94 822.002 620.628C822.705 620.315 823.447 620.159 824.228 620.159C824.846 620.159 825.35 620.209 825.741 620.308C826.132 620.408 826.423 620.5 826.615 620.585L825.89 622.759C825.762 622.716 825.585 622.663 825.357 622.599C825.137 622.535 824.846 622.503 824.484 622.503C823.653 622.503 823.053 622.712 822.683 623.131C822.321 623.55 822.14 624.165 822.14 624.974V643H819.626ZM836.914 623.526V621.182H853.277V623.526H846.417V643H843.775V623.526H836.914ZM866.378 630.301L864.12 630.94C863.978 630.564 863.768 630.198 863.491 629.843C863.221 629.481 862.852 629.183 862.383 628.948C861.915 628.714 861.314 628.597 860.583 628.597C859.581 628.597 858.747 628.827 858.079 629.289C857.419 629.744 857.089 630.322 857.089 631.026C857.089 631.651 857.316 632.144 857.77 632.506C858.225 632.869 858.935 633.17 859.901 633.412L862.33 634.009C863.793 634.364 864.883 634.907 865.601 635.638C866.318 636.363 866.677 637.297 866.677 638.44C866.677 639.378 866.407 640.216 865.867 640.955C865.334 641.693 864.589 642.276 863.63 642.702C862.671 643.128 861.556 643.341 860.285 643.341C858.616 643.341 857.234 642.979 856.14 642.254C855.047 641.53 854.354 640.472 854.063 639.08L856.449 638.483C856.677 639.364 857.106 640.024 857.738 640.464C858.378 640.905 859.212 641.125 860.242 641.125C861.414 641.125 862.344 640.876 863.033 640.379C863.729 639.875 864.077 639.271 864.077 638.568C864.077 638 863.878 637.524 863.481 637.141C863.083 636.75 862.472 636.459 861.648 636.267L858.921 635.628C857.422 635.273 856.322 634.722 855.618 633.977C854.922 633.224 854.574 632.283 854.574 631.153C854.574 630.23 854.834 629.413 855.352 628.703C855.878 627.993 856.591 627.435 857.493 627.031C858.403 626.626 859.432 626.423 860.583 626.423C862.202 626.423 863.474 626.778 864.397 627.489C865.327 628.199 865.988 629.136 866.378 630.301ZM872.975 633.156V643H870.461V621.182H872.975V629.193H873.189C873.572 628.348 874.147 627.677 874.914 627.18C875.689 626.675 876.718 626.423 878.004 626.423C879.119 626.423 880.096 626.647 880.934 627.094C881.772 627.535 882.422 628.213 882.883 629.129C883.352 630.038 883.586 631.196 883.586 632.602V643H881.072V632.773C881.072 631.473 880.735 630.468 880.06 629.758C879.392 629.04 878.466 628.682 877.279 628.682C876.456 628.682 875.717 628.856 875.064 629.204C874.417 629.552 873.906 630.06 873.529 630.727C873.16 631.395 872.975 632.205 872.975 633.156ZM891.893 643L886.907 626.636H889.55L893.086 639.165H893.257L896.751 626.636H899.436L902.888 639.122H903.058L906.595 626.636H909.237L904.251 643H901.78L898.2 630.429H897.944L894.365 643H891.893ZM917.376 643.384C916.339 643.384 915.398 643.188 914.553 642.798C913.708 642.4 913.037 641.828 912.54 641.082C912.042 640.33 911.794 639.42 911.794 638.355C911.794 637.418 911.979 636.658 912.348 636.075C912.717 635.486 913.211 635.024 913.829 634.69C914.447 634.357 915.128 634.108 915.874 633.945C916.627 633.774 917.383 633.639 918.143 633.54C919.138 633.412 919.944 633.316 920.562 633.252C921.187 633.181 921.641 633.064 921.925 632.901C922.216 632.737 922.362 632.453 922.362 632.048V631.963C922.362 630.912 922.074 630.095 921.499 629.513C920.931 628.93 920.068 628.639 918.91 628.639C917.71 628.639 916.769 628.902 916.087 629.428C915.405 629.953 914.926 630.514 914.649 631.111L912.263 630.259C912.689 629.264 913.257 628.49 913.967 627.936C914.684 627.375 915.466 626.984 916.311 626.764C917.163 626.537 918.001 626.423 918.825 626.423C919.351 626.423 919.954 626.487 920.636 626.615C921.325 626.736 921.989 626.988 922.628 627.371C923.275 627.755 923.811 628.334 924.237 629.108C924.663 629.882 924.876 630.919 924.876 632.219V643H922.362V640.784H922.234C922.064 641.139 921.78 641.519 921.382 641.924C920.984 642.329 920.455 642.673 919.795 642.957C919.134 643.241 918.328 643.384 917.376 643.384ZM917.76 641.125C918.754 641.125 919.592 640.93 920.274 640.539C920.963 640.148 921.481 639.644 921.829 639.026C922.184 638.408 922.362 637.759 922.362 637.077V634.776C922.256 634.903 922.021 635.021 921.659 635.127C921.304 635.227 920.892 635.315 920.423 635.393C919.961 635.464 919.51 635.528 919.07 635.585C918.637 635.635 918.285 635.678 918.015 635.713C917.362 635.798 916.751 635.937 916.183 636.129C915.622 636.313 915.167 636.594 914.819 636.97C914.479 637.339 914.308 637.844 914.308 638.483C914.308 639.357 914.631 640.017 915.278 640.464C915.931 640.905 916.758 641.125 917.76 641.125ZM931.979 633.156V643H929.465V626.636H931.894V629.193H932.107C932.491 628.362 933.073 627.695 933.854 627.19C934.636 626.679 935.644 626.423 936.88 626.423C937.988 626.423 938.957 626.651 939.788 627.105C940.619 627.553 941.266 628.234 941.727 629.151C942.189 630.06 942.42 631.21 942.42 632.602V643H939.906V632.773C939.906 631.487 939.572 630.486 938.904 629.768C938.237 629.044 937.32 628.682 936.156 628.682C935.353 628.682 934.636 628.856 934.004 629.204C933.379 629.552 932.885 630.06 932.523 630.727C932.161 631.395 931.979 632.205 931.979 633.156ZM953.875 643.341C952.298 643.341 950.938 642.993 949.795 642.297C948.658 641.594 947.781 640.614 947.163 639.357C946.552 638.092 946.247 636.622 946.247 634.946C946.247 633.27 946.552 631.793 947.163 630.514C947.781 629.229 948.64 628.227 949.741 627.51C950.849 626.786 952.142 626.423 953.619 626.423C954.471 626.423 955.313 626.565 956.144 626.849C956.975 627.134 957.731 627.595 958.413 628.234C959.095 628.866 959.638 629.705 960.043 630.749C960.448 631.793 960.65 633.078 960.65 634.605V635.67H948.037V633.497H958.094C958.094 632.574 957.909 631.75 957.54 631.026C957.177 630.301 956.659 629.729 955.984 629.31C955.317 628.891 954.528 628.682 953.619 628.682C952.618 628.682 951.751 628.93 951.02 629.428C950.295 629.918 949.738 630.557 949.347 631.345C948.956 632.134 948.761 632.979 948.761 633.881V635.33C948.761 636.565 948.974 637.613 949.4 638.472C949.834 639.325 950.434 639.974 951.201 640.422C951.968 640.862 952.859 641.082 953.875 641.082C954.535 641.082 955.132 640.99 955.665 640.805C956.204 640.614 956.67 640.33 957.06 639.953C957.451 639.57 957.753 639.094 957.966 638.526L960.395 639.207C960.139 640.031 959.709 640.756 959.106 641.381C958.502 641.999 957.756 642.482 956.868 642.83C955.981 643.17 954.983 643.341 953.875 643.341Z" fill="#66B800"/>
<line x1="716" y1="455.5" x2="1058" y2="455.5" stroke="black"/>
<line x1="60.5" y1="46.9951" x2="64.5" y2="455.995" stroke="black"/>
<circle cx="62" cy="556" r="21.5" stroke="black"/>
<circle cx="62" cy="636" r="21.5" stroke="black"/>
<circle cx="62" cy="716" r="21.5" stroke="black"/>
</svg>
