<svg width="3038" height="2790" viewBox="0 0 3038 2790" fill="none" xmlns="http://www.w3.org/2000/svg">
<path d="M2290.5 1394.5C2290.5 1826.01 1945.14 2175.5 1519.5 2175.5C1093.86 2175.5 748.5 1826.01 748.5 1394.5C748.5 962.992 1093.86 613.5 1519.5 613.5C1945.14 613.5 2290.5 962.992 2290.5 1394.5Z" stroke="white" stroke-width="29"/>
<path d="M1762.6 1610H1605L1516.2 1439.6C1514.6 1436.93 1510.33 1429.47 1503.4 1417.2C1497 1404.93 1489.8 1393.2 1481.8 1382V1610H1337.8V1154H1481.8V1361.2C1490.87 1351.07 1498.6 1340.13 1505 1328.4C1511.93 1316.13 1515.93 1308.93 1517 1306.8L1602.6 1154H1754.6L1663.4 1306.8C1661.8 1308.93 1658.33 1314.53 1653 1323.6C1647.67 1332.67 1641.8 1341.2 1635.4 1349.2C1629.53 1356.67 1623.13 1363.6 1616.2 1370C1625.8 1379.07 1633.53 1388.13 1639.4 1397.2C1645.8 1405.73 1653 1417.2 1661 1431.6L1762.6 1610Z" fill="white"/>
</svg>
