<svg width="604" height="517" viewBox="0 0 604 517" fill="none" xmlns="http://www.w3.org/2000/svg">
<g clip-path="url(#clip0_1544_5)">
<ellipse cx="302" cy="258.5" rx="261" ry="237.5" fill="black"/>
<path d="M323.4 131.61C346.62 131.61 366.257 133.76 382.31 138.06C398.363 142.36 411.12 150.673 420.58 163C430.327 175.04 435.2 192.383 435.2 215.03C435.2 225.063 433.623 235.383 430.47 245.99C427.603 256.31 423.877 265.34 419.29 273.08C414.99 280.82 411.12 285.837 407.68 288.13C403.667 290.997 394.78 293.29 381.02 295.01C367.26 296.443 351.063 297.16 332.43 297.16C325.837 297.16 315.66 296.873 301.9 296.3V378H224.5V132.9C254.6 132.04 287.567 131.61 323.4 131.61ZM355.65 242.12C358.517 238.393 359.95 230.94 359.95 219.76C359.95 205.14 356.797 194.82 350.49 188.8C344.47 182.78 333.863 179.77 318.67 179.77C313.51 179.77 307.92 180.2 301.9 181.06V246.42C304.767 246.707 310.357 246.85 318.67 246.85C340.743 246.85 353.07 245.273 355.65 242.12Z" fill="#66B800"/>
<path d="M341.4 131.61C364.62 131.61 384.257 133.76 400.31 138.06C416.363 142.36 429.12 150.673 438.58 163C448.327 175.04 453.2 192.383 453.2 215.03C453.2 225.063 451.623 235.383 448.47 245.99C445.603 256.31 441.877 265.34 437.29 273.08C432.99 280.82 429.12 285.837 425.68 288.13C421.667 290.997 412.78 293.29 399.02 295.01C385.26 296.443 369.063 297.16 350.43 297.16C343.837 297.16 333.66 296.873 319.9 296.3V378H242.5V132.9C272.6 132.04 305.567 131.61 341.4 131.61ZM373.65 242.12C376.517 238.393 377.95 230.94 377.95 219.76C377.95 205.14 374.797 194.82 368.49 188.8C362.47 182.78 351.863 179.77 336.67 179.77C331.51 179.77 325.92 180.2 319.9 181.06V246.42C322.767 246.707 328.357 246.85 336.67 246.85C358.743 246.85 371.07 245.273 373.65 242.12Z" fill="white"/>
</g>
<defs>
<clipPath id="clip0_1544_5">
<rect width="604" height="517" fill="white"/>
</clipPath>
</defs>
</svg>
