<svg width="359" height="368" viewBox="0 0 359 368" fill="none" xmlns="http://www.w3.org/2000/svg">
<path d="M301 183.5C301 251.745 246.789 307 180 307C113.211 307 59 251.745 59 183.5C59 115.255 113.211 60 180 60C246.789 60 301 115.255 301 183.5Z" fill="black" stroke="white" stroke-width="4"/>
<path d="M142.9 135L174.85 201.9L206.65 135H220.3V135.75C217.75 135.75 215.8 135.75 215.8 143.25V231.75C215.8 239.25 217.75 239.25 220.3 239.25V240H202.3V239.25C204.85 239.25 206.8 239.25 206.8 231.75V138.15L171.4 212.55H169.9L136 141.9V143.25V222.75C136 230.25 137.95 239.25 148 239.25V240H130V239.25C132.55 239.25 134.5 239.25 134.5 231.75V143.25C134.5 135.75 132.55 135.75 130 135.75V135H142.9Z" fill="white"/>
</svg>
