<svg id="logo" xmlns="http://www.w3.org/2000/svg" width="800" height="800" viewBox="0 0 800 800">
  <defs>
    <style>
      .cls-1 {
        fill: #2151a8;
      }

      .cls-2 {
        fill: #fff;
      }
    </style>
  </defs>
  <path id="Ring" class="cls-1" d="M400.004,0C179.0871,0,0,179.0871,0,400.004,0,620.92865,179.0871,800,400.004,800,620.90491,800,800,620.92865,800,400.004,800,179.0871,620.90491,0,400.004,0Zm.00482,728.03772c-181.183,0-328.04169-146.86664-328.04169-328.03375,0-181.16718,146.85871-328.02588,328.04169-328.02588,181.14343,0,328.01794,146.8587,328.01794,328.02588C728.02673,581.17108,581.15222,728.03772,400.00879,728.03772Z"/>
  <g id="text">
    <path id="path34" class="cls-2" d="M709.56021,179.99379a15.83171,15.83171,0,0,1,10.44754,7.13375q5.35032,7.93649,2.61782,15.10583a13.57557,13.57557,0,0,1-4.38939,6.11351l-4.42893-6.56431a10.49541,10.49541,0,0,0,2.30937-3.93068,8.1725,8.1725,0,0,0-1.5264-6.69086,7.94767,7.94767,0,0,0-6.71458-3.69341c-2.83927-.07118-6.03443,1.05978-9.54594,3.44033-3.51151,2.37264-5.67062,4.87974-6.45359,7.51337a8.36286,8.36286,0,0,0,1.123,7.33147,7.65182,7.65182,0,0,0,5.813,3.733,11.48077,11.48077,0,0,0,4.75319-.783l4.38939,6.48522a16.84033,16.84033,0,0,1-11.29378,1.26541,15.24535,15.24535,0,0,1-9.25331-6.79367c-3.06071-4.508-4.00186-9.03186-2.863-13.57943q1.76761-6.82134,9.364-11.95021,8.20934-5.52827,15.65153-4.13631"/>
    <path id="path38" class="cls-2" d="M716.24872,251.96861c-3.92277-1.21005-7.12584-4.22331-9.56966-9.05559q-3.68946-7.21284-1.69249-13.05745,2.20656-7.60432,11.30169-12.21911,9.24145-4.72156,16.52151-1.96139,5.88416,1.81507,9.56966,9.03977c2.45173,4.82438,3.037,9.18213,1.7004,13.06536-1.36032,4.99837-5.14864,9.05559-11.32542,12.2112q-9.08722,4.62666-16.50569,1.97721m2.863-7.03094q4.35379.9016,10.0521-2.00093c3.78832-1.93765,6.2796-4.23912,7.52128-6.95184a8.91519,8.91519,0,0,0-.29263-8.22517,9.12614,9.12614,0,0,0-6.47731-5.10118c-2.91045-.609-6.26378.04745-10.06,1.993-3.78832,1.92184-6.30332,4.25494-7.52919,6.96767a9.16773,9.16773,0,0,0,.32426,8.2647,9.00485,9.00485,0,0,0,6.4615,5.05373"/>
    <path id="path42" class="cls-2" d="M762.34274,274.552l3.907,10.69271-35.58965,12.94673-2.52291-6.92812,24.05069-8.75506c.7197-.25308,1.68458-.59316,2.91835-1.03605,1.27332-.44289,2.22238-.783,2.91835-1.036l-32.32331,4.15212-2.61781-7.23656L750.51116,259.802c-.67225.23727-1.645.59317-2.91044,1.07561-1.22587.47452-2.17492.83042-2.8709,1.0835l-24.07442,8.763-2.515-6.94394,35.58174-12.94673,3.93068,10.81926-25.63246,16.656Z"/>
    <path id="path46" class="cls-2" d="M775.19456,320.95493l2.56246,11.08815-36.8867,8.5178-1.67667-7.18911,24.96021-5.76553c.7197-.15817,1.732-.37962,3.00535-.66434,1.30495-.28471,2.31728-.50616,3.02116-.65643l-32.5843.15027-1.72412-7.47383,29.37333-14.0935c-.7118.16608-1.70831.41126-2.99744.72761-1.27332.31635-2.28565.54571-3.01326.70388l-24.93648,5.78135-1.67667-7.197,36.91833-8.51779,2.57037,11.21469-27.4594,13.42125Z"/>
    <path id="path50" class="cls-2" d="M779.57376,343.63822l.83833,7.99581-23.157,2.44382a12.66158,12.66158,0,0,0-5.54407,1.51849c-2.02466,1.1626-2.8709,3.36124-2.53873,6.5564.348,3.19517,1.61339,5.14073,3.82786,5.87625a13.181,13.181,0,0,0,5.77343.32426l23.13328-2.43591.83833,8.01162-23.12537,2.428c-4.00976.40335-7.197.12654-9.56175-.87788q-6.48918-2.84716-7.52919-12.61455c-.67225-6.54059.8937-11.17515,4.7532-13.95115,2.08792-1.471,5.14072-2.428,9.13467-2.83135Z"/>
    <path id="path54" class="cls-2" d="M783.28874,384.85778V393.162L756.8654,408.22832h26.42334v7.37892H745.43717v-7.90881l26.90577-15.46964H745.43717v-7.371Z"/>
    <path id="path58" class="cls-2" d="M744.06086,429.53069l.70388-7.82972,37.70921,3.31379-.68015,7.82181Z"/>
    <path id="path62" class="cls-2" d="M777.37306,468.3946l-6.6355-.93324,1.558-11.2147-30.85227-4.34984,1.11514-7.87718,30.84436,4.334,1.58967-11.27005,6.6355.93323Z"/>
    <path id="path66" class="cls-2" d="M771.3478,496.63249l-2.01674,8.74715-20.18329-17.66038-13.88-3.20307,1.78739-7.71109,13.88,3.18725,25.97254-7.43428-2.10375,9.08722-17.82646,3.9465Z"/>
    <path id="path70" class="cls-2" d="M93.66177,172.88822l5.25145-7.23657,38.51592,11.3966-5.04583,6.95185-7.73481-2.58619L116.47079,192.684l4.7611,6.69876L116.368,206.0815ZM112.4452,187.132l5.64689-7.78227-14.84484-4.9351Z"/>
    <path id="path74" class="cls-2" d="M113.20982,148.17318l18.31681-19.63758,4.86392,4.54757-12.95463,13.88,6.3745,5.94743,11.32541-12.16375,4.82438,4.48429L134.619,157.39486l11.618,10.81925-5.37008,5.75761Z"/>
    <path id="path86" class="cls-2" d="M157.14876,106.72867a9.52087,9.52087,0,0,1,4.4843-.39544,12.068,12.068,0,0,1,3.57478,1.12305,10.5285,10.5285,0,0,1,3.1398,2.53873,11.17949,11.17949,0,0,1,2.46755,4.89556,7.57005,7.57005,0,0,1-.98069,5.726,7.08892,7.08892,0,0,1,4.77692-.15818,12.3752,12.3752,0,0,1,4.70574,3.74087l1.66085,1.91393a21.54412,21.54412,0,0,0,2.45964,2.52291,3.1465,3.1465,0,0,0,2.515.68807l.6248.71179-6.58013,5.71016c-.72761-.46662-1.31286-.87-1.71621-1.17841a21.4555,21.4555,0,0,1-2.40428-2.2461L173.52,129.69586c-1.59758-1.80321-2.98953-2.72854-4.16-2.76808-1.17051-.05536-2.61782.67225-4.38148,2.20656l-6.161,5.35426,9.73575,11.20679-5.8288,5.07745L137.8829,122.19831l14.02232-12.19539a17.48567,17.48567,0,0,1,5.24354-3.27425m-9.11886,15.351,6.675,7.68736,6.762-5.89206a9.55834,9.55834,0,0,0,2.61782-3.10026c.73552-1.57385.37171-3.15561-1.01233-4.7611-1.51058-1.73994-3.10025-2.38846-4.7611-1.993a8.66856,8.66856,0,0,0-3.33752,2.03256Z"/>
    <path id="path90" class="cls-2" d="M196.64624,122.43093l-6.28751,4.74528-22.77737-30.267,6.27959-4.72156Z"/>
    <path id="path102" class="cls-2" d="M186.28958,87.76809a15.8564,15.8564,0,0,1,7.32355-10.32891q7.99581-5.19609,15.12956-2.35682a13.72573,13.72573,0,0,1,6.05024,4.50011l-6.63549,4.32612a10.80309,10.80309,0,0,0-3.90695-2.38055c-2.11166-.59316-4.32612-.13445-6.70668,1.42358a7.9437,7.9437,0,0,0-3.82,6.62759c-.11073,2.84717.96487,6.05815,3.27425,9.6092q3.47592,5.36218,7.41055,6.588a8.30814,8.30814,0,0,0,7.33938-.99651,7.58509,7.58509,0,0,0,3.83577-5.73388,11.61414,11.61414,0,0,0-.70388-4.78484l6.56431-4.26284a16.83547,16.83547,0,0,1,1.06769,11.3175,15.42367,15.42367,0,0,1-6.95184,9.1505c-4.56339,2.94208-9.09514,3.82786-13.619,2.59409-4.53175-1.2575-8.45452-4.42894-11.79994-9.57757-3.58269-5.54408-4.87974-10.7718-3.85159-15.71481"/>
    <path id="path106" class="cls-2" d="M225.84087,59.46165l7.96418-4.04931,29.13606,27.6492-7.64782,3.907-5.69435-5.83671-12.44056,6.335,1.20214,8.11444-7.371,3.7646ZM236.10651,80.681l8.54942-4.36566L233.68641,65.19554Z"/>
    <path id="path110" class="cls-2" d="M253.98512,45.59034l7.79809-2.84717,23.21236,19.685-9.04768-24.84158,6.92021-2.52291,12.95463,35.58965-7.42637,2.71272L264.662,53.37261,273.86,78.64917l-6.9123,2.52291Z"/>
    <path id="path122" class="cls-2" d="M336.57992,23.09966a12.35122,12.35122,0,0,1,7.1812,3.61432,16.78725,16.78725,0,0,1,3.72505,5.54408,30.00457,30.00457,0,0,1,1.80321,6.05024,25.21478,25.21478,0,0,1-.75925,13.12863c-1.88229,5.117-5.62316,8.1698-11.278,9.1584l-16.07071,2.83135-6.56431-37.29795L330.68,23.30528a19.56485,19.56485,0,0,1,5.9-.20562m-13.26308,8.19352,4.29449,24.3196,7.17329-1.26541c3.6855-.65643,5.9237-2.91044,6.74621-6.79367a19.33824,19.33824,0,0,0-.07117-7.31565c-.67225-3.79623-1.77158-6.60386-3.35334-8.415q-2.2896-2.75226-7.60828-1.81111Z"/>
    <path id="path126" class="cls-2" d="M383.95555,24.12687l-19.96975,1.392.5378,8.02744L382.872,32.25713l.45872,6.55641-18.33263,1.28913.66434,9.71993,20.91881-1.471.46662,6.80949-28.61408,1.993-2.63364-37.79621,27.69666-1.93766Z"/>
    <path id="path130" class="cls-2" d="M416.24005,17.701l8.20935.29262-14.228,37.39286-7.47382-.261L391.27984,16.831l8.44661.30053,7.21284,29.02534Z"/>
    <path id="path134" class="cls-2" d="M458.09245,27.98088,438.15434,25.885l-.83043,7.99581,18.301,1.92975-.696,6.54059-18.29308-1.92975-1.02024,9.68829,20.86345,2.18283-.72762,6.78576-28.535-3.00535,3.96232-37.66176,27.60966,2.90254Z"/>
    <path id="path138" class="cls-2" d="M469.192,23.40087l7.74273,1.645-6.44568,30.39357,18.32471,3.899L487.406,65.99773l-26.07536-5.54408Z"/>
    <path id="path150" class="cls-2" d="M520.99318,73.179c-3.63014,1.89811-8.00371,2.04047-13.16817.3559-5.14863-1.66876-8.61269-4.35776-10.42381-8.04327q-3.82-6.92811-.64852-16.63222Q499.9676,38.96547,507.042,35.794c3.63805-1.92975,8.01954-2.05629,13.17608-.37171,5.14073,1.66875,8.61269,4.334,10.43963,8.03535,2.55455,4.4922,2.74436,10.02837.609,16.63223Q528.123,69.77029,520.99318,73.179m-2.91835-7.01512q3.68946-2.45568,5.68644-8.5336c1.305-4.04141,1.42358-7.4422.37962-10.21819a8.94264,8.94264,0,0,0-5.987-5.62316,9.15562,9.15562,0,0,0-8.21726.99651c-2.48336,1.60548-4.4052,4.44475-5.71016,8.502-1.32077,4.05722-1.44731,7.48173-.37962,10.24982a9.18852,9.18852,0,0,0,6.06606,5.61525,9.039,9.039,0,0,0,8.16189-.9886"/>
    <path id="path154" class="cls-2" d="M561.02333,76.35283c-2.83135.73552-6.14514.19772-9.94928-1.56594l-7.29193-3.40079-5.74179,12.33774-7.14957-3.3217L546.914,46.0779l14.94766,6.96767c3.44033,1.61339,5.77343,3.7725,6.98348,6.501,1.24168,2.72854.98069,5.94743-.75134,9.64875-1.8823,4.05722-4.25494,6.44568-7.07048,7.15747m.30845-14.9002a6.66535,6.66535,0,0,0-3.4087-2.98162l-6.675-3.10816L546.55812,65.4624l6.65922,3.124a6.37135,6.37135,0,0,0,4.508.59316,5.4647,5.4647,0,0,0,3.25843-3.24261c.82252-1.7953.94115-3.28216.348-4.4843"/>
    <path id="path158" class="cls-2" d="M602.66,74.59189l9.85438,5.68643-18.93369,32.79784-6.39032-3.68551,12.82018-22.1763c.3559-.64852.87-1.53431,1.54222-2.64945.68016-1.17051,1.22586-2.04048,1.58176-2.67318l-22.09722,23.94-6.66712-3.83577,9.71992-31.08163c-.34008.609-.84624,1.51849-1.50267,2.66527-.65643,1.1705-1.1626,2.0642-1.51849,2.6969L568.24873,98.46068l-6.3666-3.68551L580.8,61.97733l9.973,5.76553L581.844,96.958Z"/>
    <path id="path162" class="cls-2" d="M640.24275,109.53229,624.24322,97.47135l-4.84019,6.40614,14.70248,11.08024-3.96232,5.25145L615.4328,109.13685l-5.84461,7.77436,16.743,12.61455-4.10468,5.44126-22.91182-17.27284,22.78528-30.23539,22.19213,16.6955Z"/>
    <path id="path166" class="cls-2" d="M652.17547,111.03884l6.08188,5.67062-7.01512,29.61059,18.03209-19.32914,5.39381,5.01419L648.838,159.70967l-5.78134-5.39381,7.03094-30.21957L631.747,143.77341l-5.40172-5.03791Z"/>
    <path id="path170" class="cls-2" d="M699.945,159.76608l-4.97464,4.48429-7.57664-8.415-23.16491,20.85553-5.32263-5.9237,23.14118-20.84762-7.61618-8.47034,4.99837-4.4922Z"/>
    <path id="path182" class="cls-2" d="M720.47393,540.58615a16.60455,16.60455,0,1,1,16.59269,16.60851,16.60309,16.60309,0,0,1-16.59269-16.60851"/>
    <path id="path186" class="cls-2" d="M109.24769,642.26535q-6.10954-.75924-10.99324-7.24447c-3.25843-4.334-4.57921-8.50988-3.93068-12.58291q.866-7.85346,9.00022-13.99069,8.30425-6.26378,15.95208-4.81647c4.05722.5378,7.71109,2.93417,10.97743,7.26029q4.87578,6.48918,3.93858,12.575c-.46662,5.13282-3.48778,9.79111-9.016,13.98278-5.43335,4.073-10.74017,5.70225-15.92835,4.81646m1.6134-7.41846q4.43685.11863,9.54594-3.71714,5.10119-3.83182,6.18469-8.14608a8.97148,8.97148,0,0,0-1.69249-8.05908,9.10217,9.10217,0,0,0-7.27611-3.899c-2.97371-.10281-6.16887,1.131-9.56175,3.70132-3.4166,2.57037-5.4808,5.28309-6.20051,8.17772a9.18309,9.18309,0,0,0,1.73994,8.07489,8.98937,8.98937,0,0,0,7.26029,3.86741"/>
    <path id="path190" class="cls-2" d="M145.88049,631.91593l-12.1242,18.65689-3.59061,4.95882,5.01419-3.30588,18.649-12.06884,5.813,6.00278-12.488,18.29309-3.53524,5.03791,4.98255-3.20307,19.28169-11.59432,5.59153,5.78925-34.65641,18.64107-5.24355-5.43335,12.75692-18.67271,4.334-6.05815-6.19259,4.13631-19.1156,12.09257-5.09328-5.291,19.772-34.03162Z"/>
    <path id="path194" class="cls-2" d="M180.27277,664.81782l6.84112,5.73389-14.06187,37.638-6.57222-5.51244,3.13189-7.545-10.6848-8.96068-7.00721,4.27866-6.34287-5.32263Zm-15.51709,17.72365,7.371,6.16887,5.94743-14.44149Z"/>
    <path id="path206" class="cls-2" d="M217.36825,693.91206a9.89431,9.89431,0,0,1,1.47895,4.26284,12.41241,12.41241,0,0,1-.22936,3.74087,10.365,10.365,0,0,1-1.69248,3.66178,11.41014,11.41014,0,0,1-4.17586,3.57479,7.54426,7.54426,0,0,1-5.78134.435,7.09311,7.09311,0,0,1,1.305,4.595,12.06823,12.06823,0,0,1-2.49128,5.465l-1.44731,2.08a18.51125,18.51125,0,0,0-1.85857,3.00535,3.1297,3.1297,0,0,0-.06327,2.57828l-.54571.783-7.12584-4.99046c.28472-.81461.5378-1.471.73552-1.96139a17.88782,17.88782,0,0,1,1.60549-2.85508l1.9772-2.91044c1.35241-2.00884,1.91393-3.57478,1.66876-4.73738q-.344-1.69644-3.19516-3.70923l-6.69085-4.682-8.5257,12.16375-6.31914-4.44475,21.71759-31.01045,15.20865,10.64526a17.26689,17.26689,0,0,1,4.44475,4.31031m-17.10676-5.13282-5.82879,8.328,7.33146,5.14073a9.73987,9.73987,0,0,0,3.65388,1.78739c1.71621.32426,3.15561-.38753,4.36566-2.11956,1.32868-1.89811,1.58967-3.58269.79879-5.10909a8.89963,8.89963,0,0,0-2.776-2.75227Z"/>
    <path id="path210" class="cls-2" d="M244.14569,708.756a12.35733,12.35733,0,0,1,3.298,7.32356,16.78923,16.78923,0,0,1-.59316,6.65131,29.838,29.838,0,0,1-2.41219,5.8367,24.97435,24.97435,0,0,1-8.842,9.712c-4.68992,2.79972-9.54593,2.80763-14.52058.03164l-14.28331-7.893,18.36426-33.13792,14.2675,7.91672a20.07571,20.07571,0,0,1,4.72156,3.559m-15.46964-2.00093L216.6942,728.3778l6.37451,3.53524c3.27424,1.81112,6.42986,1.44731,9.51429-1.05187a19.392,19.392,0,0,0,4.56339-5.71807c1.87439-3.36916,2.776-6.26378,2.6969-8.63642-.04745-2.38847-1.645-4.46848-4.78483-6.20842Z"/>
    <path id="path214" class="cls-2" d="M248.88788,739.25642a7.80278,7.80278,0,0,0-.30053,4.11258c.5378,1.94557,2.22238,3.55106,5.08537,4.82438a14.33925,14.33925,0,0,0,4.38939,1.28913c2.35682.15818,3.96231-.71179,4.82437-2.67317a3.21849,3.21849,0,0,0-.32426-3.33752,17.64951,17.64951,0,0,0-3.994-3.70133l-3.29007-2.45964c-3.24261-2.40427-5.32263-4.4052-6.27168-5.987-1.63713-2.61781-1.67667-5.639-.174-9.03186a10.93124,10.93124,0,0,1,6.8174-6.21632q4.74528-1.566,11.29378,1.3524a16.43078,16.43078,0,0,1,8.01953,7.06257c1.71622,3.06862,1.84276,6.4615.32427,10.20237l-6.94394-3.10026a5.42874,5.42874,0,0,0-.76715-5.64689,9.71863,9.71863,0,0,0-3.78833-2.72063,8.62181,8.62181,0,0,0-4.97464-.87788,3.93028,3.93028,0,0,0-3.06862,2.40428,3.30115,3.30115,0,0,0,.41126,3.51151,22.44444,22.44444,0,0,0,3.86741,3.43243l5.33054,4.09676a17.06943,17.06943,0,0,1,4.80065,5.12491,9.4051,9.4051,0,0,1-.04745,8.45452,11.05393,11.05393,0,0,1-7.16539,6.2796q-5.00628,1.50663-11.60222-1.43941c-4.508-2.00093-7.60037-4.61874-9.26913-7.8139a11.27693,11.27693,0,0,1-.087-10.21819Z"/>
    <path id="path218" class="cls-2" d="M306.21084,731.66427l8.63642,2.32519,3.15561,40.04232-8.29634-2.21447-.34008-8.154-13.4687-3.59851-4.54757,6.83322-7.98-2.14329Zm-6.55641,22.635,9.26913,2.49128-.7197-15.61991Z"/>
    <path id="path230" class="cls-2" d="M344.635,743.83643a15.92389,15.92389,0,0,1,12.32193-2.99744c6.31914.88578,10.62154,3.61432,12.97045,8.14607a13.95562,13.95562,0,0,1,1.6134,7.371l-7.83763-1.10723a10.53561,10.53561,0,0,0-1.392-4.334c-1.18632-1.84275-3.18725-2.95789-5.987-3.32961a7.93749,7.93749,0,0,0-7.23657,2.49919c-1.96138,2.07211-3.25843,5.2119-3.82786,9.40357-.59316,4.19958-.16609,7.48965,1.24168,9.83066a8.40437,8.40437,0,0,0,6.20842,4.05722,7.68277,7.68277,0,0,0,6.675-1.80321,11.98161,11.98161,0,0,0,2.59409-4.081l7.76645,1.09142a17.06013,17.06013,0,0,1-6.61968,9.2533,15.46258,15.46258,0,0,1-11.25423,2.3252q-8.07885-1.13888-11.99767-6.97557-3.903-5.8723-2.62573-14.95557c.92533-6.54849,3.4087-11.34123,7.38683-14.394"/>
    <path id="path234" class="cls-2" d="M403.743,779.17844q-4.44871,4.2589-12.5671,3.986c-5.40172-.19772-9.46685-1.81112-12.24284-4.8402-3.71715-3.76459-5.44127-9.03186-5.21191-15.82553.23726-6.92021,2.35683-12.06884,6.30332-15.41427q4.43685-4.247,12.55919-3.986,8.09072.28472,12.24284,4.86392c3.69342,3.61432,5.40963,8.86577,5.18819,15.8018q-.35591,10.19051-6.27169,15.41427m-4.769-5.9237c1.94557-2.23819,2.96581-5.49662,3.1398-9.75156.13445-4.26285-.67225-7.56082-2.45173-9.94929a9.00044,9.00044,0,0,0-7.31565-3.74877,9.20884,9.20884,0,0,0-7.632,3.20307q-2.91835,3.36915-3.124,9.76738c-.16609,4.26285.67225,7.58455,2.45173,9.95719a9.15035,9.15035,0,0,0,7.37892,3.733,9.05656,9.05656,0,0,0,7.55291-3.211"/>
    <path id="path238" class="cls-2" d="M438.30546,742.5693l11.35705-1.00442,3.29007,37.73294-7.33938.62479-2.22237-25.51382c-.07118-.7197-.15818-1.74785-.25309-3.07653q-.16608-2.00488-.23726-3.06071L438.519,780.56323l-7.63991.66434L421.001,750.18549c.07118.7197.174,1.74784.31635,3.07653.11864,1.30495.21354,2.32519.29263,3.0607l2.22238,25.51383-7.34729.65643-3.298-37.74875,11.45987-1.00442,9.46685,29.08069Z"/>
    <path id="path242" class="cls-2" d="M478.16618,735.96623l11.1277-2.35682,7.85345,37.04487-7.18911,1.53431-5.33845-25.07093c-.15027-.7118-.348-1.732-.6248-3.02117-.23726-1.31286-.44289-2.30937-.59316-3.01326l-.39544,32.5843-7.5371,1.58176-13.54779-29.59477c.13445.68807.3559,1.69249.64852,2.99744.28472,1.30495.52989,2.30147.66434,3.01326l5.33845,25.063-7.22865,1.54222-7.86136-37.05278,11.26214-2.38846,12.923,27.69666Z"/>
    <path id="path246" class="cls-2" d="M531.3735,756.20891q-2.71668,5.552-10.43963,8.04326c-5.14073,1.67667-9.5143,1.55013-13.16027-.36381q-7.14165-3.381-10.29727-13.08117-3.20307-9.90579.64061-16.63223,2.72854-5.52827,10.43964-8.04326c5.15654-1.67667,9.53011-1.55013,13.17607.37962q7.07049,3.17934,10.26564,13.08118,3.13189,9.7041-.62479,16.61641m-6.48523-3.9465c1.03606-2.76808.90952-6.17678-.40335-10.21818q-1.98116-6.06211-5.70225-8.51779a8.97506,8.97506,0,0,0-8.154-1.02024,9.08378,9.08378,0,0,0-6.05024,5.63107c-1.07559,2.76018-.93324,6.17679.37172,10.24192,1.32077,4.04931,3.211,6.89648,5.726,8.51779a9.78927,9.78927,0,0,0,14.21213-4.63457"/>
    <path id="path250" class="cls-2" d="M528.27639,720.35666l7.58455-3.37706,24.53314,18.02418-10.76389-24.16142,6.7383-2.98953L571.77486,742.446l-7.22075,3.21889-25.07884-18.28518,10.9458,24.58059-6.74622,2.99744Z"/>
    <path id="path254" class="cls-2" d="M569.39555,702.50825l22.76947-14.22,3.51151,5.639-16.09443,10.06,4.61875,7.39474,14.08559-8.81042,3.48778,5.58362-14.08559,8.80251,8.39916,13.4608-6.65131,4.16794Z"/>
    <path id="path266" class="cls-2" d="M593.52409,687.35485l6.501-4.73738,13.68224,18.8467a13.12157,13.12157,0,0,0,4.09677,4.06512c2.01675,1.14678,4.34985.79089,6.95184-1.11514,2.57828-1.86648,3.646-3.96231,3.18726-6.24a13.69163,13.69163,0,0,0-2.61782-5.16445l-13.69015-18.81506,6.51686-4.73738,13.67433,18.83088c2.38055,3.25843,3.70923,6.161,4.01768,8.7076q.783,7.05861-7.15748,12.82018-7.97208,5.813-14.4494,2.87881c-2.32519-1.09142-4.6741-3.25052-7.03093-6.501Z"/>
    <path id="path270" class="cls-2" d="M641.463,648.10428l4.4843,4.99046-8.42289,7.57664L658.38,683.83629l-5.9237,5.32263-20.84763-23.14909-8.46243,7.60828-4.48429-4.99046Z"/>
    <path id="path282" class="cls-2" d="M642.28946,647.44007l5.48871-5.87625,17.01977,15.873a13.06337,13.06337,0,0,0,4.79274,3.20307c2.20655.75134,4.421-.05536,6.61176-2.41219,2.17493-2.3331,2.83136-4.58711,1.93766-6.72249a13.27713,13.27713,0,0,0-3.551-4.5792l-17.01977-15.873,5.4729-5.88416,17.04349,15.8809c2.91835,2.73644,4.79274,5.33053,5.57571,7.78227,1.40777,4.50011-.10281,9.1584-4.5792,13.959s-9.016,6.65131-13.61107,5.57571q-3.7369-.9372-8.1698-5.04582Z"/>
    <path id="path286" class="cls-2" d="M681.25377,602.66723a9.76581,9.76581,0,0,1,4.31822-1.33658,12.4838,12.4838,0,0,1,3.71714.3638,10.61932,10.61932,0,0,1,3.62223,1.819,11.46748,11.46748,0,0,1,3.4087,4.29448,7.68017,7.68017,0,0,1,.25308,5.813,7.0022,7.0022,0,0,1,4.61084-1.17051,12.35923,12.35923,0,0,1,5.378,2.68109l2.04047,1.53431a21.73944,21.73944,0,0,0,2.93417,1.96138,3.24478,3.24478,0,0,0,2.57828.15027l.76715.55362-5.22772,6.95184c-.83043-.29262-1.471-.57734-1.94557-.79088a18.23552,18.23552,0,0,1-2.79972-1.70039l-2.84717-2.08793c-1.94557-1.41567-3.50361-2.03256-4.65038-1.819-1.1626.1819-2.43592,1.20214-3.83578,3.06071l-4.91137,6.51686,11.8474,8.94486-4.62665,6.17679-30.25121-22.80111L676.809,606.9459a17.2726,17.2726,0,0,1,4.44475-4.27867m-5.71807,16.90113,8.13817,6.12142,5.378-7.15747a10.38509,10.38509,0,0,0,1.92184-3.56687c.37172-1.69249-.2768-3.18725-1.98511-4.46848-1.82693-1.36823-3.51942-1.69249-5.06954-.94906a8.67748,8.67748,0,0,0-2.84718,2.68109Z"/>
    <path id="path290" class="cls-2" d="M706.64123,574.1373l-10.62944,16.996,6.84112,4.27076,9.72784-15.59618,5.57571,3.472-9.73574,15.612,8.241,5.14863,11.11979-17.7711,5.76552,3.61433-15.20865,24.3275-32.10977-20.07256,14.7183-23.55244Z"/>
    <path id="path302" class="cls-2" d="M49.99388,539.39674a16.6006,16.6006,0,1,1,16.6085,16.60851,16.59465,16.59465,0,0,1-16.6085-16.60851"/>
    <path id="path306" class="cls-2" d="M52.45766,489.53416a7.69878,7.69878,0,0,0,3.49569-2.167q1.89812-2.39637.91743-6.95976a13.62272,13.62272,0,0,0-1.55013-4.31821,4.40246,4.40246,0,0,0-4.99046-2.3331,3.27121,3.27121,0,0,0-2.49919,2.22238,18.08984,18.08984,0,0,0-.65643,5.41753l-.03163,4.09677c-.06327,4.0414-.4508,6.9123-1.13887,8.59688-1.20214,2.85508-3.59851,4.682-7.23656,5.45708a10.94371,10.94371,0,0,1-9.024-1.87439q-4.06908-2.91835-5.55989-9.92556a16.40031,16.40031,0,0,1,.99651-10.63735c1.471-3.211,4.16-5.27518,8.067-6.26378l1.58176,7.4501a5.40743,5.40743,0,0,0-4.1284,3.92277,9.90757,9.90757,0,0,0,.02373,4.69783,8.64778,8.64778,0,0,0,2.21446,4.508A3.96143,3.96143,0,0,0,36.6954,492.5a3.27475,3.27475,0,0,0,2.59409-2.39637,21.95534,21.95534,0,0,0,.49825-5.14072l.18191-6.71458a16.94109,16.94109,0,0,1,1.34449-6.9123,9.27586,9.27586,0,0,1,6.85694-4.91138,10.85133,10.85133,0,0,1,9.26913,2.09584c2.7839,2.10374,4.6662,5.52035,5.67853,10.24982,1.02023,4.80855.72761,8.85787-.88579,12.08466a11.22125,11.22125,0,0,1-8.20935,6.074Z"/>
    <path id="path310" class="cls-2" d="M51.98629,429.87q4.75715,3.87927,5.47289,11.97394c.45872,5.378-.6327,9.64084-3.3217,12.74109-3.25843,4.13631-8.28843,6.509-15.05046,7.09421-6.89649.609-12.28239-.84625-16.05489-4.37358-3.19516-2.57036-5.01419-6.57222-5.49662-11.966-.46662-5.40172.64061-9.64084,3.3217-12.75691q4.686-6.14515,15.07419-7.07048c6.75413-.57734,12.10839.86206,16.05489,4.35776m-5.31472,5.43335c-2.46755-1.645-5.80507-2.28565-10.06-1.906q-6.34683.55756-9.56175,3.62223a8.98361,8.98361,0,0,0-2.82345,7.72691,9.13514,9.13514,0,0,0,4.08886,7.1812c2.46755,1.65294,5.8367,2.29356,10.08373,1.91394,4.25494-.37172,7.43428-1.58177,9.57757-3.646a9.7767,9.7767,0,0,0-1.30495-14.89229"/>
    <path id="path314" class="cls-2" d="M16.68989,417.62885l.13445-8.04326,23.29144.41126a13.22173,13.22173,0,0,0,5.70226-.83042c2.15119-.92534,3.2347-2.98953,3.30588-6.20842.03164-3.20307-.97278-5.29891-3.08444-6.29541a13.33541,13.33541,0,0,0-5.68643-1.03606l-23.26772-.39544.15026-8.04326,23.25982.39544c4.03349.07909,7.14166.75134,9.37194,2.04047,4.04931,2.4201,6.04233,6.89649,5.91579,13.45289q-.16608,9.82275-6.39032,13.25517c-2.2461,1.20214-5.41753,1.78739-9.43521,1.7083Z"/>
    <path id="path318" class="cls-2" d="M21.239,348.84382l6.65131.81461-1.384,11.23842L57.42972,364.701l-.96488,7.90881-30.93136-3.812-1.384,11.3096-6.68295-.81461Z"/>
    <path id="path322" class="cls-2" d="M59.0069,349.508l-37.05278-7.86927,1.63712-7.67946,14.13305,3.02117,3.07653-14.481L26.67568,319.502l1.62922-7.71109L65.34977,319.676l-1.62922,7.69527-16.54523-3.51942L44.09088,338.325l16.53733,3.52733Z"/>
    <path id="path326" class="cls-2" d="M46.34793,276.58324l-6.20051,19.06023,7.64782,2.49919,5.67853-17.49429,6.26378,2.01674L54.059,300.1594l9.25331,3.02117,6.47732-19.93811,6.4694,2.09583-8.85786,27.30122L31.37655,300.92656l8.589-26.40752Z"/>
    <path id="path338" class="cls-2" d="M54.7899,242.30657a9.84309,9.84309,0,0,1,3.89113-2.26192,12.3347,12.3347,0,0,1,3.70924-.49034,10.62424,10.62424,0,0,1,3.92277.957,11.28549,11.28549,0,0,1,4.3103,3.42452,7.565,7.565,0,0,1,1.51849,5.60734,6.93775,6.93775,0,0,1,4.247-2.167,12.13594,12.13594,0,0,1,5.86043,1.39986l2.32519,1.02814a17.98349,17.98349,0,0,0,3.298,1.23378,3.13566,3.13566,0,0,0,2.56245-.42708l.84624.39544-3.52732,7.94836c-.86207-.12654-1.55013-.23726-2.0642-.348a20.7251,20.7251,0,0,1-3.10816-1.02814l-3.24262-1.384c-2.22238-.94906-3.86741-1.20214-4.95092-.75134-1.07559.4508-2.08792,1.72412-3.02116,3.84368l-3.35334,7.47383L81.585,272.795l-3.1398,7.08629L43.852,264.475l7.55292-16.98813a17.02769,17.02769,0,0,1,3.385-5.18027m-1.77948,17.779,9.28494,4.1284,3.646-8.19353a9.58579,9.58579,0,0,0,1.05978-3.92277c-.0079-1.71621-.98069-3.02907-2.92626-3.88323-2.09583-.93324-3.81995-.85415-5.15654.19772a8.59787,8.59787,0,0,0-2.167,3.26634Z"/>
    <path id="path342" class="cls-2" d="M61.30825,226.21091l4.27867-7.10212,30.42519.68016L73.33755,206.17789l3.82-6.327L109.59945,219.354l-4.06513,6.78576L74.516,225.53866l23.04628,13.87205L93.766,245.72985Z"/>
    <path id="path346" class="cls-2" d="M119.27273,598.04861l-5.68644,3.54315-6.0186-9.60921L81.16017,608.512l-4.23122-6.762,26.42334-16.50569-6.02651-9.66457,5.67853-3.55106Z"/>
  </g>
  <g id="logo_SADC" data-name="logo SADC">
    <g id="C">
      <path class="cls-1" d="M502.52011,436.23984h.01564V274.9355c0-22.56415,18.22224-44.63,40.71514-44.63,22.56415,0,40.78639,22.06584,40.78639,44.63H622.2617a79.01062,79.01062,0,1,0-158.02118,0V443.63379a78.93381,78.93381,0,0,0,34.8674,65.5354,38.00581,38.00581,0,0,0,3.41219-15.63768Z"/>
      <path class="cls-1" d="M548.32052,487.8467v5.68481a83.6952,83.6952,0,0,1-5.28642,29.10223c.073,0,.1438.01086.21679.01086a79.01424,79.01424,0,0,0,79.01081-79.01081H584.03728C584.03728,464.41147,568.47737,484.84464,548.32052,487.8467Z"/>
    </g>
    <g id="D">
      <polygon class="cls-1" points="375.122 459.024 375.122 572.044 419.574 572.044 376.319 459.024 375.122 459.024"/>
      <path class="cls-1" d="M508.24576,339.85224h-.01564V493.53151a44.04866,44.04866,0,0,1-44.06085,44.06086h-7.31749l13.06877,34.16055a78.4207,78.4207,0,0,0,72.69-78.22141V328.81933a78.37191,78.37191,0,0,0-32.9858-63.91229,38.62052,38.62052,0,0,0-1.37895,10.02846Z"/>
      <path class="cls-1" d="M462.20206,250.30727H375.12217v73.64619l38.224,99.91666V284.75847h45.18435v-9.823A84.53976,84.53976,0,0,1,462.20206,250.30727Z"/>
    </g>
    <g id="A">
      <path class="cls-1" d="M355.97455,289.8837h-38.224l-21.78,56.93238c10.78093,6.04627,21.35594,12.38189,30.75662,19.61857l10.171-26.58241,32.52962,85.2035h-6.18051a115.21419,115.21419,0,0,1,1.8538,14.37863,78.22692,78.22692,0,0,1-1.34332,13.87989h16.48964l57.72742,150.83186h38.224Z"/>
      <path class="cls-1" d="M315.45709,439.19021l.02086-.24373a42.93661,42.93661,0,0,0-.96275-13.89074H304.29731l4.76986-12.46661a50.03918,50.03918,0,0,0-6.09711-7.54948,125.49136,125.49136,0,0,0-22.6228-17.38461l-82.821,216.49108h38.224l57.72786-150.83186h19.20714a36.77667,36.77667,0,0,0,2.7718-13.87989Z"/>
    </g>
    <g id="S">
      <path class="cls-1" d="M215.96229,439.43437h-38.224c0,31.47173,19.92616,58.6767,49.06053,72.2125l12.62041-32.9897C225.28433,470.21489,215.96229,455.81453,215.96229,439.43437Z"/>
      <path class="cls-1" d="M220.73127,277.6404c0-26.12318,23.56079-47.33489,52.60262-47.33489s52.60263,21.21171,52.60263,47.33489h38.224c0-45.1283-40.64432-81.78652-90.82661-81.78652s-90.82661,36.65822-90.82661,81.78652c.64082,23.13372,12.88369,47.69114,30.60761,61.99853,29.6114,25.83862,68.12,35.66158,93.88732,61.3577,10.60585,10.89042,15.44609,23.48954,14.16489,38.43774,0,19.828-13.6644,36.7399-32.98927,43.7033l-14.32042,37.41721c47.702-2.46421,85.53368-37.73653,85.53368-81.12051-.71164-11.53167-3.132-23.56078-8.47052-34.45164C327.07522,345.12,215.67729,338.71354,220.73127,277.6404Z"/>
    </g>
  </g>
</svg>
